<?xml version="1.0" encoding="utf-8"?>
<!-- Generator: Adobe Illustrator 24.0.3, SVG Export Plug-In . SVG Version: 6.00 Build 0)  -->
<svg version="1.1" id="Layer_1" xmlns="http://www.w3.org/2000/svg" xmlns:xlink="http://www.w3.org/1999/xlink" x="0px" y="0px"
	 viewBox="0 0 489.2 489.1" style="enable-background:new 0 0 489.2 489.1;" xml:space="preserve">
<g>
	<circle style="fill:#E68498;" cx="247.1" cy="245.3" r="238.7"/>
	<g>
		<path style="fill:#E4E4E4;" d="M249.1,397.4c-7,0-14.1,0-21.1,0c-5.9-0.6-11.9-1.2-17.8-1.7c-0.4,0-0.8,0.5-1.2,0.8
			c-1.3,0-2.7-0.1-4-0.1c-0.3-0.3-0.7-0.6-1-0.9c-1-0.9-1.8-2.3-2.9-2.8c-5-1.9-5.5-2.7-4.1-8.1c3.4,0.1,3.8-2.3,4.1-5
			c0.2-2.4,0.6-4.8,0.9-7.2c4.1-0.3,8.2-0.8,12.3-0.9c6.9-0.2,13.9,0,20.8,0c3,2.6,2,6.1,1.9,9.3c0,3,1.1,5.4,3.8,5.3
			c10.1-0.3,20.2-1,30.3-1.6c2,0.1,3.1-0.6,3-2.8c-0.1-1.8,0.2-3.7-0.1-5.5c-0.6-4.4,1.2-7.5,7-8.4c7.6-1.2,15.4-1.5,23.1-2.3
			c4.6,2.6,4.8,7,5,11.5c0.2,4.1,0.6,4.4,4.7,3.7c7.4-1.2,14.9-2.2,22.3-3.3c3.1-0.2,4.3-1.9,4.1-5c-0.2-3.2,0-6.5,0-10.6
			c3.3,0.8,5.6,1.4,8.6,2.2c-0.9,3.5-2.5,6.6-2.3,9.5c0.5,6.5-3.8,8.5-8.2,10.9c-1.6,0.9-2.7,2.5-4.1,3.8c-7,1.1-13.9,2.2-20.9,3.2
			c-0.7,0.2-1.4,0.5-2.1,0.7c-1.3,0.1-2.6,0.2-4,0.3c-1,0.2-2,0.5-3,0.7c-1.7,0.1-3.3,0.2-5,0.3c-1,0.2-2,0.5-3,0.7
			c-2.3,0.1-4.6,0.2-6.9,0.3c-0.7,0.2-1.4,0.4-2.1,0.7c-2,0.1-4,0.2-6,0.2c-0.7,0-1.4,0.1-2,0.1c-0.9,0-1.9,0-2.8,0
			c-1,0.2-2.1,0.5-3.1,0.7c-2.3,0.1-4.7,0.1-7,0.2c-1.3,0-2.7,0.1-4,0.1c-0.9,0-1.9,0-2.8,0C255.8,396.9,252.5,397.2,249.1,397.4z"
			/>
		<path style="fill:#A16D78;" d="M80.9,318.2c-0.6-14.4-1.2-28.8-1.8-43.3c-0.1-1.3,0-2.7-0.1-4c-0.3-8.1-0.6-16.3-1-24.4
			c3,0.4,4.2-1.6,4.8-3.9c0.9-4,1.5-8,2.2-12c0.9,1.1,2.3,2.2,2.6,3.4c1.3,6.3,2.2,12.6,3.5,18.9c0.7,3.3,1.9,6.5,2.9,9.7
			c0.1,0.3,0.1,0.7,0.2,1c-0.4,0.5-1,1-1,1.6c-0.1,12.2-0.2,24.4,0,36.6c0.1,5.2,1.2,10.3,1.6,15.4c0.3,3.7,0.3,7.5,0.2,11.3
			c-0.1,3.4-0.9,6.8-0.7,10.1c0.1,1.7,1.5,3.6,2.8,4.9c2.1,2,4.7,3.5,7,5.2c-0.8,0-1.8,0.3-2.4,0c-6.2-2.9-9.6-1.1-10.4,5.6
			c-0.2,1.8-0.1,3.6-0.2,5.4c-0.7-1.3-1.4-2.6-2-3.9c-0.6-1.3-1.2-2.7-1.8-4.1c0-3-0.2-6,0-9c0.1-2.8-0.8-4.8-3.2-6.3
			c-0.9-2.7-2.2-5.3-2.6-8.1C80.9,325,81,321.6,80.9,318.2z"/>
		<path style="fill:#57461E;" d="M334.1,134.4c7.9,0.5,13.8,8.2,12.1,16.2c6.8,1,11,5.4,14.1,11.2c1.3,2.9,2.5,5.9,3.8,8.8
			c0,1,0,1.9,0,2.9c-1.2-1.4-2.3-2.8-4-4.8c0,2.4,0,4.2,0,5.9c-1.1-3.3-2.7-5.8-6.9-5.2c-1.2,0.2-2.8-0.4-3.8-1.2
			c-0.7-0.5-1.3-2.1-1-2.8c1.3-3.7,4.6-2.6,7.9-3.1c-1.6-1.8-3.2-3.7-5.1-5.7c-2.4,2.9-4.7,5.1-6.1,7.7c-0.6,1.1,0.1,4.5,0.5,4.6
			c3.8,0.6,3.9,4.1,5.3,6.4c0.1,0.2,0.4,0.3,0.6,0.5c0.3-0.6,0.7-1.1,1.2-2.1c1.2,1.5,2.8,2.6,3,4c1.3,7.6,2.2,15.3,3.3,23
			c-1-0.1-2-0.2-3-0.2c-0.9-3.4-4.6-6.3-1.4-10.3c0.2-0.2-0.3-0.9-0.5-1.4c-1.5-3.4-3-6.9-4.5-10.3c-0.2,0.1-0.3,0.1-0.5,0.2
			c0,1.9,0,3.8,0,5.3c-1.4-0.8-2.9-1.6-4.2-2.5c-0.8-0.5-1.3-1.4-1.9-2.1c2.5,0.2,1.4-1.5,1.4-2.6c0.7-0.4,1.3-0.8,1.7-1
			c-1.1-1.6-2-2.9-2.8-4c-1.3,0.9-2.7,2-4.4,3.2c0.9,0.4,1.3,0.6,1.7,0.8c0.1,0.6,0.2,1.2,0.3,1.8c-0.2,0.4-0.8,0.9-0.6,1.1
			c2.2,5.1,1.3,7-4.2,8.9c-0.4-1.8-0.7-3.5-1.1-5.3c-0.3-1.4-0.4-2.9-1.1-4.2c-3.8-7.3-7.9-14.4-11.6-21.8c-0.7-1.5-0.2-3.6-0.2-5.5
			C328.9,147.5,331.5,140.9,334.1,134.4z M336,163.6c-2.5,3.7-2.2,7.6-1.4,12c4.1-1.9,0.6-4,0.8-6.1c0.6-0.6,1.4-1.3,2.1-2
			C337,166,336.5,164.8,336,163.6c1-0.7,1.8-1.4,2.7-2.2c-0.7-0.4-1.5-0.7-2.6-1.3C336.1,161.6,336,162.6,336,163.6z M338.5,158
			c1-4.3,0.3-7-2.7-8.9C335.6,152.1,333.3,155.8,338.5,158z"/>
		<path style="fill:#7C8281;" d="M78,244.5c-0.9-5.7-2.2-11.3-2.7-17c-0.7-7.9-1.2-15.9-1.1-23.8c0.1-7.6,4-13.5,10.8-17.2
			c0.5,5.8,0.8,6,8.1,6.2c3.3,1,6.6,2,9.9,3c0.4,0.1,0.7,0.1,1.1,0.2c3.9,2.5,7.8,1.6,12,0c-0.3-1.5-0.6-2.9-0.9-4.3
			c1.3-0.7,2.5-1.6,3.8-1.9c1.9-0.5,3.9-0.6,5.9-0.8c0.2-0.5,0.4-1,0.7-1.6c-2.1-2.2-4.2-4.4-6.3-6.7c0.6-1,1.3-2,1.9-3
			c4-0.3,8-0.7,12-1c-0.3,4.3-0.6,8.7-0.9,13c-0.9,3.5-1.6,6.8,0.6,10.2c0.6,0.9,0.3,2.5,0.4,3.8c-3.3-0.5-6.5-0.9-9.8-1.4
			c-3.7-0.5-7.4-2-10.5,1.8c-0.6,0.7-2.2,0.6-3.3,0.6c-7.2,0.2-13.8-1.6-19.6-5.8c-4.4,2.8-7,6.6-5.7,11.5c1,4.2-0.4,7.2-2.6,10.5
			c-3.3,5.1-3.8,10.9-2.5,16.8C78.7,239.9,78.4,242.2,78,244.5z M109.2,202.1c0.5,0.1,1,0.1,1.4,0.2c0.1-1,0.2-2,0.3-2.9
			c-0.3-0.1-0.6-0.1-0.9-0.2C109.7,200.1,109.4,201.1,109.2,202.1z"/>
		<path style="fill:#67B7A8;" d="M364.1,173.5c0-1,0-1.9,0-2.9c2.2,1,2-0.5,2-1.9c0-13.8,0-27.5,0.1-41.3c0-3.1-1.1-4.3-4.1-3.7
			c-8,0-16,0-23.9,0c0.3-6.6,0.7-13.2,1-19.8c0.2-5.8,0.5-6.1,6.3-6.2c24-0.3,48.1-0.6,72.1-1c1.1,0,2.2-0.4,3.3-0.6
			c0.7,1.1,2.1,2.1,2.1,3.2c-0.1,7.9-0.5,15.9-0.8,24.4c-7.8,0-14.9,0-22,0c-6,0-6,0-6.2,6c-0.6,17.6-1.4,35.2-2,52.8
			c-0.1,2,0.1,4,0.2,6c-0.7,0.7-1.4,1.4-2.2,2.1c-6.8,0-13.6,0-20.4,0c-0.2-0.7-0.3-1.3-0.5-2c5.8,0,11.5,0.1,17.3,0.1
			c1.5,0,3.5,0.5,3.6-2.1c0.4-7.8,0.8-15.6,1.1-23.4c0.4-13,0.8-25.9,1.2-38.9c0-0.8,0.3-1.5,0.7-2.8c9,0,18,0,27.6,0
			c0-7.4,0-14.3,0-21.8c-25.9,0.1-51.9-1-78.3,1.4c-0.5,6.8-0.9,13.5-1.4,20.7c9.9,0,18.8,0,27.2,0c0,19.3,0,38.1,0,56.8
			c-0.4,0-0.8,0-1.2,0C365.9,176.9,365,175.2,364.1,173.5z"/>
		<path style="fill:#67B7A8;" d="M153.1,95.7c0.3,1.5,1,3.1,1,4.6c0.1,7.1,0,14.3,0,22.3c-1.5,0.3-3.5,0.9-5.5,0.9
			c-11.5,0.1-22.9,0.1-34.4,0.1c-4-0.3-3.3,2-2.7,4.9c9.7,0,19.3,0,28.9,0c0.6,2.2,1.5,3.9,1.4,5.6c-0.1,2.6,1.7,5.7-1.6,7.6
			c-0.2-2.3-0.6-4.6-0.5-6.9c0.1-3.5-1.5-4.5-4.9-4.4c-6.9,0.2-13.9,0.1-20.8,0.1c-1.9-0.1-3.8-0.2-5.5-0.3c0-3.3,0-5.8,0-8.7
			c11.7,0,23.1,0,34.4,0c5.4,0,6.9-1.3,7-6.7c0.1-4-0.8-7.9-0.8-11.9c0-3.5-1.9-4.4-4.7-4.3c-3.6,0.1-7.3,0.7-10.9,0.8
			c-10.5,0.2-21,0.1-31.5,0.2c-5.9,0-11.8,0-18.2,0c0.7,17.1,1.3,33.2,1.9,47.3c7.2,5.9,12.7,10.5,18.4,15c1.6,1.3,3.5,2.3,5.2,3.5
			c0.7,3.6,2.6,7.3-1.4,10.3c-1.9-2.6-4.2-5-5.7-7.9c-3.8-7.4-9.7-11-18-10.7c-0.7-19.8-1.4-39.6-2.1-59.4
			c20.1-0.4,40.2-0.8,60.4-1.2c2.5,0,5,0.1,7.5,0C151,96.6,152,96,153.1,95.7z"/>
		<path style="fill:#D4A6B1;" d="M396.1,254.7c-0.4,14.4-0.7,28.8-1.1,43.1c-0.2,7.9-0.6,15.8-1,23.7c0,2.4,0.1,4.8,0.1,7.2
			c-0.4,3.3-0.8,6.6-1.1,9.8c-1.9,0.9-4,1.7-5.7,2.9c-1.6,1.1-2.9,2.7-4.3,4c-1,0-1.9,0-2.9,0.1c-0.2-3.8,3.5-4.5,5.4-6.5
			c1.4-1.6,2.6-2.6,1.9-5c-2.3-8.3-1.7-16.8-1.4-25.3c0.5-11.8,0.7-23.5,1.1-35.3c0.3-8.1,0.6-16.2,1-24.3c0.1-2.5,0.7-4.7,4-4.5
			c0.4,2.4,0.6,4.8,1.3,7.1c0.4,1.1,1.8,1.9,2.7,2.8L396.1,254.7z"/>
		<path style="fill:#D8D8D8;" d="M130.9,385.7c0,0-0.4,0-0.4,0l-0.4,0c0-0.3,0-0.7,0-1c-1-3.1-0.2-6.1,1-9c0.7-0.2,1.3-0.5,2-0.7
			c3.3-1.1,2-3.9,2-5.9c-0.1-4.5,1.8-7.2,6.1-8.4c3.6,0.4,7.3,0.8,10.9,1.1c0.6,0.3,1.3,0.6,1.9,0.8c1.4,0.3,2.7,0.7,4.1,1
			c0.6,0,1.3,0,1.9,0c1,0.3,2,0.6,3.1,0.9l0,0.1c-0.3,0.7-0.4,1.9-1,2.1c-4.8,2.4-4.6,6.2-3.3,10.5c0.5,1.5,0.6,3.4,0.1,4.9
			c-1.1,3.4,0.1,5.2,3,6.8c1.3,0.7,2.2,2.2,3.2,3.3c-7.3-1.1-14.6-2.1-21.9-3.4c-3.7-0.6-7.4-1.6-11.1-2.5
			C131.7,386.3,131.3,386,130.9,385.7z"/>
		<path style="fill:#E1E0E0;" d="M334,388.4c1.4-1.3,2.5-2.9,4.1-3.8c4.4-2.5,8.7-4.5,8.2-10.9c-0.2-2.9,1.4-6,2.3-9.5
			c-3-0.8-5.3-1.3-8.6-2.2c0,4.1-0.2,7.3,0,10.6c0.2,3.1-1,4.7-4.1,5c-0.2-1.4-0.5-2.9-0.6-4.3c-0.2-4.7-0.1-9.4,2.6-13.5
			c6.5-1.5,13.1-3,19.6-4.5c4.2-0.9,7.1,1.2,7.3,5.4c0.1,1.3,0,2.6,0,4c0.2,1.6-0.8,3.7,2,4c0.6,1.5,1.2,2.9,2.2,5.2
			c-1.3,1.1-2.8,2.2-4.2,3.3c-1.7,1.4-3.3,2.9-5,4.4C351.4,383.8,342.7,386.1,334,388.4z"/>
		<path style="fill:#57461E;" d="M84.2,157.3c8.3-0.3,14.2,3.3,18,10.7c1.5,2.9,3.8,5.3,5.7,7.9c1.5,3.6,3,7.1,4.5,10.7
			c-2,1.6-4,3.8-5.9-0.2c-2,1.4-3.3,2.7-1.2,5.1c1.6,1.9,0.3,3.3-1.3,4.4c-0.4-0.1-0.7-0.1-1.1-0.2c1.5-5.4-4.1-6.7-6-10.2
			c-0.4-0.7-3.5,0.2-5.3,0.4c-1.2-2.4-2.4-4.8-3.6-7.2c-1-2.3-2-4.7-3-7c-0.9-2.6-1.7-5.2-2.6-7.8C81.6,161.3,82,159.1,84.2,157.3z"
			/>
		<path style="fill:#E1E0E0;" d="M165.1,392.4c-1.1-1.1-1.9-2.6-3.2-3.3c-2.8-1.6-4.1-3.5-3-6.8c0.5-1.5,0.3-3.4-0.1-4.9
			c-1.3-4.3-1.5-8.1,3.3-10.5c0.5-0.3,0.7-1.4,1-2.1c0.7,0,1.3,0,2-0.1c1,1.7,2.5,3.4,2.9,5.2c0.7,3.2,0.6,6.6,1.2,9.8
			c0.2,1.1,1.7,2.7,2.7,2.8c8.4,0.9,16.8,1.5,25.1,2.1l0,0.1c-1.4,5.4-0.9,6.2,4.1,8.1c1.2,0.4,2,1.8,2.9,2.8c-3,0-6,0-9,0
			c-1.3,0-2.7-0.1-4-0.1c-2.3-0.3-4.7-0.6-7-0.9c-1.7-0.1-3.4-0.2-5.1-0.3c-1.3-0.3-2.6-0.5-3.9-0.8c-1-0.1-2-0.1-3-0.2
			c-1.5-1-2.9-2.9-5-0.9C166.4,392.5,165.7,392.5,165.1,392.4z"/>
		<path style="fill:#BDBDBD;" d="M91.1,359.6c0-1.8-0.1-3.6,0.2-5.4c0.8-6.7,4.2-8.5,10.4-5.6c0.7,0.3,1.6,0,2.4,0c1,0.3,2,0.7,3,1
			c1.3,1,2.6,2,4,3.1c-1.2,1.8-3.4,3.6-3.5,5.5c-0.2,3.5,0.9,7,1.5,10.4c0.7,2,1.2,4,2.1,5.9c0.8,1.8,2.1,3.4,3.2,5
			c0.5,0.7,1.2,1.3,1.8,2c-8.9-2.4-17.3-5.9-25-11C91.1,366.9,91.1,363.3,91.1,359.6z"/>
		<path style="fill:#BDBDBD;" d="M400.1,196.7c-0.4,6.7-0.9,13.5-1,20.2c-0.1,3.9,0.5,7.9,0.8,11.8c0.6,8.9-0.3,17.7-3.8,26.1
			c0,0,0-0.2,0-0.2c-0.6-5.2-1-10.5-1.8-15.7c-1.6-10.4-3.9-20.8-0.7-31.4c1.1-3.7-1.7-6.9-5.7-6.7c-2.6,0.1-5.7,0.2-7.6,1.7
			c-4,3.2-8.4,3.4-13.1,3.3c-4.8-0.1-9.6-0.1-14.5,0c-1.6,0-3.1,0.6-4.6,1c-1.7,0-3.3,0-5,0c-1.7-0.3-3.3-0.7-5-1
			c1.5-0.3,3-0.9,4.6-1c8.1-0.8,16.3-1.4,24.4-2.1c1.5,0.2,3.6,1.2,4.4,0.6c4-3.3,9-3.8,13.6-5.5c2.5,1.9,4.8,1.2,7.2-0.5
			C394.7,195.3,397.4,195,400.1,196.7z"/>
		<path style="fill:#2A2828;" d="M133.1,203.6c-0.1-1.3,0.2-2.8-0.4-3.8c-2.2-3.4-1.5-6.7-0.6-10.2c1.2-5.3,2.4-10.6,3.6-15.9
			c2.8-4.5,5-9.5,8.5-13.4c2.8-3.1,7.3-4.8,11-7.1c1.1,0,2.1,0,3.2-0.1c4.4,0.1,8.4,1.6,11.7,4.5c0.4,0.9,0.7,1.8,1.1,2.7
			c-0.5,0.3-1.1,0.9-1.6,0.8c-4.3-0.5-8.6-1.2-12.9-1.5c-1.1-0.1-2.4,1-4,1.8c1.1,0.9,1.6,1.5,1.8,1.4c3.1-1.1,5.3,0,7,2.6
			c1.6,2.3,3.1,4.6,4.7,7l0,0c0.3,0.7,0.5,1.4,0.8,2.1c0,0.3,0.1,0.7,0.2,1c-2.4,0.1-4.5,0.1-5.3-3.1c-0.4-1.6-2.5-2.8-3.8-4.2
			c-1.6,1.4-2.7,2.3-3.8,3.3c-0.2-0.2-0.5-0.4-0.7-0.6c0.4-1.3,0.8-2.7,1.2-4.2c-2.9,0.8-5.4,1.4-7.7,2.1c-0.6-1.1-1.1-1.9-2-3.5
			c-0.5,1.7-0.7,2.4-0.9,3.2l0,0c-3.7,2.6-5.8,6.2-6.1,10.7c-0.6,4-1.2,8-1.7,12c0.6,4.4,1.2,8.9,1.8,13.3c-1.5-0.1-3.1-0.3-4.6-0.4
			C133.3,204,133.2,203.8,133.1,203.6z M149.7,163.7c-0.1-0.2-0.2-0.6-0.4-0.7c-0.2-0.1-0.5,0.2-0.8,0.3c0.2,0.3,0.4,0.6,0.6,0.9
			C149.3,164,149.5,163.9,149.7,163.7z"/>
		<path style="fill:#67B7A8;" d="M228.5,103.6c8.7,4.6,14.1,12.1,17.6,21.1c1.1,2.7,1.9,5.6,2.8,8.4c0,5.7,0,11.4,0,17.2
			c2.1,0.3,3.5,0.4,5,0.6c0,0.2,0,0.4,0,0.6c-2.4,0.1-4.9,0.2-7.3,0.2c-0.2-5-0.4-10-0.6-15.1c-1.4-4.4-2.1-9.1-4.2-13.1
			c-9.8-18.5-30.9-27.2-50.6-22.3c-6.3,1.6-12.2,4.9-18.2,7.5c0.3-1,0.7-2,1-3.1c0,0,0,0,0,0c1-0.7,2-1.3,3-2c0,0,0,0,0,0
			c1.2-0.4,2.5-0.7,3.7-1.2c6.5-2.9,13.3-5.2,20.5-4.6c7,0.5,13.9,1.8,20.9,2.8l-0.1,0c1.7,0.7,3.4,1.4,5.1,2l-0.1,0
			C227.5,102.9,228,103.2,228.5,103.6z"/>
		<path style="fill:#67B7A8;" d="M334.1,134.4c-2.6,6.5-5.1,13-11.9,16.5c-0.1-0.2-0.1-0.5-0.2-0.7c1.2-1.5,2.7-2.9,3.6-4.6
			c2-3.5,3.7-7.2,5.6-10.9c0.3-2.7,0.7-5.5,1-8.2c1.1-12.1-9.3-24.6-20.8-25.9c-5.1-0.6-10.2-0.8-15.3-0.9c-12.4-0.1-24.9,0-37.1,0
			c-0.7,1.6-1.2,2.8-1.7,4c-0.4-1.7-0.8-3.5-1.5-6.4c21,0.5,40.8,0.9,60.6,1.4c13.8,4.9,20.3,20,18.4,32.4
			C334.4,132.1,334.3,133.3,334.1,134.4z"/>
		<path style="fill:#CFCECE;" d="M383,345.5c1.4-1.4,2.7-2.9,4.3-4c1.7-1.2,3.8-2,5.7-2.9c2.9,0.8,3,5.8,7,5
			c-2.8,5.4-6.5,10.5-5,17.1c-3.4,3-6.7,5.9-10.1,8.9c0-3,0-6,0-9c0.3-1.3,0.8-2.5,0.7-3.8C385.7,352.9,387.9,348.3,383,345.5z"/>
		<path style="fill:#4D8378;" d="M316.2,98.6c-19.8-0.5-39.7-0.9-60.6-1.4c0.7,2.9,1.1,4.7,1.5,6.4c-0.2,6.8-0.6,13.6-0.6,20.4
			c0,3.1,0.4,6.3,0.6,9.4c-0.2,1.6-0.4,3.3-0.6,4.9c-0.1,4.4-0.2,8.8-0.2,13.2c-0.8,0-1.5-0.1-2.3-0.1c0-0.2,0-0.4,0-0.6
			c0-6.5,0.1-12.9,0.1-19.4c0-11.8,0-23.5,0-35.5c2-0.2,3.2-0.4,4.5-0.4c14.8,0,29.6-0.2,44.3,0.2C307.4,95.8,311.8,97.6,316.2,98.6
			z"/>
		<path style="fill:#4D8378;" d="M140.3,141.8c3.3-1.9,1.5-5,1.6-7.6c0.1-1.7-0.8-3.5-1.4-5.6c-9.6,0-19.2,0-28.9,0
			c-0.6-2.9-1.3-5.3,2.7-4.9c0,2.9,2.3,1.8,3.6,1.9c8.8,0.1,17.6,0,26.9,0c0.1,2,0.2,3.8,0.3,5.5c0.3,5.6,0.6,11.2,0.7,16.9
			c0.1,4.5-1.1,5.6-5.5,5.7c-3.8,0.1-7.6,0-11.4-0.1c2.4-0.3,4.7-0.9,7.1-1c4.7-0.2,5.1-0.4,5-5.1c0-1.6-0.5-3.2-0.8-4.8
			C140.2,142.4,140.2,142.1,140.3,141.8z"/>
		<path style="fill:#D8D8D8;" d="M385,360.6c0,3,0,6,0,9c-8.3,4-16.7,8-25,12c1.7-1.5,3.3-3,5-4.4c1.4-1.2,2.9-2.3,4.2-3.3
			c-0.9-2.2-1.6-3.7-2.2-5.2c4.9-1.3,8.9-3.5,10-9C379.7,359.9,382.4,360.3,385,360.6z"/>
		<path style="fill:#7C8281;" d="M80.9,318.2c0.1,3.4-0.1,6.8,0.5,10c0.4,2.8,1.7,5.4,2.6,8.1c-1.7,0.8-4,1.1-4.9,2.5
			c-2.4,3.3-1,12.2,2,15.7c0.5,2.1,1.1,4.1,1.4,6.3c0.1,0.5-1,1.2-1.5,1.9c-3.8-3.3-5.8-7.5-6-12.5c-0.1-2.5-0.5-4.9-0.9-7.4
			c-1.2-6.9,1.6-13.2,2.9-19.7C77.4,321.3,79.6,319.8,80.9,318.2z"/>
		<path style="fill:#4D8378;" d="M420.9,96.1c-1.1,0.2-2.2,0.6-3.3,0.6c-24,0.4-48.1,0.7-72.1,1c-5.8,0.1-6.1,0.4-6.3,6.2
			c-0.2,6.6-0.6,13.2-1,19.8c-0.7-1-2.1-1.9-2.1-2.9c-0.2-8.1-0.1-16.3-0.1-24.7c2-0.2,3.2-0.5,4.5-0.5c25.3,0,50.7,0,76,0
			C417.9,95.6,419.4,95.9,420.9,96.1z"/>
		<path style="fill:#4D8378;" d="M362.1,123.6c3-0.5,4.1,0.6,4.1,3.7c-0.2,13.8-0.1,27.5-0.1,41.3c0,1.4,0.2,2.9-2,1.9
			c-1.3-2.9-2.5-5.9-3.8-8.8c0.5-3.5,1.4-7,1.5-10.5C362.1,142.1,362,132.9,362.1,123.6z"/>
		<path style="fill:#CFCECE;" d="M116.1,381.5c-0.6-0.7-1.3-1.3-1.8-2c-1.1-1.6-2.3-3.2-3.2-5c-0.9-1.9-1.4-3.9-2.1-5.9
			c2.3,0,4.7,0,7,0c1.1,1.2,2,3,3.4,3.6c3.8,1.4,7.7,2.4,11.6,3.5c-1.3,2.9-2,5.8-1,9c-1,0-2.1,0-3.1,0c-0.3,0-0.6,0-0.9,0
			c-0.7-0.3-1.4-0.6-2.2-0.9c-0.6,0-1.2-0.1-1.8-0.1c-0.7-0.3-1.4-0.6-2-0.9c0,0,0,0,0,0c-1-0.3-2-0.7-3.1-1
			C116.7,381.6,116.4,381.6,116.1,381.5z"/>
		<path style="fill:#67B7A8;" d="M140.2,142.8c0.3,1.6,0.8,3.2,0.8,4.8c0.1,4.7-0.3,4.9-5,5.1c-2.4,0.1-4.7,0.6-7.1,1
			c-0.2,0.1-0.4,0.1-0.6,0.1c-0.7-0.1-1.4-0.2-2.1-0.3c-0.4-0.4-0.9-0.7-1.3-1.1C126.8,146.3,132.9,142.5,140.2,142.8z"/>
		<path style="fill:#97A9A2;" d="M81.1,362.7c0.5-0.6,1.5-1.3,1.5-1.9c-0.3-2.1-0.9-4.2-1.4-6.3c1.1,0.3,2.1,0.5,2.8,0.7
			c1.3-1.4,2.3-2.5,3.3-3.6c0.6,1.4,1.2,2.7,1.8,4.1c0.6,1.3,1.4,2.6,2,3.9c0,3.7,0,7.3,0,11C87.7,367.9,84.4,365.3,81.1,362.7z"/>
		<path style="fill:#57461E;" d="M126.2,153.4c0.7,0.1,1.4,0.2,2.1,0.3c-1.4,5-2.8,9.9-4.2,14.9c-1.9,0-3.3-0.2-2.7-2.8
			c0.5-1.8,0.4-3.7,0.7-5.9c-2.1,0.8-3.6,1.3-5.1,1.8c-0.3-1-0.8-2.1-1-3.1c-0.9-4.2-0.3-4.8,3.9-4.9
			C121.9,153.6,124,153.5,126.2,153.4z"/>
		<path style="fill:#57461E;" d="M254.1,131.5c0,6.5-0.1,12.9-0.1,19.4c-1.4-0.2-2.9-0.4-5-0.6c0-5.8,0-11.5,0-17.2
			C250.7,132.5,252.4,132,254.1,131.5z"/>
		<path style="fill:#4D8378;" d="M153.1,95.7c-1.1,0.3-2.1,0.8-3.2,0.9c-2.5,0.1-5,0-7.5,0c-20.1,0.4-40.2,0.8-60.4,1.2
			c1.6-0.8,3.2-2.3,4.9-2.3C109,95.5,131,95.7,153.1,95.7z"/>
		<path style="fill:#7A6632;" d="M116.9,161.8c1.5-0.5,3-1.1,5.1-1.8c-0.2,2.2-0.2,4.1-0.7,5.9c-0.7,2.6,0.8,2.8,2.7,2.8
			c-1,3-2,6-3,9c-0.6,1-1.3,2-1.9,3C115.8,177.4,114.6,167.2,116.9,161.8z M120,170.6c0.1-0.1,0.3-0.1,0.3-0.2c0.1,0,0-0.2,0.1-0.3
			C120.3,170.3,120.2,170.5,120,170.6c-0.1,0.1-0.2,0.1-0.3,0.2c-0.1,0-0.1,0.2-0.1,0.3C119.8,170.9,119.9,170.7,120,170.6z"/>
		<path style="fill:#E1E0E0;" d="M400.1,343.6c-4.1,0.8-4.1-4.2-7-5c0.4-3.3,0.8-6.6,1.1-9.8c2.3,0.6,4.6,1.2,6.9,1.8
			c-0.1,4.3-0.1,8.7-0.2,13C400.6,343.6,400.3,343.6,400.1,343.6z"/>
		<path style="fill:#4D8378;" d="M222.1,100.6c-7-1-13.9-2.3-20.9-2.8c-7.2-0.6-14,1.7-20.5,4.6c-1.2,0.5-2.5,0.8-3.7,1.2
			c3.5-2,6.8-4.5,10.6-5.7c10.7-3.5,21.5-3.2,32,0.7C220.6,98.9,221.3,99.9,222.1,100.6z"/>
		<path style="fill:#4D8378;" d="M158.3,153.2c-1.1,0-2.1,0-3.2,0.1c-1.9-10.7-0.8-21.1,3.9-30.9c0.7-1.4,1.8-2.7,2.7-4l0.3,0.3
			c0.1,0.7,0.1,1.4,0.2,2.1c-0.5,1.2-0.9,2.4-1.4,3.7c-0.6,1.1-1.2,2.1-1.8,3.2C155.7,136,156.4,144.6,158.3,153.2z"/>
		<path style="fill:#97A9A2;" d="M400.1,196.7c-2.7-1.7-5.4-1.3-7.9,0.5c-2.3,1.7-4.6,2.4-7.2,0.5c1.7-2.3,3.3-4.6,5-7
			c0.7-0.7,1.4-1.4,2.2-2.1C398.2,190,400.4,192.2,400.1,196.7z"/>
		<path style="fill:#BDBDBD;" d="M78,244.5c0.4-2.3,0.8-4.6,1.1-6.9c0.4-1.2,0.8-2.4,1.3-3.6c0.8-2.2,2-3.8,4.7-3.4
			c-0.7,4-1.3,8.1-2.2,12c-0.5,2.3-1.8,4.3-4.8,3.9C78.1,245.9,78,245.2,78,244.5z"/>
		<path style="fill:#4D8378;" d="M85.1,171.7c1,2.3,2,4.7,3,7c-0.3,2-0.9,4-0.9,6c0,4.9,0.1,4.9,5,4c0.3,1.4,0.6,2.7,0.9,4.1
			c-7.3-0.2-7.5-0.4-8.1-6.2C85,181.5,85,176.6,85.1,171.7z"/>
		<path style="fill:#BDBDBD;" d="M400.1,343.6c0.3,0,0.6,0,0.8-0.1c-0.6,6.2-0.3,12.6-5.8,17.1C393.6,354.1,397.2,349,400.1,343.6z"
			/>
		<path style="fill:#C38F9B;" d="M401.1,330.6c-2.3-0.6-4.6-1.2-6.9-1.8c0-2.4-0.1-4.8-0.1-7.2C399.6,322,400.9,323.7,401.1,330.6z"
			/>
		<path style="fill:#C38F9B;" d="M135.7,173.7c-1.2,5.3-2.4,10.6-3.6,15.9c0.3-4.3,0.6-8.7,0.9-13
			C133.9,175.7,134.8,174.7,135.7,173.7z"/>
		<path style="fill:#D8D8D8;" d="M209,396.6c0.4-0.3,0.8-0.8,1.2-0.8c5.9,0.5,11.9,1.1,17.8,1.7C221.7,397.1,215.4,396.8,209,396.6z
			"/>
		<path style="fill:#67B7A8;" d="M164.1,114.8c1.2-1.4,2.3-2.8,3.5-4.2c0.5-0.3,1-0.7,1.5-1c0,0,0,0,0,0c0.7,0.1,1.5,0.2,2.2,0.3
			c-2.3,2.3-4.5,4.7-6.8,7C164.3,116.2,164.2,115.5,164.1,114.8z"/>
		<path style="fill:#D8D8D8;" d="M195,395.6c3,0,6,0,9,0c0.3,0.3,0.7,0.6,1,0.9C201.7,396.2,198.4,395.9,195,395.6z"/>
		<path style="fill:#4D8378;" d="M171.2,109.9c-0.7-0.1-1.5-0.2-2.2-0.3c1.7-1.3,3.3-2.7,5-4c-0.3,1-0.7,2-1,3.1
			C172.4,109,171.8,109.5,171.2,109.9z"/>
		<path style="fill:#D8D8D8;" d="M249.1,397.4c3.4-0.2,6.7-0.5,10.1-0.7C255.8,396.9,252.5,397.2,249.1,397.4z"/>
		<path style="fill:#D8D8D8;" d="M184,394.6c2.3,0.3,4.7,0.6,7,0.9C188.7,395.2,186.4,394.9,184,394.6z"/>
		<path style="fill:#D8D8D8;" d="M262,396.7c1.3,0,2.7-0.1,4-0.1C264.7,396.6,263.4,396.6,262,396.7z"/>
		<path style="fill:#D8D8D8;" d="M167.1,392.5c2.1-2,3.4-0.1,5,0.9C170.4,393.1,168.7,392.8,167.1,392.5z"/>
		<path style="fill:#4D8378;" d="M164.1,114.8c0.1,0.7,0.3,1.4,0.4,2.1c-0.2,0.5-0.3,1.1-0.5,1.6c-0.6,0-1.3,0.1-1.9,0.1l-0.3-0.3
			C162.5,117.1,163.3,116,164.1,114.8z"/>
		<path style="fill:#4D8378;" d="M227.1,102.6c-1.7-0.7-3.4-1.4-5.1-2C223.7,101.2,225.4,101.9,227.1,102.6z"/>
		<path style="fill:#D8D8D8;" d="M175,393.6c1.3,0.3,2.6,0.5,3.9,0.8C177.7,394.1,176.4,393.8,175,393.6z"/>
		<path style="fill:#4D8378;" d="M177,103.6c-1,0.7-2,1.3-3,2C175,104.9,176,104.2,177,103.6z"/>
		<path style="fill:#D8D8D8;" d="M279,395.7c0.7,0,1.4-0.1,2-0.1C280.4,395.6,279.7,395.6,279,395.7z"/>
		<path style="fill:#D8D8D8;" d="M273.1,396.4c1-0.2,2.1-0.5,3.1-0.7C275.2,395.9,274.1,396.2,273.1,396.4z"/>
		<path style="fill:#D8D8D8;" d="M296.1,394.4c1-0.2,2-0.5,3-0.7C298.1,393.9,297.1,394.1,296.1,394.4z"/>
		<path style="fill:#D8D8D8;" d="M304.1,393.4c1-0.2,2-0.5,3-0.7C306.1,392.9,305.1,393.1,304.1,393.4z"/>
		<path style="fill:#BDBDBD;" d="M126.9,384.7c1,0,2.1,0,3.1,0c0,0.3,0,0.7,0,1C129,385.3,128,385,126.9,384.7z"/>
		<path style="fill:#BDBDBD;" d="M117,381.6c1,0.3,2,0.7,3.1,1C119,382.3,118,381.9,117,381.6z"/>
		<path style="fill:#BDBDBD;" d="M120,382.6c0.7,0.3,1.4,0.6,2,0.9C121.4,383.2,120.7,382.9,120,382.6z"/>
		<path style="fill:#D8D8D8;" d="M287.1,395.3c0.7-0.2,1.4-0.4,2.1-0.7C288.5,394.9,287.8,395.1,287.1,395.3z"/>
		<path style="fill:#D8D8D8;" d="M311.1,392.4c0.7-0.2,1.4-0.5,2.1-0.7C312.5,391.9,311.8,392.1,311.1,392.4z"/>
		<path style="fill:#BDBDBD;" d="M123.9,383.7c0.7,0.3,1.4,0.6,2.2,0.9C125.4,384.3,124.6,384,123.9,383.7z"/>
		<path style="fill:#BDBDBD;" d="M130.9,385.7c0.4,0.3,0.8,0.6,1.2,0.9C131.7,386.3,131.3,386,130.9,385.7z"/>
		<path style="fill:#4D8378;" d="M169,109.6c-0.5,0.3-1,0.7-1.5,1C168,110.2,168.5,109.9,169,109.6z"/>
		<path style="fill:#4D8378;" d="M228.5,103.6c-0.5-0.3-1-0.7-1.5-1C227.5,102.9,228,103.2,228.5,103.6z"/>
		<path style="fill:#E8C7CF;" d="M338.1,359.7c-2.8,4.1-2.8,8.8-2.6,13.5c0,1.5,0.4,2.9,0.6,4.3c-7.4,1.1-14.9,2.1-22.3,3.3
			c-4.1,0.6-4.5,0.4-4.7-3.7c-0.2-4.5-0.3-9-5-11.5c-1.1-0.7-2.2-1.9-3.3-1.9c-6.9,0.5-13.8,1.2-20.7,1.9c-4.5,0.5-7.7,2.9-8,6.1
			c-0.4,4.3-0.7,8.6-1,12.8c-10.1,0.6-20.2,1.4-30.3,1.6c-2.8,0.1-3.9-2.4-3.8-5.3c0-3.2,1.1-6.7-1.9-9.3c-0.3-0.7-0.7-1.3-1-2
			c-1.2-0.7-2.3-1.9-3.5-2c-6.8-0.5-13.6-0.8-20.5-1.1c1.4-3,2.7-6,4.1-9c1.7,0.6,3.4,1.3,5,1.9c0.6,0.2,1.2,0.3,1.7,0.5
			c0.7,0.3,1.3,0.7,2,1c3.4,0.9,6.8,1.7,10.2,2.6c8.8,1.9,17.5,1.8,25.8-2c2.4-1.1,4.6-2.8,4.2-6c0-0.6,0-1.3,0.1-1.9
			c1.8-2.1,3.9-4,5.5-6.3c4.8-7.2,4.7-15.4,4.6-23.6c-0.1-5.9-0.3-6.2-6.2-6.1c-14.6,0.2-29.3,0.5-43.9,0.8c-1.3-0.3-2.7-0.6-4-0.8
			c-1.2-4-2.4-8.1-3.4-12.1c-0.3-1.2-0.6-2.9,0-3.7c1.9-2.7,0.6-5.4,0.3-8.1c-0.2-1.9-0.2-3.8-0.1-5.7c0.3-4.5,1.8-9.3,0.8-13.5
			c-1.6-6.4,1.1-13.2-2.4-19.3c-0.3-0.5,0.2-1.6,0.5-2.3c2.1-4.5,1.9-4.8-2.3-7.2c-1.3-0.8-2.3-2.1-3.4-3.1c2.8-0.2,5.6-0.4,8.3-0.6
			c7.5-0.8,15-2,22.5-2.2c8.4-0.2,16.8,0.5,25.2,0.9c2.6,0.3,5.2,0.8,7.9,0.8c6,0.1,12.4,1.9,17.1-3.7c4.3-1.7,8.7-3.3,13-5
			c0.7,0,1.3,0,2,0c2.3-0.3,4.6-0.3,6.8-0.8c8.1-1.8,16-2,23.2,2.8c-2.1,3-4.3,6-6.4,9c-11.4-6.9-22.9-7.5-34.6-0.9
			c-0.4,0.2-0.7,0.5-1.1,0.7c-0.3,0.1-0.6,0.3-0.8,0.5c-0.3,0.2-0.7,0.5-1,0.7c-1.7,2-3.5,3.9-5.2,5.9l0.1,0c-0.7,0.1-1.3,0.1-2,0.2
			c-6.3,4.4-8.6,11.3-10.5,18c-1.6,5.5-2.8,11.4,0.2,17c0.1,0.6,0.2,1.3,0.3,1.9c0.1,0.4,0.2,0.8,0.4,1.1
			c4.3,19.5,24.9,30.3,44.4,20.6c6.1-3,10.5-7.9,14.9-12.9c2.7,0.3,2.3,2.4,2.3,4.1c0,6,1.1,12.3-0.3,18c-1.5,6.4,2.1,13.1-1.6,19.2
			c-0.3,0.5-0.2,1.4,0,1.9c1.8,4.2,2.8,9,7.3,11.5c2.4,1.3,2.7,3.1,2.5,5.4C342,357.6,340,358.7,338.1,359.7z"/>
		<path style="fill:#E3BDC7;" d="M271,384.6c0.3-4.3,0.6-8.6,1-12.8c0.3-3.3,3.5-5.7,8-6.1c6.9-0.7,13.8-1.4,20.7-1.9
			c1-0.1,2.2,1.2,3.3,1.9c-7.7,0.7-15.4,1.1-23.1,2.3c-5.8,0.9-7.6,4.1-7,8.4c0.2,1.8-0.1,3.6,0.1,5.5
			C274.2,384,273.1,384.8,271,384.6z"/>
		<path style="fill:#E1E0E0;" d="M234,369.6c0.3,0.7,0.7,1.3,1,2c-6.9,0-13.9-0.1-20.8,0c-4.1,0.1-8.2,0.6-12.3,0.9c1-1,2-2,3.1-3
			C214.7,369.6,224.4,369.6,234,369.6z"/>
		<path style="fill:#D4A6B1;" d="M205,369.5c-1,1-2,2-3.1,3c-0.3,2.4-0.7,4.8-0.9,7.2c-0.2,2.7-0.6,5-4.1,5l0-0.1
			c0.3-3.1,0.8-6.2,1-9.3c0.3-5.2,1.6-6.9,7-8.7C205,367.6,205,368.6,205,369.5z"/>
		<path style="fill:#C38F9B;" d="M107.1,349.6c-1-0.3-2-0.7-3-1c-2.4-1.7-4.9-3.2-7-5.2c-1.3-1.3-2.7-3.2-2.8-4.9
			c-0.2-3.3,0.6-6.7,0.7-10.1c0.1-3.8,0.1-7.5-0.2-11.3c-0.4-5.2-1.5-10.3-1.6-15.4c-0.2-12.2-0.1-24.4,0-36.6c0-0.5,0.7-1.1,1-1.6
			c0.6,0.3,1.3,0.6,1.9,0.9c1.4-1.9,3.4-3.6,4.2-5.7c1.1-2.5,1.1-5.4,1.8-8.1c0.9-3.7,1.9-7.4,2.9-11.2c1-0.4,2-0.8,3.9-1.5
			c0.7,4.9,1.3,9.6,2.1,14.2c0.9,4.8,2,9.6,3,14.4c0,0.6,0.1,1.3,0.1,1.9c0.3,0.3,0.6,0.7,0.9,1l0,0c-1.6,0.6-3.2,1.2-5.3,2
			c0.4,3.9,1.1,7.8,1.1,11.7c-0.1,8.2-0.7,16.4-0.7,24.5c0,6.9,0.7,13.8,0.9,20.8c0.2,6.6,0.7,13.3-3.8,19
			C106.9,348.1,107.1,349,107.1,349.6z"/>
		<path style="fill:#97A9A2;" d="M85.1,230.6c-2.7-0.4-3.9,1.2-4.7,3.4c-0.4,1.2-0.8,2.4-1.3,3.6c-1.3-5.9-0.8-11.7,2.5-16.8
			c2.1-3.3,3.6-6.3,2.6-10.5c-1.2-4.9,1.3-8.6,5.7-11.5c5.7,4.2,12.4,6,19.6,5.8c1.1,0,2.7,0,3.3-0.6c3.1-3.7,6.8-2.3,10.5-1.8
			c3.3,0.5,6.5,0.9,9.8,1.4c0.2,0.2,0.2,0.4,0.3,0.6c-1.1,1.1-2.2,2.2-3.5,3.6c2,0.6,4.1,1.2,6.2,1.7c-0.3,0.4-0.7,0.7-1,1.1
			c-3.4-0.5-6.8-0.9-10.2-1.7c-6.4-1.5-12.7-3.4-19.4-1.5c-2.6,0.7-4.1,1.8-4.5,4.4c-0.5,3.7-1,7.5-1.7,11.2
			c-2.5,13.1-6.8,25.9-5.3,39.5c-1-3.2-2.2-6.4-2.9-9.7c-1.3-6.3-2.2-12.6-3.5-18.9C87.4,232.8,85.9,231.7,85.1,230.6z"/>
		<path style="fill:#BDBDBD;" d="M94,262.6c-1.5-13.6,2.8-26.4,5.3-39.5c0.7-3.7,1.2-7.4,1.7-11.2c0.4-2.7,1.9-3.7,4.5-4.4
			c6.8-1.9,13,0,19.4,1.5c3.3,0.8,6.8,1.1,10.2,1.7c-0.9,0.7-1.8,1.8-2.8,1.9c-4.6,0.6-8.8-0.7-12.9-2.7c-5.4-2.7-11.6-1.3-13,2.8
			c-0.7,2-0.9,4.2-1.2,6.3c-1.1,6.1,3,10.5,5.9,14.9c6.9,10.6,5.1,21.7,3.1,32.9c-1-4.8-2.1-9.5-3-14.4c-0.8-4.6-1.4-9.3-2.1-14.2
			c-1.9,0.7-2.9,1.1-3.9,1.5c-0.6-1.3-1.2-2.6-1.8-3.9c-1,0.9-2.1,1.7-3,2.7c-0.5,0.6-0.8,1.5-1,2.2c-1.6,7.9-3.9,15.7-3.1,23.9
			c-0.6-0.3-1.3-0.6-1.9-0.9C94.1,263.3,94,262.9,94,262.6z"/>
		<path style="fill:#CFCECE;" d="M87.2,351.6c-1,1.1-2,2.2-3.3,3.6c-0.6-0.2-1.7-0.4-2.8-0.7c-3-3.5-4.4-12.4-2-15.7
			c1-1.3,3.2-1.7,4.9-2.5c2.3,1.5,3.3,3.5,3.2,6.3C87,345.6,87.2,348.6,87.2,351.6z"/>
		<path style="fill:#97A9A2;" d="M367,202.5c-8.1,0.7-16.3,1.3-24.4,2.1c-1.5,0.1-3.1,0.7-4.6,1c-1,0-2,0-3,0c-2.7,0.3-5.4,0.6-8,1
			c-1,0-2,0-3,0c-0.7,0-1.4-0.1-2.1-0.1c0.2-1.1,0.5-2.2,0.8-3.6c-2.5-0.5-4.9-0.9-7.2-1.5c-2.2-0.5-3.5-2.3-1.8-3.8
			c3.2-2.6,1.3-5.3,1.2-8c2.4,0.2,5,0.1,7.3,0.7c4.1,1,4.3,2,2.7,5.9c-0.6,1.5-0.6,3.2-1,5.3c3.5,0,6.2,0,8.9,0c2.4,0,4.7,0,7.1,0
			c2.5,0,4.9,0.1,7.4,0.1c0.6,0,1.2,0,1.8,0c2.3-0.4,4.6-0.8,6.9-1.2c1,0.1,2,0.2,3,0.2c3.3-0.6,6.7-1.3,10-1.9
			C368.4,200,367.7,201.3,367,202.5z"/>
		<path style="fill:#7A6632;" d="M369.1,198.7c-3.3,0.6-6.7,1.3-10,1.9c-1.1-7.7-2-15.3-3.3-23c-0.2-1.4-1.9-2.5-3-4
			c-0.6,1-0.9,1.5-1.2,2.1c-0.2-0.2-0.5-0.3-0.6-0.5c-1.5-2.3-1.5-5.8-5.3-6.4c-0.5-0.1-1.2-3.4-0.5-4.6c1.5-2.6,3.7-4.8,6.1-7.7
			c1.8,2.1,3.5,3.9,5.1,5.7c-3.3,0.5-6.6-0.5-7.9,3.1c-0.3,0.8,0.3,2.3,1,2.8c1,0.7,2.6,1.3,3.8,1.2c4.2-0.6,5.8,1.9,6.9,5.2l0,0
			c0.6,5.1,1.4,10.1,3.7,15.2c1.1-1.4,1.8-2.2,2.4-2.9c0.1,3.9-3.1,8.7,3.9,9.7C369.7,197.3,369.4,198,369.1,198.7z"/>
		<path style="fill:#7A6632;" d="M356.1,200.4c-2.3,0.4-4.6,0.8-6.9,1.2c0.1-5.8-0.9-11.1-6.7-15.7c-0.7,6.8,2.3,11.2,4.9,15.7
			c-2.5,0-4.9-0.1-7.4-0.1c-1-2.3-2-4.6-3-6.9c-0.4-1.6-0.7-3.3-1.1-4.9c0.1-0.7,0.2-1.4,0.2-2.1c5.5-1.9,6.4-3.8,4.2-8.9
			c-0.1-0.2,0.4-0.7,0.6-1.1c0.7,0.6,1.4,1.2,2.1,1.8c0.6,0.7,1.2,1.5,1.9,2.1c1.3,0.9,2.7,1.6,4.2,2.5c0-1.5,0-3.4,0-5.3
			c0.2-0.1,0.3-0.1,0.5-0.2c1.5,3.4,3,6.9,4.5,10.3c0.2,0.5,0.6,1.2,0.5,1.4C351.6,194.1,355.3,197,356.1,200.4z"/>
		<path style="fill:#4D8378;" d="M336.2,187.6c-0.1,0.7-0.2,1.4-0.2,2.1c-2.5-0.1-5-0.3-8.4-0.5c5.4-6.4,3.9-11.7-0.5-16.7
			c-1.7-3-3.4-6-5.2-9c-1.6-3.5-3.1-7-4.8-10.7c1.8-1,3.3-1.9,4.9-2.7c0,0.2,0.1,0.5,0.2,0.7c0,1.8-0.5,4,0.2,5.5
			c3.7,7.3,7.8,14.5,11.6,21.8c0.7,1.2,0.7,2.8,1.1,4.2C335.4,184.1,335.8,185.8,336.2,187.6z"/>
		<path style="fill:#7A6632;" d="M364.1,173.5c0.9,1.7,1.8,3.4,2.6,5.1c0.1,0.7,0.2,1.3,0.2,2c-0.7,1.2-1.3,2.4-1.7,3.2
			c-1.8-3.1-3.5-6.2-5.2-9.2l0,0c0-1.7,0-3.5,0-5.9C361.7,170.7,362.9,172.1,364.1,173.5z"/>
		<path style="fill:#2A2828;" d="M338.5,158c-5.2-2.2-2.9-5.9-2.7-8.9C338.8,151,339.5,153.7,338.5,158z"/>
		<path style="fill:#7A6632;" d="M336.1,163.6c0.4,1.2,0.9,2.4,1.4,3.8c-0.7,0.7-1.5,1.4-2.1,2c-0.2,2.1,3.3,4.2-0.8,6.1
			C333.8,171.1,333.5,167.2,336.1,163.6L336.1,163.6z"/>
		<path style="fill:#7A6632;" d="M340.7,175.7c-0.4-0.2-0.8-0.4-1.7-0.8c1.7-1.2,3.1-2.2,4.4-3.2c0.8,1.2,1.7,2.5,2.8,4
			c-0.4,0.2-1,0.6-1.7,1C343.2,176.4,342,176.1,340.7,175.7z"/>
		<path style="fill:#C38F9B;" d="M340.7,175.7c1.3,0.4,2.5,0.7,3.8,1.1c0.1,1.1,1.2,2.8-1.4,2.6c-0.7-0.6-1.4-1.2-2.1-1.8
			C340.9,176.9,340.8,176.3,340.7,175.7z"/>
		<path style="fill:#7A6632;" d="M336,163.6c0-1,0.1-1.9,0.2-3.4c1.1,0.5,1.8,0.9,2.6,1.3C337.8,162.1,337,162.9,336,163.6
			L336,163.6z"/>
		<path style="fill:#4D8378;" d="M116.9,161.8c-2.3,5.4-1.1,15.6,2.2,18.8c2.1,2.2,4.2,4.4,6.3,6.7c-0.2,0.5-0.4,1-0.7,1.6
			c-2,0.2-4,0.3-5.9,0.8c-1.3,0.3-2.6,1.2-3.8,1.9c-0.4-0.5-0.9-0.8-1.2-1.4c-0.6-1.2-1-2.4-1.5-3.6c-1.5-3.6-3-7.1-4.5-10.7
			c4-2.9,2.1-6.7,1.4-10.3c0-4.2,0-8.4,0-13.3c5.7,0,10.7,0,15.6,0c0.4,0.4,0.9,0.7,1.3,1.1c-2.1,0.1-4.2,0.3-6.4,0.3
			c-4.2,0.2-4.7,0.8-3.9,4.9C116.1,159.7,116.6,160.8,116.9,161.8z"/>
		<path style="fill:#7A6632;" d="M112.4,186.6c0.5,1.2,0.9,2.4,1.5,3.6c0.3,0.5,0.8,0.9,1.2,1.4c0.3,1.4,0.6,2.8,0.9,4.3
			c-4.2,1.6-8.1,2.5-12,0c1.6-1.1,2.9-2.5,1.3-4.4c-2.1-2.4-0.7-3.7,1.2-5.1C108.4,190.4,110.4,188.1,112.4,186.6z"/>
		<path style="fill:#7A6632;" d="M93,192.7c-0.3-1.4-0.6-2.7-0.9-4.1c-0.2-0.9-0.3-1.8-0.5-2.7c1.9-0.2,5-1,5.3-0.4
			c1.9,3.4,7.5,4.8,6,10.2C99.6,194.7,96.3,193.7,93,192.7z"/>
		<path style="fill:#97A9A2;" d="M109.2,202.1c0.3-1,0.5-2,0.8-3c0.3,0.1,0.6,0.1,0.9,0.2c-0.1,1-0.2,2-0.3,2.9
			C110.1,202.2,109.7,202.1,109.2,202.1z"/>
		<path style="fill:#B0E7DF;" d="M368,178.6c0-18.8,0-37.5,0-56.8c-8.3,0-17.3,0-27.2,0c0.5-7.3,0.9-13.9,1.4-20.7
			c26.4-2.3,52.4-1.2,78.3-1.4c0,7.5,0,14.4,0,21.8c-9.6,0-18.5,0-27.6,0c-0.3,1.3-0.6,2-0.7,2.8c-0.4,13-0.7,25.9-1.2,38.9
			c-0.3,7.8-0.7,15.6-1.1,23.4c-1-0.1-2-0.1-2.9-0.5C380.7,183.6,374.3,181.1,368,178.6z"/>
		<path style="fill:#95D9CD;" d="M369.1,198.7c0.3-0.7,0.6-1.4,0.9-2.1c-0.1-2-0.2-4-0.3-6c6.8,0,13.6,0,20.4,0
			c-1.7,2.3-3.3,4.6-5,7c-4.6,1.7-9.6,2.2-13.6,5.5c-0.8,0.7-2.9-0.3-4.4-0.6C367.7,201.3,368.4,200,369.1,198.7z"/>
		<path style="fill:#95D9CD;" d="M368,178.6c6.4,2.5,12.7,5,19.1,7.5c0.9,0.3,1.9,0.3,2.9,0.5c-0.1,2.6-2,2.1-3.6,2.1
			c-5.8,0-11.5,0-17.3-0.1c-0.7-2.7-1.4-5.3-2.2-8c-0.1-0.7-0.2-1.3-0.2-2C367.2,178.6,367.6,178.6,368,178.6z"/>
		<path style="fill:#57461E;" d="M367,180.6c0.7,2.7,1.4,5.3,2.2,8c0.2,0.7,0.3,1.3,0.5,2c0.1,2,0.2,4,0.3,6c-7-1-3.8-5.8-3.9-9.7
			c-0.6,0.8-1.3,1.5-2.4,2.9c-2.2-5.1-3.1-10.1-3.7-15.2c1.7,3,3.5,6.1,5.2,9.2C365.7,183.1,366.3,181.8,367,180.6z"/>
		<path style="fill:#8BD3C7;" d="M124.9,152.3c-4.9,0-9.9,0-15.6,0c0,4.8,0,9,0,13.3c-1.7-1.2-3.6-2.2-5.2-3.5
			c-5.6-4.5-11.2-9.2-18.4-15c-0.6-14.1-1.2-30.3-1.9-47.3c6.4,0,12.3,0,18.2,0c-0.1,2.2,0.3,4.5-0.5,6.4
			c-2.7,6.4-1.6,13.3-2.5,19.9c-0.4,2.7-0.6,5.4-0.9,8.6c2.7,0,5.1,0.6,7-0.1c3-1.2,7.4,0.6,8.9-3.8c6.9,0,13.9,0.1,20.8-0.1
			c3.3-0.1,4.9,0.9,4.9,4.4c0,2.3,0.3,4.6,0.5,6.9c0,0.3-0.1,0.6-0.1,1C132.9,142.5,126.8,146.3,124.9,152.3z"/>
		<path style="fill:#95D9CD;" d="M114,130.6c-1.5,4.5-5.9,2.7-8.9,3.8c-1.8,0.7-4.2,0.1-7,0.1c0.3-3.2,0.5-5.9,0.9-8.6
			c0.9-6.6-0.2-13.4,2.5-19.9c0.8-1.9,0.3-4.3,0.5-6.4c10.5-0.1,21,0,31.5-0.2c3.6-0.1,7.3-0.6,10.9-0.8c2.8-0.1,4.7,0.8,4.7,4.3
			c0,4,0.8,7.9,0.8,11.9c-0.1,5.4-1.6,6.7-7,6.7c-11.3,0-22.6,0-34.4,0c0,2.9,0,5.4,0,8.7C110.2,130.4,112.1,130.5,114,130.6z"/>
		<path style="fill:#DDB4BE;" d="M338.1,359.7c2-1,4-2.1,6-3.1c3.8-1.1,7.7-2,11.4-3.3c2.8-0.9,5-2.6,4.5-6.2
			c-1.5-11.5-2-23.1-0.1-34.6c0.1-0.5-0.1-1-0.1-1.5c-0.2-7.5-1.3-15.2-0.2-22.6c0.9-6.4-0.1-13.6,4.5-19.2c0.1-0.1,0-0.3,0.1-0.5
			c1,0,2,0,3-0.1c1.4-1.4,3.4-2.6,4.1-4.3c3.8-10.2,7.3-20.5,10.9-30.7c1.1-0.7,2.1-1.3,3.8-2.4c2.2,4.7,4.1,9,6.1,13.4
			c-3.3-0.2-3.8,2-4,4.5c-0.4,8.1-0.7,16.2-1,24.3c-0.4,11.8-0.5,23.5-1.1,35.3c-0.4,8.5-1,17,1.4,25.3c0.7,2.4-0.5,3.5-1.9,5
			c-1.9,2.1-5.6,2.8-5.4,6.5c-1,1-2,2-3,3c-3.6,2.1-4,6.1-4.8,9.5c-1.3,5.1-1.5,5.6-7.2,6.5c0-1.3,0-2.6,0-4
			c-0.2-4.2-3.1-6.3-7.3-5.4C351.2,356.7,344.6,358.2,338.1,359.7z"/>
		<path style="fill:#CFCECE;" d="M392,244.6c-2-4.3-4-8.7-6.1-13.4c-1.7,1-2.8,1.7-3.8,2.4c1.8-6.1,3.7-12.2,5.6-18.3
			c0.6-2.1,1.8-4,2-6.1c0.1-1.6-0.6-3.6-1.7-4.8c-0.5-0.6-2.7-0.2-4,0.3c-2.9,1.1-5.6,3.5-8.5,3.6c-7.6,0.3-15.2-0.4-22.8-0.8
			c-1.6-0.1-3.1-0.6-4.7-0.9c1.5-0.3,3.1-0.9,4.6-1c4.8-0.1,9.6-0.2,14.5,0c4.7,0.1,9-0.1,13.1-3.3c1.8-1.5,5-1.6,7.6-1.7
			c4-0.1,6.8,3,5.7,6.7c-3.2,10.6-0.8,21,0.7,31.4c0.8,5.2,1.2,10.5,1.8,15.7c-0.9-0.9-2.4-1.7-2.7-2.8
			C392.6,249.4,392.4,247,392,244.6z"/>
		<path style="fill:#E4E4E4;" d="M377,348.6c1-1,2-2,3-3c1,0,1.9,0,2.9-0.1c5,2.8,2.7,7.4,2.8,11.3c0,1.2-0.5,2.5-0.7,3.8
			c-2.7-0.3-5.3-0.7-8-1C377,355.9,377,352.3,377,348.6z"/>
		<path style="fill:#D4A6B1;" d="M107.1,349.6c0-0.7-0.2-1.5,0.1-1.9c4.5-5.7,4-12.4,3.8-19c-0.2-6.9-0.9-13.8-0.9-20.8
			c0-8.2,0.7-16.4,0.7-24.5c0-3.9-0.7-7.8-1.1-11.7c2.1-0.8,3.7-1.4,5.3-2c0.7,0.3,1.3,0.7,2,1c6.5-0.1,6.7-0.1,8.7-5.5
			c1.5-3.9,2.5-7.9,4-11.8c1.6-4.3,3.5-8.5,5.3-12.7c2.1-1.3,4.3-2.6,7.1-4.2c0.4,2,1,3.5,0.8,5c-0.4,3.9,1.2,6.1,4.9,6.9
			c-1.1,1.1-2.1,2.2-3.2,3.3c-0.2,0.2-0.4,0.5-0.7,0.8c-2.9,5.8-5.6,11.6-6,18.3c-0.7,13.3,4.3,24.3,12.9,34c-4.1,2.3-4.7,4-3.8,9.3
			c0.5,2.7,0.4,5.5,0.5,8.3c0.1,3.7-0.2,7.5,0.3,11.2c0.4,3.1,0.6,5.9-0.2,9.1c-1.3,5.3-1.8,10.9-2.6,16.3c2.5,1.1,4.7,2,6.9,3
			c-3.6-0.4-7.3-0.8-10.9-1.1c-6.1-2.6-9-0.8-9.2,5.4c-0.1,1.8-0.7,3.7-1,5.5c-3.3-1-6.6-2-9.9-3c0.1-5.6-0.9-10.7-6.1-14
			c-1.3-0.7-2.6-1.3-3.9-2C109.7,351.7,108.4,350.7,107.1,349.6z"/>
		<path style="fill:#DDB4BE;" d="M152.1,361.8c-2.2-1-4.4-1.9-6.9-3c0.8-5.4,1.2-11,2.6-16.3c0.8-3.2,0.6-6,0.2-9.1
			c-0.5-3.7-0.1-7.5-0.3-11.2c-0.1-2.8,0-5.6-0.5-8.3c-0.9-5.2-0.3-7,3.8-9.3c6.3,5.7,13.6,9.3,22,10.7c-2.7,6.8-1.3,13.9-0.8,20.8
			c0.7,9.4,0.9,18.4-8.1,24.4c0.4,1.5,0.7,2.8,1,4.1c-0.7,0-1.3,0-2,0.1l0-0.1c-0.5-2.2-1.5-2.6-3.1-0.9c-0.6,0-1.3,0-1.9,0
			c-0.7-3-2.3-2.4-4.1-1C153.3,362.4,152.7,362.1,152.1,361.8z"/>
		<path style="fill:#C38F9B;" d="M131,371.6c0.4-1.8,1-3.7,1-5.5c0.2-6.3,3.1-8.1,9.2-5.4c-4.3,1.1-6.2,3.8-6.1,8.4
			c0.1,2,1.3,4.9-2,5.9C132.4,373.8,131.7,372.7,131,371.6z"/>
		<path style="fill:#BDBDBD;" d="M131,371.6c0.7,1.1,1.4,2.2,2.1,3.3c-0.7,0.2-1.3,0.5-2,0.7c-3.9-1.1-7.8-2-11.6-3.5
			c-1.4-0.5-2.3-2.4-3.4-3.6c0,0,0,0,0,0c1.7,0,3.3,0,5,0C124.3,369.6,127.7,370.6,131,371.6z"/>
		<path style="fill:#D4A6B1;" d="M160,363.7c1.6-1.7,2.6-1.3,3.1,0.9C162,364.3,161,364,160,363.7z"/>
		<path style="fill:#D4A6B1;" d="M154,362.6c1.8-1.4,3.4-2,4.1,1C156.7,363.3,155.3,363,154,362.6z"/>
		<path style="fill:#DEC3C9;" d="M377,348.6c0,3.7,0,7.3,0,11c-1.1,5.5-5.2,7.7-10,9c-2.7-0.3-1.8-2.5-2-4c5.7-0.9,5.9-1.4,7.2-6.5
			C373.1,354.7,373.5,350.7,377,348.6z"/>
		<path style="fill:#67B7A8;" d="M91.6,185.9c0.2,0.9,0.3,1.8,0.5,2.7c-4.9,1-5,0.9-5-4c0-2,0.6-4,0.9-6
			C89.2,181.1,90.4,183.5,91.6,185.9z"/>
		<path style="fill:#E3BDC7;" d="M165.1,364.6c-0.3-1.3-0.6-2.5-1-4.1c9-5.9,8.8-15,8.1-24.4c-0.5-6.9-1.9-14,0.8-20.8
			c1.3-0.1,2.6-0.2,4-0.2c12.9-0.5,23.8-9.9,26.9-22.6c0.3-4,1-8,0.8-12c-0.2-4.1-1.4-8.1-2.1-12.2c-1.1-6.8-4.3-12.3-9.5-16.7
			c-1.4-1.4-2.7-2.7-4.1-4.1c-0.3-0.3-0.6-0.6-0.9-0.9l-0.1-0.1c-0.6-0.3-1.3-0.6-1.9-0.9l-0.1-0.1c-0.3-0.2-0.6-0.5-0.9-0.7
			c-2.7-1.3-5.3-2.5-8-3.8c-0.7-1.2-1.3-2.3-2-3.5c1.3,0,2.7,0,4,0c10,1.7,20,3.3,30,5c1.1,1.1,2.1,2.4,3.4,3.1
			c4.2,2.4,4.3,2.7,2.3,7.2c-0.3,0.7-0.8,1.8-0.5,2.3c3.5,6.1,0.8,12.9,2.4,19.3c1,4.2-0.5,9-0.8,13.5c-0.1,1.9-0.1,3.8,0.1,5.7
			c0.3,2.7,1.6,5.3-0.3,8.1c-0.6,0.8-0.3,2.5,0,3.7c1,4.1,2.3,8.1,3.4,12.1c-4.2,0-8.3,0-12.5,0c-5.2,0-5.4,0.3-5.5,5.3
			c0,2.5,0,5,0,7.5c0,11.1,4.5,20.1,13,27.2c-1.4,3-2.7,6-4.1,9c-1.7,0-3.4,0-5,0c-5.4,1.8-6.7,3.5-7,8.7c-0.2,3.1-0.6,6.2-1,9.3
			c-8.4-0.7-16.8-1.3-25.1-2.1c-1-0.1-2.5-1.7-2.7-2.8c-0.7-3.2-0.5-6.6-1.2-9.8C167.5,368,166.1,366.4,165.1,364.6z"/>
		<path style="fill:#E1E0E0;" d="M111,352.7c1.3,0.7,2.6,1.3,3.9,2c0.4,4.7,0.7,9.3,1.1,14l0,0c-2.3,0-4.7,0-7,0
			c-0.6-3.5-1.6-7-1.5-10.4C107.6,356.3,109.8,354.5,111,352.7z"/>
		<path style="fill:#D8D8D8;" d="M348.1,206.6c1.6,0.3,3.1,0.9,4.7,0.9c7.6,0.4,15.2,1,22.8,0.8c2.9-0.1,5.6-2.5,8.5-3.6
			c1.2-0.5,3.4-0.9,4-0.3c1.1,1.2,1.8,3.2,1.7,4.8c-0.2,2.1-1.3,4.1-2,6.1c-1.9,6.1-3.7,12.2-5.6,18.3c-3.6,10.3-7.1,20.6-10.9,30.7
			c-0.6,1.7-2.7,2.9-4.1,4.3c-0.3-4.1-0.5-8.2-1-12.3c-1.1-8.3-2.4-16.6-3.5-24.9c-0.5-4.2-1.4-8.5-0.8-12.6
			c0.5-3.7-0.6-5.6-3.6-6.5c-5.7-1.9-11.5-2.4-17.1,0.8c-9.7,5.6-19.7,5.7-30,1.6c0.8-0.7,1.7-2,2.3-1.9c4.5,1.2,8.2-1.3,12.2-2.3
			c1.2-0.3,2.6,0.2,3.7-0.3c1.1-0.5,1.9-1.6,2.8-2.5c0.7,0,1.3,0,2,0c2,2,6.8,1.5,9-1C344.7,206.6,346.4,206.6,348.1,206.6z"/>
		<path style="fill:#CFCECE;" d="M343.1,206.6c-2.2,2.4-7,3-9,1c0.3-0.6,0.7-1.3,1-1.9c1,0,2,0,3,0
			C339.7,206,341.4,206.3,343.1,206.6z"/>
		<path style="fill:#57461E;" d="M137.9,179.3c0.4-4.5,2.4-8.1,6.1-10.7c0.3,0.4,0.5,0.7,0.8,1.1c-0.3-0.4-0.5-0.7-0.8-1.1
			c0.2-0.8,0.4-1.5,0.9-3.2c0.9,1.5,1.4,2.4,2,3.5c2.3-0.6,4.8-1.3,7.7-2.1c-0.4,1.5-0.8,2.9-1.2,4.2c0.2,0.2,0.5,0.4,0.7,0.6
			c1.1-1,2.3-2,3.8-3.3c1.3,1.4,3.4,2.6,3.8,4.2c0.9,3.2,2.9,3.2,5.3,3.1c0.6,0.4,1.4,0.7,1.6,1.3c0.6,1.3,1,2.6,1.5,4
			c0,0.3-0.1,0.5-0.3,0.7c0.1,0.7,0.1,1.4,0.2,2c0.2,0.6,0.5,1.2,0.8,1.8c-0.3,0-0.6,0.1-0.9,0.2l0,0.1c-0.1-0.2-0.2-0.3-0.4-0.4
			c-0.9,1.5-1.7,2.9-2.6,4.4c-0.7,2.7-1.4,5.3-2,8c-0.6,0.2-1.5,0.1-1.8,0.5c-3.2,4.4-7.1,4.6-12,2.8c-1.7-0.6-4,0.5-6.6,0.9
			c1.3,2,1.9,2.9,2.5,3.9c-3.1-0.4-6.2-0.7-9.2-1.1c-0.6-4.4-1.2-8.9-1.8-13.3c5.7-0.1,5.7-0.1,6-6.7c2.3-3.9-1.3-3.9-3.2-5
			C138.6,179.5,138.3,179.4,137.9,179.3z"/>
		<path style="fill:#8BD3C7;" d="M158.3,153.2c-1.9-8.6-2.5-17.2,0.7-25.6c0.3,0,0.7,0,1,0c-0.3,1.7-0.6,3.5-0.7,4.5
			c2.9,3.3,5.4,6.2,7.8,9c2.4,2.9,4.5,6.2,7.2,8.7c2.9,2.7,3.6,7.9,8.8,7.7c4.8,7,11.2,11.1,20,10.9c-0.4,1.2-0.4,2.9-1.2,3.6
			c-5.4,4.6-10.7,9.8-18.9,6.5c-1.6-4.9-2.8-9.9-5-14.5c-1.5-3.1-3.4-6.7-8-6.4C166.6,154.8,162.7,153.3,158.3,153.2z"/>
		<path style="fill:#57461E;" d="M166.1,172.5c-1.6-2.3-3.1-4.6-4.7-7c-1.7-2.5-3.9-3.6-7-2.6c-0.2,0.1-0.7-0.5-1.8-1.4
			c1.6-0.8,2.9-1.9,4-1.8c4.3,0.3,8.6,1,12.9,1.5c0.5,0.1,1-0.5,1.6-0.8c2.8,0.6,4.1,2.3,4.1,5.1c-0.2,1.2-0.4,2.5-0.4,2.7
			C171.4,169.9,168.8,171.2,166.1,172.5z"/>
		<path style="fill:#7A6632;" d="M166.1,172.5c2.6-1.3,5.2-2.6,8.6-4.3c0-0.2,0.2-1.4,0.4-2.7c3.6,4.1,4.2,9,4.5,14.1
			c-0.6,0.7-1.2,1.4-1.8,2.1c-0.7,0.4-1.3,0.8-2,1.2c-0.7-0.4-1.4-0.9-2.2-1.3l-0.3,0c-1.1-0.2-2.2-0.5-3.3-0.7
			c-0.5-1.3-0.8-2.7-1.5-4c-0.3-0.6-1.1-0.9-1.6-1.3c-0.1-0.3-0.2-0.6-0.2-1C168.7,173.1,167.6,172.8,166.1,172.5L166.1,172.5z"/>
		<path style="fill:#4D8378;" d="M179.7,179.6c-0.3-5.1-1-10.1-4.5-14.1c-0.1-2.7-1.4-4.5-4.1-5.1c-0.4-0.9-0.7-1.8-1.1-2.7
			c4.6-0.3,6.5,3.4,8,6.4c2.2,4.6,3.4,9.6,5,14.5c0,2.1,0.1,4.2,0,6.3c-0.1,2.3,1.3,2.7,3.1,2.7c-1.4,1.8-2.8,3.5-4,5.3
			c-0.8,1.2-1.2,2.6-1.8,3.9c-0.5-0.5-1-0.9-1.5-1.4C179.1,190.2,179.4,184.9,179.7,179.6z"/>
		<path style="fill:#7C8281;" d="M138,204.6c3.1,0.4,6.2,0.7,9.2,1.1l0.3,0.1c0,0,0.3,0,0.3,0c0.5,0.2,1,0.4,1.5,0.7
			c1.6,0.1,3.1,0.2,4.7,0.4c2.1,0.5,4.2,0.9,6.2,1.4c-1.3,0.8-2.7,1.6-4,2.4c-1.7,0.1-3.4,0.1-5,0.2c-1.2-0.3-2.4-0.9-3.6-1
			c-3.8-0.2-7.6-0.1-11.4-0.2c-2.1-0.6-4.2-1.2-6.2-1.7c1.3-1.3,2.4-2.5,3.5-3.6C134.9,204.4,136.4,204.5,138,204.6z"/>
		<path style="fill:#A16D78;" d="M142.2,184.6c-0.3,6.6-0.3,6.6-6,6.7c0.6-4,1.2-8,1.7-12c0.4,0.1,0.7,0.2,1.1,0.3
			C140.1,181.3,141.1,183,142.2,184.6z"/>
		<path style="fill:#57461E;" d="M166.1,172.5c1.4,0.2,2.6,0.6,0.8,2.1C166.6,173.9,166.4,173.2,166.1,172.5z"/>
		<path style="fill:#57461E;" d="M149.7,163.7c-0.2,0.2-0.4,0.4-0.6,0.5c-0.2-0.3-0.4-0.6-0.6-0.9c0.3-0.1,0.6-0.3,0.8-0.3
			C149.5,163,149.6,163.4,149.7,163.7z"/>
		<path style="fill:#95D9CD;" d="M183.2,157.6c-5.3,0.1-6-5.1-8.8-7.7c-2.7-2.5-4.8-5.8-7.2-8.7c-2.4-2.9-4.9-5.7-7.8-9
			c0.2-1,0.4-2.7,0.7-4.5c0.3-1.1,0.5-2.1,0.8-3.2c0.5-1.2,0.9-2.4,1.4-3.7c0.6-0.8,1.2-1.5,1.7-2.3c0.2-0.5,0.3-1.1,0.5-1.6
			c2.3-2.3,4.5-4.7,6.8-7c0.6-0.4,1.2-0.8,1.8-1.3c6.1-2.5,11.9-5.9,18.2-7.5c19.6-4.9,40.8,3.8,50.6,22.3c2.1,4,2.8,8.7,4.2,13.1
			c-1.1-0.1-2.5,0.2-3.4-0.3c-6.6-4-13.2-2.7-19.9-0.5c-1.5-2.1-3-4.2-4.6-6.2c-0.7-1.1-1.1-2.4-2.1-3.2c-7.1-6.3-18.9-5.9-23.9-3
			c-8.2,4.7-13.1,11.5-11.9,21.5c0,0.5,0,1,0,1.6c0.3,2.2-2,5,1.6,6.3C182.3,154.4,182.7,156,183.2,157.6z"/>
		<path style="fill:#8BD3C7;" d="M222.7,135.7c6.7-2.2,13.3-3.5,19.9,0.5c0.9,0.5,2.2,0.2,3.4,0.3c0.2,5,0.4,10,0.6,15.1l-0.1,0
			c-1.7-1-3.5-1.8-4.9-3.1c-3.1-2.6-6.3-3.7-10.4-2.2c-2.3,0.8-4.8,0.9-7.2,1.3C223.6,143.7,223.1,139.7,222.7,135.7z"/>
		<path style="fill:#DDB4BE;" d="M246.5,151.6C246.5,151.6,246.6,151.7,246.5,151.6c2.5,0,5-0.1,7.4-0.2c0.8,0,1.5,0.1,2.3,0.1
			c0.6,0,1.2,0,1.8,0.1c2.3,1.3,4.7,2.6,7,3.9c-2.6-0.4-5.2-0.6-7.7-1.2c-4.2-1-8.3-1-12,1.5c-1.8,1-3.6,2-5.5,2.9
			c-0.3-0.7-0.6-1.4-0.9-2l0.1-0.1c0.4-0.5,0.8-1,1.2-1.6C242.3,153.9,244.4,152.7,246.5,151.6z"/>
		<path style="fill:#B0E7DF;" d="M257.1,133.4c-0.2-3.1-0.6-6.3-0.6-9.4c0.1-6.8,0.4-13.6,0.6-20.4c0.5-1.2,1-2.4,1.7-4
			c12.3,0,24.7-0.1,37.1,0c5.1,0,10.3,0.3,15.3,0.9c11.5,1.3,21.9,13.8,20.8,25.9c-0.2,2.8-0.6,5.5-1,8.2
			c-8.7,0.7-13.9,6.4-17.7,13.3c-3.8,6.9-8.9,12.5-15.5,16.8c-1-1.6-1.8-3.4-3-4.9c-1.3-1.5-2.7-3.7-4.4-4
			c-9.4-1.7-10.5-0.7-10.6,8.8c0,0.3,0,0.7,0,1c-1.4,0.1-2.9,0.1-4.3,0.2c-0.3,0-0.5,0-0.7-0.2c-0.3-0.3-0.5-0.6-0.8-0.9
			c-0.7-1.4-1.4-2.7-2.2-4.1c-0.4-1.7-0.4-3.6-1.2-5.2c-2.5-5.4-5-10.8-8.1-15.9C261.4,137.2,261.1,133.5,257.1,133.4z M281.4,121.6
			c0,4.7,0,8.5,0,12.9c7.8,0,15.2,0.2,22.6-0.1c3.8-0.1,6.1-3.1,6-6.6c-0.1-3.3-2.4-6.1-5.9-6.2
			C296.7,121.5,289.2,121.6,281.4,121.6z"/>
		<path style="fill:#95D9CD;" d="M298,164.8c6.6-4.3,11.6-9.9,15.5-16.8c3.8-6.9,9-12.6,17.7-13.3c-1.8,3.6-3.6,7.3-5.6,10.9
			c-0.9,1.7-2.4,3.1-3.6,4.6c-1.5,0.9-3.1,1.7-4.9,2.7c1.7,3.7,3.2,7.2,4.8,10.7c-1.3,1.1-3.2,1.9-3.9,3.3
			c-2.6,5.6-6.4,10.1-11.1,14c-2.4-3.7-4.7-7.4-7.1-11.1C299.2,168.1,298.6,166.4,298,164.8z"/>
		<path style="fill:#95D9CD;" d="M257.1,133.4c4,0,4.3,3.8,5.7,6.1c3.1,5.1,5.6,10.5,8.1,15.9c0.7,1.6,0.8,3.5,1.2,5.2
			c-1.9-1.3-3.9-2.7-5.8-4c-0.4-0.4-0.8-0.7-1.1-1.1c-2.3-1.3-4.7-2.6-7-3.9c0-3.1,0.1-6.3-0.1-9.4c-0.1-1.3-1-2.5-1.5-3.8
			C256.7,136.7,256.9,135.1,257.1,133.4z"/>
		<path style="fill:#67B7A8;" d="M256.5,138.4c0.5,1.3,1.4,2.5,1.5,3.8c0.2,3.1,0.1,6.3,0.1,9.4c-0.6,0-1.2,0-1.8-0.1
			C256.3,147.1,256.4,142.8,256.5,138.4z"/>
		<path style="fill:#57461E;" d="M120.1,170.6c0.1-0.2,0.3-0.3,0.4-0.5c0,0.1,0,0.2-0.1,0.3C120.3,170.5,120.2,170.5,120.1,170.6
			L120.1,170.6z"/>
		<path style="fill:#57461E;" d="M120,170.6c-0.1,0.1-0.3,0.3-0.4,0.4c0-0.1,0-0.2,0.1-0.3C119.8,170.7,119.9,170.7,120,170.6
			L120,170.6z"/>
		<path style="fill:#67B7A8;" d="M160.9,124.4c-0.3,1.1-0.5,2.1-0.8,3.2c-0.3,0-0.7,0-1,0C159.6,126.5,160.2,125.5,160.9,124.4z"/>
		<path style="fill:#67B7A8;" d="M164,118.5c-0.6,0.8-1.2,1.5-1.7,2.3c-0.1-0.7-0.1-1.4-0.2-2.1C162.7,118.6,163.3,118.5,164,118.5z
			"/>
		<path style="fill:#333233;" d="M285.9,250.5c1.7-2,3.5-3.9,5.2-5.9c0.3-0.2,0.7-0.5,1-0.7c0.3-0.2,0.6-0.3,0.8-0.5
			c0.4-0.2,0.7-0.5,1.1-0.7c11.7-6.6,23.2-6,34.6,0.9c8.8,8.1,13.1,18,12.6,30c-0.3,8.4-3.4,15.8-7.5,22.9c-4.4,5-8.8,9.9-14.9,12.9
			c-19.5,9.7-40.1-1.2-44.4-20.6c0.2-0.4,0.4-0.8,0.6-1.2l-0.1,0.1c2.1,0.2,2.8-0.6,3.1-2.8c1.3-9.9,3.9-19.4,8.1-28.4
			c0.6-1.3,1.2-2.8,1.4-4.2C287.7,251.8,286.5,251.1,285.9,250.5z M320.1,277c0.1-13.7-10.8-21.1-21.4-15.7
			c-7,3.6-12.3,12.1-10.6,21c2,10.4,12.5,15.7,21.7,10.6C316.6,289.1,319.7,283.1,320.1,277z"/>
		<path style="fill:#E1E0E0;" d="M311,214.6c10.2,4.1,20.3,4,30-1.6c5.6-3.2,11.4-2.6,17.1-0.8c3,1,4.1,2.9,3.6,6.5
			c-0.6,4.1,0.3,8.4,0.8,12.6c1.1,8.3,2.4,16.6,3.5,24.9c0.5,4.1,0.7,8.2,1,12.3c-1,0-2,0-3,0.1c-4.3-4.5-5.4-10.5-7-16.2
			c-1.6-5.7-2.7-11.5-4.3-17.3c-0.8-2.9-2.8-5.1-5.8-3c-3.8,2.7-7.8,2.2-11.9,2.3c-7.3-4.8-15.1-4.7-23.2-2.8
			c-2.2,0.5-4.5,0.6-6.8,0.8c1.3-3.5,4.8-1.9,7.2-2.9c3.4-1.4,7.3-1.7,9.9-5.3c-0.9-0.7-1.4-1.4-2.1-1.6c-4.7-1.3-9.5-2.7-14.3-3.7
			c-3.7-0.8-7.5-1.2-11.3-1.3c-3.1-0.1-6.2,0.5-9.3,0.8c-9.3,1-18.7,2.1-28,3.1c-1.6,0.2-3.2,0.3-4.7,0.1
			c-8.9-0.9-17.6-0.3-25.3,4.9c-1.1,0.8-2.7,2.4-2.5,3.2c0.4,1.3,1.8,3,3.1,3.3c4.3,1.1,8.7,1.8,13.1,2.4c6.7,0.8,13.5,1.3,20.1,2.3
			c1.5,0.2,2.8,1.8,4.1,2.8c-8.4-0.3-16.8-1.1-25.2-0.9c-7.5,0.2-15,1.5-22.5,2.2c-2.8,0.3-5.6,0.4-8.3,0.6c-10-1.7-20-3.3-30-5
			c-0.5-3.7-2.8-0.3-4-1l0,0c0-1.5,0.1-3.1,0.1-4.6c0-1.9,0.5-4-0.2-5.5c-2.3-5-2.5-5.7,3-6.1c12.7-1,25.5-1.2,38.2-1.5
			c2.8-0.1,5.6,0.7,8.4,0.7c9.1,0,18.2,0.2,27.2-0.3c2.5-0.1,6.7,1.5,7.5-3.3c0.7-0.1,1.3-0.1,2-0.2c0.7,0.6,1.3,1.3,2,1.9
			c1.6,0,3.4,0.3,4.9-0.1c0.9-0.2,1.5-1.7,2.2-2.5c1-0.1,2-0.2,2.9-0.3c0.7,0.3,1.3,0.6,2,0.9c0.7-0.3,1.4-0.6,2-0.9
			c1.3,0,2.7,0,4-0.1c2.2,1,4.5,2.4,6-0.9c1.7,0,3.3-0.1,5-0.1c0.7,0,1.3,0,2,0c5,0.3,10,0.6,14.9,0.9
			C309.7,214.5,310.3,214.6,311,214.6z"/>
		<path style="fill:#E3BDC7;" d="M335,234.6c4.1-0.1,8.1,0.4,11.9-2.3c3-2.2,5.1,0.1,5.8,3c1.6,5.7,2.7,11.5,4.3,17.3
			c1.6,5.7,2.6,11.6,7,16.2c0,0.2,0,0.4-0.1,0.5c-4.6,5.7-3.5,12.8-4.5,19.2c-1.1,7.4,0,15,0.2,22.6c0,0.5,0.2,1,0.1,1.5
			c-1.9,11.6-1.4,23.1,0.1,34.6c0.5,3.6-1.7,5.2-4.5,6.2c-3.8,1.3-7.6,2.2-11.4,3.3c0.2-2.3-0.1-4.1-2.5-5.4
			c-4.5-2.4-5.4-7.3-7.3-11.5c-0.2-0.6-0.3-1.5,0-1.9c3.6-6.1,0.1-12.7,1.6-19.2c1.3-5.7,0.3-12,0.3-18c0-1.8,0.5-3.8-2.3-4.1
			c4.1-7.1,7.2-14.5,7.5-22.9c0.5-12.1-3.8-22-12.6-30C330.8,240.6,332.9,237.6,335,234.6z"/>
		<path style="fill:#BC4E70;" d="M220.9,360c-0.6-0.2-1.2-0.3-1.7-0.5c-3.1-9.1-6.3-18.2-9.4-27.4c-1.6-4.8,0.2-8.1,5.1-8.3
			c4.1-0.2,6.3-2.3,8.2-5.3c14.6-0.3,29.3-0.5,43.9-0.8c5.9-0.1,6.1,0.2,6.2,6.1c0.1,8.2,0.2,16.4-4.6,23.6
			c-1.5,2.3-3.6,4.2-5.5,6.3c-3.7,0-7.4,0-11-0.1c-0.7,0-1.3,0-2,0.1c-0.7,0.3-1.3,0.6-2,0.9c-2.3,0.3-4.7,0.7-7,1
			c-4.7-0.2-9.4-0.7-14-0.3c-1.5,0.1-2.7,2.8-4,4.3C222.3,359.7,221.6,359.8,220.9,360z"/>
		<path style="fill:#E4E4E4;" d="M265,240.6c-1.4-1-2.6-2.6-4.1-2.8c-6.7-1-13.4-1.4-20.1-2.3c-4.4-0.6-8.8-1.3-13.1-2.4
			c-1.3-0.3-2.8-2-3.1-3.3c-0.2-0.8,1.4-2.4,2.5-3.2c7.7-5.2,16.4-5.8,25.3-4.9c1.6,0.2,3.2,0.1,4.7-0.1c9.3-1,18.7-2.1,28-3.1
			c3.1-0.3,6.2-0.9,9.3-0.8c3.8,0.1,7.6,0.5,11.3,1.3c4.8,1,9.6,2.4,14.3,3.7c0.7,0.2,1.3,0.9,2.1,1.6c-2.6,3.6-6.5,3.9-9.9,5.3
			c-2.4,1-5.8-0.5-7.2,2.9c-0.7,0-1.3,0-2,0c-4.3-1.5-11.1,1.1-13,5c-4.7,5.7-11.2,3.8-17.1,3.7C270.3,241.3,267.7,240.9,265,240.6z
			"/>
		<path style="fill:#C38F9B;" d="M223,318.4c-1.9,3-4.1,5.1-8.2,5.3c-4.9,0.2-6.7,3.6-5.1,8.3c3.1,9.2,6.3,18.3,9.4,27.4
			c-1.7-0.6-3.4-1.3-5-1.9c-8.6-7-13-16-13-27.2c0-2.5,0-5,0-7.5c0.1-5,0.3-5.2,5.5-5.3c4.2,0,8.3,0,12.5,0
			C220.4,317.9,221.7,318.2,223,318.4z"/>
		<path style="fill:#EA93A5;" d="M241,355.6c2.3-0.3,4.7-0.7,7-1c1.5,1.7,1.8,0.4,2-0.9c0.7,0,1.3,0,2-0.1c3.7,0.7,7.3,1.3,11,2
			c0.4,3.2-1.8,4.9-4.2,6c-8.3,3.8-17,3.9-25.8,2c0.3-0.6,0.8-1.2,0.8-1.8c-0.1-4,2-5.4,5.7-5.4C240,356.5,240.5,355.9,241,355.6z"
			/>
		<path style="fill:#7C8281;" d="M285.9,250.5c0.6,0.6,1.7,1.2,1.7,1.7c-0.2,1.4-0.8,2.9-1.4,4.2c-4.2,9.1-6.8,18.6-8.1,28.4
			c-0.3,2.1-1,3-3.1,2.8c-0.4-0.6-0.8-1.3-1.3-1.9c-3-5.6-1.8-11.5-0.2-17c1.9-6.8,4.2-13.7,10.5-18c0.2,0.4,0.3,0.8,0.5,1.2
			c0.5-0.5,1-0.9,1.5-1.4L285.9,250.5z M284.1,254.6c-7.4,5.8-11.9,21.2-8,28.5c1.2-4.6,2.2-9.1,3.4-13.4
			C280.9,264.6,282.5,259.6,284.1,254.6c0.1-0.1,0.2-0.1,0.3-0.2c0.1,0,0.1-0.2,0.1-0.2C284.3,254.4,284.2,254.5,284.1,254.6z"/>
		<path style="fill:#E68498;" d="M241,355.6c-0.5,0.3-1,0.9-1.6,0.9c-3.7-0.1-5.8,1.4-5.7,5.4c0,0.6-0.5,1.2-0.8,1.8
			c-3.4-0.9-6.8-1.7-10.2-2.6c0.1-0.5,0.1-0.9,0.2-1.4c1.3-1.5,2.6-4.2,4-4.3C231.7,354.9,236.4,355.4,241,355.6z"/>
		<path style="fill:#DDB4BE;" d="M205,366.6c1.7,0,3.4,0,5,0c6.8,0.3,13.6,0.6,20.5,1.1c1.2,0.1,2.4,1.3,3.5,2
			c-9.7,0-19.3-0.1-29-0.1C205,368.6,205,367.6,205,366.6z"/>
		<path style="fill:#E1E0E0;" d="M290.1,237.6c1.9-3.9,8.7-6.5,13-5C298.7,234.3,294.4,236,290.1,237.6z"/>
		<path style="fill:#E68498;" d="M263,355.6c-3.7-0.7-7.3-1.3-11-2c3.7,0,7.4,0,11,0.1C263.1,354.3,263,355,263,355.6z"/>
		<path style="fill:#333233;" d="M273.8,285.7c0.4,0.6,0.8,1.3,1.3,1.9l0.1-0.1c-0.3,0-0.7,0-1,0.1C274,287,273.9,286.3,273.8,285.7
			z"/>
		<path style="fill:#333233;" d="M286,250.5c-0.5,0.5-1,0.9-1.5,1.4c-0.2-0.4-0.3-0.8-0.5-1.2C284.7,250.6,285.4,250.6,286,250.5z"
			/>
		<path style="fill:#C38F9B;" d="M223,359.6c-0.1,0.5-0.1,0.9-0.2,1.4c-0.7-0.3-1.3-0.7-2-1C221.6,359.8,222.3,359.7,223,359.6z"/>
		<path style="fill:#7C8281;" d="M274.1,287.6c0.3-0.1,0.6-0.1,1-0.1c-0.2,0.4-0.4,0.8-0.6,1.2C274.3,288.4,274.2,288,274.1,287.6z"
			/>
		<path style="fill:#7C8281;" d="M292.2,243.9c-0.3,0.2-0.7,0.5-1,0.7C291.5,244.4,291.8,244.2,292.2,243.9z"/>
		<path style="fill:#7C8281;" d="M294.1,242.7c-0.4,0.2-0.7,0.5-1.1,0.7C293.4,243.2,293.7,243,294.1,242.7z"/>
		<path style="fill:#CFCECE;" d="M136,209.5c3.8,0,7.6,0,11.4,0.2c1.2,0.1,2.4,0.6,3.6,1c-3,0.3-6.1,0.8-9.1,0.9
			c-4.9,0.3-10,4.7-10.9,9.1c-0.6,3-1.6,6-3,8.8c-6.6,12.9-11.3,26.3-11,41.1c-0.7-0.3-1.3-0.7-2-1l0,0c-0.3-0.3-0.6-0.7-0.9-1
			c0-0.6-0.1-1.3-0.1-1.9c1.9-11.2,3.8-22.3-3.1-32.9c-2.9-4.4-6.9-8.8-5.9-14.9c0.4-2.1,0.5-4.3,1.2-6.3c1.5-4.1,7.6-5.5,13-2.8
			c4.1,2.1,8.3,3.3,12.9,2.7c1-0.1,1.9-1.2,2.8-1.9C135.4,210.3,135.7,209.9,136,209.5z"/>
		<path style="fill:#CFCECE;" d="M96.1,264.5c-0.8-8.2,1.5-16,3.1-23.9c0.2-0.8,0.5-1.7,1-2.2c0.9-1,2-1.8,3-2.7
			c0.6,1.3,1.2,2.6,1.8,3.9c-1,3.7-2,7.4-2.9,11.2c-0.7,2.7-0.8,5.6-1.8,8.1C99.4,261,97.5,262.7,96.1,264.5z"/>
		<path style="fill:#BDBDBD;" d="M114.2,268.6c0.3,0.3,0.6,0.7,0.9,1C114.8,269.2,114.5,268.9,114.2,268.6z"/>
		<path style="fill:#BDBDBD;" d="M281.1,214.7c-1.3,0-2.7,0-4,0.1c-0.7,0.3-1.4,0.6-2,0.9c-0.7-0.3-1.3-0.6-2-0.9
			c-0.3-1.7-0.7-3.3-1-5c2.6-5,5.2-10.1,7.9-15.1c0,2.3,0,4.6,0.2,6.9c0.2,4.9,2.5,7.3,7.3,7.1c4.6-0.1,9.1-0.6,13.7-1
			c4.2,0,8.4,0,12.6-0.2c2.8-0.1,5.5-0.6,8.3-0.9c0.7,0,1.4,0.1,2.1,0.1c-0.6,0.6-1.1,1.6-1.9,1.8c-3.3,1-6.6,1.7-10,2.5
			c-1.8,0.5-3.6,0.9-3.3,3.4c-5-0.3-10-0.6-14.9-0.9c-0.4-0.5-0.8-1.1-1.2-1.6c-0.2,0.5-0.5,1.1-0.7,1.6c-1.7,0-3.3,0.1-5,0.1
			C285.1,214,283.1,214.4,281.1,214.7z"/>
		<path style="fill:#67B7A8;" d="M327.1,172.6c4.4,5,5.9,10.2,0.5,16.7c3.3,0.2,5.8,0.3,8.4,0.5c0.4,1.6,0.7,3.3,1.1,4.9
			c-5.4,1.7-5.4,1.7-4.1,6.9c-2.7,0-5.4,0-8.9,0c0.4-2.1,0.4-3.8,1-5.3c1.6-3.9,1.4-4.9-2.7-5.9c-2.3-0.6-4.9-0.5-7.3-0.7
			c-1.3,0-2.7-0.1-4-0.1c0-0.3-0.1-0.6-0.1-0.9c2.8,0.3,5-0.4,6.6-3c1.9-3.2,4-6.3,6.2-9.3C324.7,175,325.9,173.8,327.1,172.6z"/>
		<path style="fill:#8BD3C7;" d="M311,189.6c1.3,0,2.7,0.1,4,0.1c0.1,2.7,1.9,5.5-1.2,8c-1.8,1.5-0.4,3.3,1.8,3.8
			c2.3,0.5,4.7,1,7.2,1.5c-0.3,1.4-0.6,2.5-0.8,3.6c-2.8,0.3-5.5,0.8-8.3,0.9c-4.2,0.2-8.4,0.1-12.6,0.2c-0.6-1.5-1.2-2.9-1.4-3.5
			C303.7,199,307.4,194.3,311,189.6L311,189.6z"/>
		<path style="fill:#CFCECE;" d="M309,214.5c-0.3-2.5,1.5-3,3.3-3.4c3.3-0.9,6.7-1.6,10-2.5c0.7-0.2,1.3-1.2,1.9-1.8c1,0,2,0,3,0
			c1.7,0.3,3.3,0.7,5,1c-0.9,0.9-1.7,2-2.8,2.5c-1.1,0.5-2.6,0-3.7,0.3c-4,1.1-7.7,3.6-12.2,2.3c-0.6-0.2-1.5,1.2-2.3,1.9
			C310.3,214.6,309.7,214.5,309,214.5z"/>
		<path style="fill:#DEC3C9;" d="M347.4,201.6c-2.6-4.5-5.6-8.9-4.9-15.7c5.8,4.6,6.8,9.9,6.7,15.7
			C348.6,201.6,348,201.6,347.4,201.6z"/>
		<path style="fill:#4D8378;" d="M332.9,201.5c-1.2-5.3-1.2-5.3,4.1-6.9c1,2.3,2,4.6,3,6.9C337.6,201.5,335.3,201.5,332.9,201.5z"/>
		<path style="fill:#BDBDBD;" d="M332.1,207.6c-1.7-0.3-3.3-0.7-5-1c2.7-0.3,5.4-0.6,8-1c-0.3,0.6-0.7,1.3-1,1.9
			C333.4,207.6,332.7,207.6,332.1,207.6z"/>
		<path style="fill:#8BD3C7;" d="M327.1,172.6c-1.1,1.2-2.4,2.4-3.3,3.7c-2.2,3-4.3,6.1-6.2,9.3c-1.6,2.6-3.8,3.3-6.6,3
			c-1.3-2.6-2.7-5.2-4-7.8c4.7-3.9,8.5-8.4,11.1-14c0.7-1.4,2.5-2.2,3.9-3.3C323.6,166.6,325.3,169.6,327.1,172.6z"/>
		<path style="fill:#2A2828;" d="M188.9,247.6c1.4,1.4,2.7,2.7,4.1,4.1c0.2,2.1,0.4,4.2,0.8,6.3c1.7,8.8,3.4,17.6,5.4,26.4
			c0.7,3.1,0,7.3,4.7,8.2c-3,12.7-14,22.1-26.9,22.6c-1.3,0-2.6,0.1-4,0.2c-8.4-1.4-15.7-5.1-22-10.7c-8.7-9.7-13.6-20.7-12.9-34
			c0.4-6.7,3-12.5,6-18.3c0.2-0.3,0.4-0.5,0.7-0.8c1.1-1.1,2.1-2.2,3.2-3.3c5.3-3.8,10.6-7.7,17.4-7.8c3.9-0.1,7.8,0.4,11.8,0.7
			c2.7,1.3,5.3,2.5,8,3.8c0.3,0.2,0.6,0.5,0.9,0.7l0.1,0.1c0.6,0.3,1.3,0.6,1.9,0.9l0.1,0.1C188.3,247,188.6,247.3,188.9,247.6z
			 M192,278.6c-0.1-0.7-0.2-1.4-0.3-2.1c-1.4-5.3-4-9.8-8.5-13.1c-6.9-5.1-17.3-3.3-21,3.6c-4.5,8.4-2.1,19.4,5.5,25.1
			c9.6,7.2,21.4,2.7,23.6-9.1C191.6,281.6,191.8,280.1,192,278.6z"/>
		<path style="fill:#D8D8D8;" d="M117,270.6c-0.4-14.8,4.3-28.2,11-41.1c1.4-2.7,2.4-5.8,3-8.8c0.9-4.5,6-8.9,10.9-9.1
			c3.1-0.2,6.1-0.6,9.1-0.9c1.7-0.1,3.4-0.1,5-0.2c1,0.4,2,0.7,3,1.1c0.6,0.7,1.1,1.7,1.8,1.9c2.4,0.5,4.8,1,7.2,1c3,0,6-0.6,9-0.9
			c14.3,0.3,28.7,0.6,43,0.9c2.6,3.4,5.8,2.5,9,1c10,0.1,20,0.2,30,0.3c-0.8,4.8-5,3.1-7.5,3.3c-9,0.5-18.1,0.4-27.2,0.3
			c-2.8,0-5.6-0.8-8.4-0.7c-12.7,0.4-25.5,0.6-38.2,1.5c-5.5,0.4-5.3,1.1-3,6.1c0.7,1.6,0.2,3.7,0.2,5.5c0,1.5-0.1,3.1-0.1,4.6
			c-1.6-0.2-3.3-0.2-4.9-0.5c-5.6-1.3-11.2-3-16.8-4.2c-9.9-2.2-15.5,0.6-18.2,8.7c-1.8,4.2-3.7,8.4-5.3,12.7
			c-1.5,3.9-2.5,7.9-4,11.8C123.7,270.5,123.5,270.6,117,270.6z"/>
		<path style="fill:#DDB4BE;" d="M135.1,240.6c2.7-8.1,8.3-10.9,18.2-8.7c5.6,1.2,11.2,2.9,16.8,4.2c1.6,0.4,3.3,0.4,4.9,0.5l0,0
			c0,0.3,0,0.6,0,1c0.7,1.2,1.3,2.3,2,3.5c-3.9-0.2-7.8-0.8-11.8-0.7c-6.8,0.2-12.1,4-17.4,7.8c-3.8-0.8-5.3-3.1-4.9-6.9
			c0.1-1.5-0.5-3-0.8-5C139.3,238.1,137.2,239.3,135.1,240.6z"/>
		<path style="fill:#DDB4BE;" d="M116.1,368.6c-0.4-4.7-0.7-9.3-1.1-14c5.2,3.3,6.2,8.4,6.1,14C119.4,368.6,117.7,368.6,116.1,368.6
			z"/>
		<path style="fill:#DDB4BE;" d="M144.7,251.6c-0.2,0.3-0.4,0.5-0.7,0.8C144.3,252.1,144.5,251.9,144.7,251.6z"/>
		<path style="fill:#333233;" d="M203.9,292.6c-4.7-0.9-4-5.1-4.7-8.2c-2-8.7-3.7-17.6-5.4-26.4c-0.4-2.1-0.5-4.2-0.8-6.3
			c5.2,4.4,8.4,9.9,9.5,16.7c0.7,4.1,1.9,8.1,2.1,12.2C204.9,284.6,204.2,288.6,203.9,292.6z"/>
		<path style="fill:#D8D8D8;" d="M175,237.6c0-0.3,0-0.6,0-1c1.3,0.6,3.5-2.7,4,1C177.7,237.6,176.4,237.6,175,237.6z"/>
		<path style="fill:#333233;" d="M187.9,246.7c-0.6-0.3-1.3-0.6-1.9-0.9C186.6,246.1,187.3,246.4,187.9,246.7z"/>
		<path style="fill:#333233;" d="M186,245.6c-0.3-0.2-0.6-0.5-0.9-0.7C185.4,245.1,185.7,245.4,186,245.6z"/>
		<path style="fill:#333233;" d="M188.9,247.6c-0.3-0.3-0.6-0.6-0.9-0.9C188.3,247,188.6,247.3,188.9,247.6z"/>
		<path style="fill:#2A2828;" d="M153.8,206.7c-1.6-0.1-3.1-0.2-4.7-0.4c-0.5-0.2-1-0.4-1.5-0.7c0,0-0.3,0-0.3,0l-0.3-0.1
			c-0.6-1-1.2-1.9-2.5-3.9c2.6-0.4,4.9-1.5,6.6-0.9c4.8,1.8,8.8,1.6,12-2.8c0.3-0.4,1.2-0.4,1.8-0.5l0,0
			C163.1,202.8,159.3,205.8,153.8,206.7z"/>
		<path style="fill:#7A6632;" d="M167.1,189.6c0.9-1.5,1.7-2.9,2.6-4.4c0.1,0.2,0.2,0.3,0.4,0.4l0-0.1c-0.4,1.8,0.3,2.4,2,1.8
			c0,1.3,0,2.5,0,3.8c-1.1,0.2-2.1,0.4-3.2,0.7C168.3,191.1,167.7,190.3,167.1,189.6z"/>
		<path style="fill:#2A2828;" d="M167.1,189.6c0.6,0.7,1.2,1.5,1.8,2.2c0.2,0.1,0.3,0.3,0.2,0.6c-0.5,0.6-1,1.2-1.5,1.9
			c0,1,0,2.1,0.1,3.1c-0.9,0.1-1.8,0.2-2.6,0.3l0,0C165.7,194.9,166.4,192.3,167.1,189.6z"/>
		<path style="fill:#C38F9B;" d="M173.5,181.6l0.3,0c0.2,1.7,1,3.7-1.7,4.3c-0.4-0.2-0.7-0.3-1.1-0.5c-0.3-0.6-0.6-1.2-0.8-1.8
			c-0.2-0.6-0.2-1.3-0.2-2C171.1,181.6,172.3,181.6,173.5,181.6z"/>
		<path style="fill:#7A6632;" d="M142.2,184.6c-1.1-1.7-2.1-3.4-3.2-5C140.9,180.8,144.5,180.8,142.2,184.6z"/>
		<path style="fill:#E8C7CF;" d="M173.5,181.6c-1.2,0-2.4,0-3.6,0c0.2-0.2,0.2-0.4,0.3-0.7C171.3,181.1,172.4,181.3,173.5,181.6z"/>
		<path style="fill:#DEC3C9;" d="M171,185.4c0.4,0.2,0.7,0.3,1.1,0.5c0,0.5,0,1,0,1.5c-1.7,0.5-2.4,0-2-1.8
			C170.4,185.5,170.7,185.4,171,185.4z"/>
		<path style="fill:#2A2828;" d="M144,168.6c0.3,0.4,0.5,0.7,0.8,1.1C144.6,169.3,144.3,169,144,168.6L144,168.6z"/>
		<path style="fill:#C38F9B;" d="M170.1,185.6c-0.2-0.1-0.3-0.2-0.4-0.4C169.9,185.3,170,185.4,170.1,185.6z"/>
		<path style="fill:#67B7A8;" d="M246.5,151.6c-2.1,1.1-4.2,2.2-6.3,3.3c-0.4,0.5-0.8,1-1.2,1.6l-0.1,0.1c-5,0.9-7,5.2-9.2,8.9
			c-2.4,4.1-3.8,8.7-5.6,13.1c-1.1,0.9-2.6,1.6-3.2,2.7c-2.2,4-5.4,6.2-9.9,6.4c-6.3,0.2-12.7,0.1-19.1,0.1c-1.7,0-3.4-0.1-5.1-0.2
			c-0.3,0-0.6,0-0.9-0.1c-1.8,0.1-3.2-0.3-3.1-2.7c0.1-2.1,0-4.2,0-6.3c8.2,3.3,13.5-1.9,18.9-6.5c0.8-0.7,0.8-2.4,1.2-3.6
			c9.3-0.3,17.3-6.8,18.9-14c0.5-2.3,1.3-4.6,2-6.9c2.4-0.4,4.9-0.4,7.2-1.3c4.1-1.5,7.3-0.4,10.4,2.2
			C243.1,149.8,244.9,150.6,246.5,151.6z"/>
		<path style="fill:#4D8378;" d="M224,147.6c-0.7,2.3-1.5,4.5-2,6.9c-1.6,7.2-9.6,13.7-18.9,14c-8.7,0.2-15.1-3.9-20-10.9
			c-0.4-1.6-0.8-3.3-1.3-4.9c-0.3-2.2,1.5-4.9-1.6-6.3c0-0.5,0-1,0-1.6c0.6-1.2,1.1-2.3,1.8-3.5c0.7-1.3,1.5-2.6,2.2-3.9
			c0.2,2.4,0.5,4.8,0.7,7.1c0,8.6,5.1,15.1,13.3,16.9c12.7,2.6,19.9-4.4,22-11.5c2-7,0.3-13.5-3.4-19.5c0.4-0.3,0.8-0.7,1.2-1
			c1.5,2.1,3,4.1,4.6,6.2C223.1,139.7,223.6,143.7,224,147.6z"/>
		<path style="fill:#A16D78;" d="M167.7,197.3c0-1,0-2.1-0.1-3.1c1.4,0.1,2.8,0.2,4.3,0.3c0.4-0.3,0.7-0.6,1.1-0.9
			c3.3-3,2.6-7,3-10.8c0.7-0.4,1.3-0.8,2-1.2c0.1,5.9,0.8,11.9-4,16.7C171.9,198.1,169.8,197.7,167.7,197.3z"/>
		<path style="fill:#D4A6B1;" d="M174,198.4c4.7-4.7,4-10.8,4-16.7c0.6-0.7,1.2-1.4,1.8-2.1c-0.3,5.3-0.7,10.5-1,15.8
			c-0.9,2-1.8,3.9-2.7,5.9C175.3,200.3,174.7,199.4,174,198.4z"/>
		<path style="fill:#E8C7CF;" d="M175.9,182.9c-0.4,3.8,0.3,7.8-3,10.8c-0.3-0.1-0.6-0.1-0.9-0.1c-0.2-0.2-0.2-0.5-0.2-0.8
			c0.1-0.6,0.2-1.1,0.3-1.7c0-1.3,0-2.5,0-3.8c0-0.5,0-1,0-1.5c2.6-0.6,1.9-2.6,1.7-4.3C174.5,182,175.2,182.5,175.9,182.9z"/>
		<path style="fill:#97A9A2;" d="M186.1,187.6c0.3,0,0.6,0,0.9,0.1c2.1,0.6,4.2,1.8,6.4,1.8c7.1,0.3,14.3,0.2,21.4,0.3
			c3.1,1.3,6.2,2.5,9.2,3.8c2.8,6.3,5.6,12.6,8.8,19.7c1.3-1.7,2-2.7,2.8-3.7c0.8,0,1.6,0,2.4,0c2.3,0.4,4.7,0.7,7,1.1
			c4.9-0.1,9.8-0.1,14.8-0.2c2-0.6,4-1.3,6.1-1.9c1.1,0.6,2.1,1.2,3.2,1.8l0.4,0.1l0.5,0c0.3-0.2,0.7-0.5,1-0.7c0.3,0,0.6-0.1,1-0.1
			c0.3,1.7,0.7,3.3,1,5c-1,0.1-2,0.2-2.9,0.3c-2.4,0.2-4.7,0.4-7.1,0.6c-0.7,0.1-1.3,0.1-2,0.2c-0.7,0.1-1.3,0.1-2,0.2
			c-10-0.1-20-0.2-30-0.3c-2.9-1.7-5.7-3.1-9-1c-14.3-0.3-28.7-0.6-43-0.9c-1.4-1.2-2.7-2.3-4.1-3.5c0.3-0.5,0.7-1.1,1-1.6
			c4-2.8,5.5-7.1,6.3-11.6c0.6-1.3,1-2.7,1.8-3.9C183.3,191.1,184.8,189.4,186.1,187.6z"/>
		<path style="fill:#7C8281;" d="M180.3,196.8c-0.8,4.6-2.2,8.8-6.3,11.6c0.7-2.4,1.4-4.8,2-7.2c0.9-2,1.8-3.9,2.7-5.9
			C179.2,195.9,179.8,196.4,180.3,196.8z"/>
		<path style="fill:#7A6632;" d="M176,201.3c-0.7,2.4-1.4,4.8-2,7.2c-0.3,0.5-0.7,1.1-1,1.6c-0.5,0-1.1,0.1-1.6,0.1
			c-0.9,0-1.7,0-2.6,0c-0.5,0-1.1-0.1-1.6-0.1c-2.3-0.7-4.7-1.3-7-2c-2.1-0.5-4.2-0.9-6.2-1.4c5.4-1,9.2-3.9,11.2-9.1
			c0.9-0.1,1.8-0.2,2.6-0.3c2.1,0.4,4.2,0.7,6.3,1.1C174.7,199.4,175.3,200.3,176,201.3z"/>
		<path style="fill:#97A9A2;" d="M160.1,208.1c2.3,0.7,4.7,1.3,7,2c-2.7,0.5-5.4,1-8.1,1.5c-1-0.4-2-0.7-3-1.1
			C157.4,209.7,158.7,208.9,160.1,208.1z"/>
		<path style="fill:#57461E;" d="M147.7,205.7c0.5,0.2,1,0.4,1.5,0.7C148.7,206.2,148.2,205.9,147.7,205.7z"/>
		<path style="fill:#67B7A8;" d="M218.1,129.5c-0.4,0.3-0.8,0.7-1.2,1c-9.5-11.1-29.8-8.5-32.6,6.9c-0.7,1.3-1.5,2.6-2.2,3.9
			c-0.6,1.1-1.2,2.3-1.8,3.5c-1.2-10,3.7-16.8,11.9-21.5c5-2.9,16.8-3.3,23.9,3C217,127.1,217.4,128.4,218.1,129.5z"/>
		<path style="fill:#67B7A8;" d="M180.3,146.4c3.1,1.5,1.3,4.2,1.6,6.3C178.4,151.4,180.7,148.6,180.3,146.4z"/>
		<path style="fill:#57461E;" d="M266.2,156.6c1.9,1.3,3.9,2.7,5.8,4c0.7,1.4,1.4,2.7,2.2,4.1c-0.2,0.3-0.2,0.6-0.2,0.9
			c-1.5,4.6-2.6,9.3-0.9,14.2c-0.4,0.6-0.7,1.2-1.1,1.7c-2.4-1.4-0.5-5.5-3.9-6.2c0.2-4.3-3-4.3-5.9-4.7c-0.4-0.3-0.7-0.5-1.1-0.8
			c-0.9-0.9-1.7-1.8-2.6-2.7c0-0.3,0-0.6,0.1-0.9c-0.1,0.3-0.2,0.5-0.3,0.8c-0.4,0-0.8,0.1-1.2,0.1c-0.6-2.4-5.1-2-4-5.6
			c0.8-0.3,1.6-0.7,2.4-1c-2.8-0.9-5.7-1.9-8-1.2c-6.2,1.9-11.1,5.8-14,11.8c-3,6.1-4,12.6-3.5,19.4c-0.6,0-1.3,0-1.9,0
			c-0.1-0.2-0.1-0.5-0.1-0.7c-0.1-0.4-0.3-0.8-0.4-1.2c0-1.7-0.1-3.3-0.1-5c0.2-1.1,0.4-2.1,0.5-3.2c1.7-8.5,4.6-16.3,12-21.7
			c1.8-1,3.6-2,5.5-2.9c3.5,0,7.1-0.7,10.4,0.1c3.1,0.7,5.9,3,8.9,4.6C265.2,159,265.7,157.8,266.2,156.6z"/>
		<path style="fill:#C38F9B;" d="M239.9,158.7c-7.4,5.4-10.3,13.2-12,21.7c-0.2,1.1-0.4,2.1-0.5,3.2c0,1.7,0.1,3.3,0.1,5
			c0.1,0.4,0.3,0.8,0.4,1.2c0,0.3,0,0.5,0.1,0.7c0.7,5,1,10.1,5.7,13.4c0.6,1.9,1.3,3.8,1.9,5.7c-0.7,1-1.5,2-2.8,3.7
			c-3.2-7.1-6-13.4-8.8-19.7c0-1.3,0-2.7-0.1-4c0-3.7,0.1-7.3,0.1-11c1.8-4.4,3.2-9,5.6-13.1c2.1-3.7,4.2-8,9.2-8.9
			C239.3,157.3,239.6,158,239.9,158.7z"/>
		<path style="fill:#C38F9B;" d="M266.2,156.6c-0.5,1.2-1,2.5-1.6,3.9c-3-1.6-5.7-3.8-8.9-4.6c-3.3-0.8-6.9-0.1-10.4-0.1
			c3.8-2.5,7.8-2.5,12-1.5c2.5,0.6,5.1,0.8,7.7,1.2C265.5,155.8,265.8,156.2,266.2,156.6z"/>
		<path style="fill:#C38F9B;" d="M239.1,156.5c0.4-0.5,0.8-1,1.2-1.6C239.9,155.5,239.5,156,239.1,156.5z"/>
		<path style="fill:#67B7A8;" d="M281.4,121.6c7.9,0,15.3-0.2,22.7,0.1c3.6,0.1,5.8,2.9,5.9,6.2c0.1,3.5-2.3,6.5-6,6.6
			c-7.4,0.2-14.8,0.1-22.6,0.1C281.4,130.2,281.4,126.3,281.4,121.6z M306,126.5c-1.1-0.9-2.2-2.6-3.4-2.6
			c-6.4-0.3-12.8-0.1-19.6-0.1c0,2.3,0,4,0,5.6c-0.1,2.6,1.8,2.2,3.4,2.3c3.9,0.3,7.8,0.7,11.7,0.9c3.2,0.1,6.7,0.8,9-2.5
			C308.3,128.3,308.6,127,306,126.5z"/>
		<path style="fill:#67B7A8;" d="M298,164.8c0.6,1.7,1.2,3.4,1.8,5c-0.6,0.3-1.3,0.6-1.9,0.8c-1.6-2.7-3.3-5.4-4.8-8.1
			c-3.2-5.6-3.8-5.8-11.3-3.9c0.4,4.2,0.8,8.6,1.2,12.9c-0.3,6-0.6,12-0.9,18c-0.6,0-1.1-0.1-1.7-0.1c-0.1-4.6-0.2-9.2-0.3-13.8
			c0-3.4,0-6.7,0.1-10.1c0-0.3,0-0.7,0-1c0.1-9.4,1.2-10.4,10.6-8.8c1.7,0.3,3.1,2.5,4.4,4C296.2,161.3,297,163.1,298,164.8z"/>
		<path style="fill:#7A6632;" d="M273.1,179.8c-1.7-4.9-0.6-9.5,0.9-14.2c0.3,0,0.7,0,1,0c0.2,0.2,0.4,0.2,0.7,0.2
			c0.1,0.6,0.2,1.2,0.3,1.8c0.3,1.4,0.5,2.9,0.9,4.3c2,6.8,2.8,13.7,0.8,20.7c-0.4-5.1-0.9-10.2-1.3-15.7
			C274.9,178.1,274,178.9,273.1,179.8z"/>
		<path style="fill:#95D9CD;" d="M276.1,167.5c-0.1-0.6-0.2-1.2-0.3-1.8c1.4-0.1,2.9-0.1,4.3-0.2c0,3.4,0,6.7-0.1,10.1
			C278.7,173,277.4,170.2,276.1,167.5z"/>
		<path style="fill:#95D9CD;" d="M275,165.6c-0.3,0-0.7,0-1,0c0-0.3,0-0.6,0.2-0.9C274.5,165,274.8,165.3,275,165.6z"/>
		<path style="fill:#4D8378;" d="M297.9,170.6c0.6-0.3,1.3-0.6,1.9-0.8c2.4,3.7,4.7,7.4,7.1,11.1c1.3,2.6,2.7,5.2,4,7.8
			c0,0.3,0,0.6,0.1,0.9l0,0.1c-1,0-2,0-3.1,0c-1-2-2-4-3-5.9c-2.3-4.1-4.6-8.1-7-12.2C298,171.3,298,171,297.9,170.6z"/>
		<path style="fill:#E1E0E0;" d="M320.1,277c-0.4,6.2-3.5,12.2-10.2,15.9c-9.2,5.1-19.8-0.2-21.7-10.6c-1.7-8.9,3.6-17.4,10.6-21
			C309.3,255.9,320.3,263.3,320.1,277z"/>
		<path style="fill:#D8D8D8;" d="M263,215.5c2.4-0.2,4.7-0.4,7.1-0.6c-0.7,0.9-1.3,2.3-2.2,2.5c-1.5,0.4-3.3,0.1-4.9,0.1
			C263,216.9,263,216.2,263,215.5z"/>
		<path style="fill:#D8D8D8;" d="M281.1,214.7c2-0.3,4-0.6,6-0.9C285.5,217,283.3,215.7,281.1,214.7z"/>
		<path style="fill:#BDBDBD;" d="M263,215.5c0,0.7,0,1.4,0,2.1c-0.7-0.6-1.3-1.3-2-1.9C261.7,215.6,262.4,215.6,263,215.5z"/>
		<path style="fill:#CFCECE;" d="M292.1,213.6c0.2-0.5,0.5-1.1,0.7-1.6c0.4,0.5,0.8,1.1,1.2,1.6
			C293.4,213.6,292.7,213.6,292.1,213.6z"/>
		<path style="fill:#D8D8D8;" d="M275,215.6c0.7-0.3,1.4-0.6,2-0.9C276.4,215,275.7,215.3,275,215.6z"/>
		<path style="fill:#E68498;" d="M250,353.7c-0.2,1.3-0.5,2.6-2,0.9C248.7,354.3,249.4,354,250,353.7z"/>
		<path style="fill:#BDBDBD;" d="M284,254.6c-1.5,5-3.1,10-4.5,15.1c-1.2,4.4-2.3,8.8-3.4,13.4C272.2,275.8,276.6,260.5,284,254.6
			C284.1,254.6,284,254.6,284,254.6z"/>
		<path style="fill:#BDBDBD;" d="M284.1,254.6c0.1-0.1,0.3-0.3,0.4-0.4c0,0.1,0,0.2-0.1,0.2C284.3,254.5,284.1,254.5,284.1,254.6
			L284.1,254.6z"/>
		<path style="fill:#97A9A2;" d="M307.9,189.7c1,0,2,0,3.1,0c-3.6,4.7-7.3,9.4-11.3,14.5c0.2,0.5,0.8,2,1.4,3.5
			c-4.6,0.3-9.1,0.9-13.7,1c-4.8,0.1-7.1-2.2-7.3-7.1c-0.1-2.3-0.1-4.6-0.2-6.9c0.1-1.7,0.3-3.4,0.4-5c0.6,0,1.1,0.1,1.7,0.1
			C290.7,189.6,299.3,189.7,307.9,189.7z"/>
		<path style="fill:#DDB4BE;" d="M280.3,189.5c-0.1,1.7-0.3,3.4-0.4,5c-2.6,5-5.2,10.1-7.9,15.1c-0.3,0-0.6,0.1-1,0.1
			c-0.3-0.1-0.6-0.2-0.9-0.3c2.5-5.7,5.1-11.3,7.6-17c1.9-7,1.1-13.8-0.8-20.7c-0.4-1.4-0.6-2.9-0.9-4.3c1.3,2.7,2.6,5.5,3.9,8.2
			C280.1,180.3,280.2,184.9,280.3,189.5z"/>
		<path style="fill:#D8D8D8;" d="M192,278.6c-0.2,1.5-0.4,3-0.6,4.4c-2.2,11.8-14,16.3-23.6,9.1c-7.6-5.7-10-16.7-5.5-25.1
			c3.7-6.9,14.1-8.7,21-3.6c4.5,3.3,7.1,7.8,8.5,13.1C191.7,277.3,191.9,277.9,192,278.6z"/>
		<path style="fill:#333233;" d="M192,278.6c-0.1-0.7-0.2-1.4-0.3-2.1C191.7,277.3,191.9,277.9,192,278.6z"/>
		<path style="fill:#BDBDBD;" d="M159,211.6c2.7-0.5,5.4-1,8.1-1.5c0.5,0,1.1,0.1,1.6,0.1c0.9,0,1.7,0,2.6,0c0.5,0,1.1-0.1,1.6-0.1
			c1.4,1.2,2.7,2.3,4.1,3.5c-3,0.3-6,0.9-9,0.9c-2.4,0-4.9-0.5-7.2-1C160.1,213.3,159.6,212.2,159,211.6z"/>
		<path style="fill:#BDBDBD;" d="M220,214.5c3.3-2.1,6.2-0.6,9,1C225.8,217,222.7,218,220,214.5z"/>
		<path style="fill:#DDB4BE;" d="M172.1,191.2c-0.1,0.6-0.2,1.1-0.3,1.7c-0.9-0.2-1.7-0.3-2.6-0.5c0-0.2-0.1-0.4-0.2-0.6
			C170,191.6,171,191.4,172.1,191.2z"/>
		<path style="fill:#7A6632;" d="M169.2,192.4c0.9,0.2,1.7,0.3,2.6,0.5c0,0.3,0.1,0.5,0.2,0.8c-0.2,0.3-0.3,0.6-0.1,0.9
			c-1.4-0.1-2.8-0.2-4.3-0.3C168.1,193.6,168.7,193,169.2,192.4z"/>
		<path style="fill:#4D8378;" d="M224.2,178.6c0,3.7-0.1,7.3-0.1,11c-3.1,0.1-6.1,0.2-9.2,0.2c-7.1-0.1-14.3,0-21.4-0.3
			c-2.2-0.1-4.3-1.2-6.4-1.8c1.7,0.1,3.4,0.2,5.1,0.2c6.4,0,12.7,0.1,19.1-0.1c4.4-0.2,7.7-2.4,9.9-6.4
			C221.6,180.2,223.1,179.5,224.2,178.6z"/>
		<path style="fill:#E68498;" d="M184.3,137.5c2.8-15.5,23.1-18,32.6-6.9c3.7,6.1,5.4,12.5,3.4,19.5c-2,7-9.2,14.1-22,11.5
			c-2.2-7.4-6.8-12.9-13.3-16.9C184.8,142.2,184.5,139.9,184.3,137.5z"/>
		<path style="fill:#57461E;" d="M185,144.6c6.5,4,11.1,9.5,13.3,16.9C190.2,159.7,185,153.2,185,144.6z"/>
		<path style="fill:#DDB4BE;" d="M171.9,194.6c-0.1-0.3-0.1-0.6,0.1-0.9c0.3,0,0.6,0,0.9,0.1C172.6,194,172.2,194.3,171.9,194.6z"/>
		<path style="fill:#7A6632;" d="M262.2,170.6c2.9,0.4,6.2,0.4,5.9,4.7c3.4,0.7,1.5,4.8,3.9,6.2c0.4,0.7,0.9,1.4,1.3,2.1
			c-0.4,4.3-0.8,8.6-1.3,12.9l-0.1,0.1c-0.6,1.3-1.3,2.6-1.9,3.9c0,0-0.1,0.1-0.1,0.1c-1,1.3-2,2.6-2.9,3.9c0,0-0.1,0.1-0.1,0.1
			c-2.4,2-4.8,3.9-7.2,5.9c-4.9,0.1-9.8,0.1-14.8,0.2c-2.3-1.4-4.7-2.7-7-4.1l0-0.1c-0.3-0.3-0.6-0.6-1-1l0,0c-1-1.7-2-3.3-3-5l0,0
			c-0.7-3-1.3-6-2-9.1c1.2-0.3,2.5-0.6,3.8-0.9c0.4,1.8,0.7,4,1.4,6c1.3,3.8,3.4,4.9,7,3.9c0.3,0.3,0.6,0.6,1,1
			c0.1,1.3-0.2,3.2,0.4,3.7c5.2,3.3,17.2-0.8,19.2-6.4c0.2-0.4-0.9-1.3-1.4-1.9c0.5-0.7,1.1-1.4,1.6-2.1c0.5,0.2,1,0.4,1.4,0.6
			c0.1-0.3,0.1-0.5,0.2-0.8c-0.5,0.1-1.1,0.1-1.6,0.2c2.9-6.6,2.8-12.8-2.9-18C262.2,174.5,262.2,172.5,262.2,170.6z"/>
		<path style="fill:#E2667A;" d="M273.3,183.6c-0.4-0.7-0.9-1.4-1.3-2.1c0.4-0.6,0.7-1.2,1.1-1.7c0.9-0.8,1.8-1.6,3.3-2.9
			c0.5,5.4,0.9,10.6,1.3,15.7c-2.5,5.7-5.1,11.3-7.6,17l-0.2,0.3c-0.3,0.2-0.5,0.4-0.8,0.6c-1.1-0.6-2.1-1.2-3.2-1.8
			c0.4-1.3,0.7-2.6,1.1-4l0.1-0.1c2.7,0,3.1-1.7,2.9-3.9l0.1-0.1c0.6-1.3,1.3-2.6,1.9-3.9l0.1-0.1c1-3.2,2.2-6.3,2.9-9.5
			C275.1,186,273.9,184.8,273.3,183.6z"/>
		<path style="fill:#7C8281;" d="M214.9,189.9c3.1-0.1,6.1-0.2,9.2-0.2c0,1.3,0,2.7,0.1,4C221,192.4,218,191.1,214.9,189.9z"/>
		<path style="fill:#C38F9B;" d="M238.1,206.6c2.3,1.4,4.7,2.7,7,4.1c-2.3-0.4-4.7-0.7-7-1.1C238.1,208.6,238.1,207.6,238.1,206.6z"
			/>
		<path style="fill:#C38F9B;" d="M267,204.6c-0.4,1.3-0.7,2.6-1.1,4c-2,0.6-4,1.3-6.1,1.9C262.2,208.6,264.6,206.6,267,204.6z"/>
		<path style="fill:#7A6632;" d="M238.1,206.6c0,1,0,2,0,3c-0.8,0-1.6,0-2.4,0c-0.6-1.9-1.3-3.8-1.9-5.7c0.2-0.2,0.3-0.4,0.5-0.5
			c0.9,0.7,1.8,1.4,2.8,2.2c0,0,0,0,0,0C237.4,205.9,237.7,206.3,238.1,206.6L238.1,206.6z"/>
		<path style="fill:#BDBDBD;" d="M270.2,209.5c0.3,0.1,0.6,0.1,0.9,0.3c-0.3,0.2-0.7,0.5-1,0.7c0-0.2-0.1-0.5-0.1-0.7L270.2,209.5z"
			/>
		<path style="fill:#DDB4BE;" d="M269.9,209.8c0.1,0.2,0.1,0.5,0.1,0.7l-0.5,0l-0.4-0.1C269.4,210.2,269.7,210,269.9,209.8z"/>
		<path style="fill:#97A9A2;" d="M171.3,210.2c-0.9,0-1.7,0-2.6,0C169.6,210.2,170.5,210.2,171.3,210.2z"/>
		<path style="fill:#7A6632;" d="M246.3,171.7c-0.5,1.2-1,2.4-1.5,3.5c-1.6,1.5-3.1,3-4.7,4.5c-0.4-0.4-1.1-1.3-1.3-1.2
			c-1,0.5-2,1.3-2.9,1.9c-0.3-0.2-0.6-0.5-0.8-0.7c1.5-2.7,2.4-6.6,4.8-8c3.6-2.1,4-5.2,5-8.3c2.1-3.5,5.2-2.6,8.2-1.9
			c-1,3.6,3.5,3.2,4,5.6c-3.5,0.8-7,1.7-10.5,2.5c-0.6,0-1.3,0-1.9,0c0,0.2-0.1,0.4-0.1,0.5c0.6,0.2,1.1,0.4,1.7,0.6
			C246.4,171.1,246.4,171.4,246.3,171.7z"/>
		<path style="fill:#C38F9B;" d="M253.1,161.5c-3-0.7-6.1-1.6-8.2,1.9c-2,1.3-4.2,2.3-5.9,3.9c-7,6.7-8,15.2-6.9,24.2
			c0.7,3,1.3,6,2,9.1c-1.4-3.4-2.8-6.7-4.2-10.1c-0.5-6.8,0.5-13.2,3.5-19.4c3-5.9,7.8-9.9,14-11.8c2.4-0.7,5.3,0.3,8,1.2
			C254.7,160.9,253.9,161.2,253.1,161.5z"/>
		<path style="fill:#C38F9B;" d="M246.3,171.7c0-0.3,0-0.6,0-0.9c0.1-0.4,0.2-0.7,0.3-1.1c3.5-0.8,7-1.7,10.5-2.5
			c0.4,0,0.8-0.1,1.2-0.1l0.2,0.1c0.9,0.9,1.7,1.8,2.6,2.7c-1,0.6-2,1.8-3.1,1.9C254.2,171.9,250.3,171.7,246.3,171.7z"/>
		<path style="fill:#7A6632;" d="M229.9,190.5c1.4,3.4,2.8,6.7,4.2,10.1c0,0,0,0,0,0c0.1,0.9,0.2,1.9,0.2,2.8
			c-0.2,0.2-0.4,0.3-0.5,0.5c-4.7-3.3-5-8.4-5.7-13.4C228.6,190.5,229.3,190.5,229.9,190.5z"/>
		<path style="fill:#7A6632;" d="M227.4,183.6c0.2-1.1,0.4-2.1,0.5-3.2C227.7,181.5,227.6,182.5,227.4,183.6z"/>
		<path style="fill:#7A6632;" d="M258.5,167.1l-0.2-0.1c0.1-0.3,0.2-0.5,0.3-0.8C258.6,166.5,258.5,166.8,258.5,167.1z"/>
		<path style="fill:#7A6632;" d="M227.9,189.8c-0.1-0.4-0.3-0.8-0.4-1.2C227.6,189,227.8,189.4,227.9,189.8z"/>
		<path style="fill:#E68498;" d="M283.1,129.4c0-1.6,0-3.3,0-5.6c6.7,0,13.1-0.1,19.6,0.1c1.2,0,2.3,1.7,3.4,2.6
			c-1.2,2.3-3,3.1-5.6,3C294.6,129.3,288.9,129.4,283.1,129.4z"/>
		<path style="fill:#4D8378;" d="M283.1,129.4c5.8,0,11.5-0.1,17.3,0.1c2.6,0.1,4.4-0.8,5.6-3c2.5,0.5,2.3,1.8,1.2,3.5
			c-2.3,3.4-5.7,2.7-9,2.5c-3.9-0.2-7.8-0.6-11.7-0.9C284.9,131.6,283,132,283.1,129.4z"/>
		<path style="fill:#7C8281;" d="M307.9,189.7c-8.6,0-17.3,0-25.9,0c0.3-6,0.6-12,0.9-18c5,0,10,0,15,0c2.3,4.1,4.7,8.1,7,12.2
			C306,185.7,306.9,187.7,307.9,189.7z"/>
		<path style="fill:#E68498;" d="M297.9,171.6c-5,0-10,0-15,0c-0.4-4.4-0.8-8.7-1.2-12.9c7.6-1.9,8.1-1.7,11.3,3.9
			c1.6,2.7,3.2,5.4,4.8,8.1C298,171,298,171.3,297.9,171.6z"/>
		<path style="fill:#E4E4E4;" d="M248,200.3c2.9-5.4,2.6-11.3,2.8-17.1c0.1-4.5-0.4-4.4,4.2-4.6c2.5-0.1,5.4,1.1,7.1-2
			c5.7,5.3,5.8,11.4,2.9,18l0,0c-0.5,0.7-1.1,1.4-1.6,2.1c-0.2,0-0.3,0.1-0.3,0.3c-0.3,0.2-0.5,0.4-0.8,0.6
			C258,201.1,253.4,202.7,248,200.3z"/>
		<path style="fill:#57461E;" d="M232.1,191.5c-1.1-9-0.1-17.5,6.9-24.2c1.7-1.6,3.9-2.6,5.9-3.9c-1,3.1-1.5,6.2-5,8.3
			c-2.3,1.4-3.2,5.2-4.8,8c0.3,0.2,0.6,0.5,0.8,0.7c1-0.7,1.9-1.4,2.9-1.9c0.2-0.1,0.9,0.8,1.3,1.2c-2,6.3-2.4,12.3,2.6,17.7
			c0.7,0.8,1,2,1.5,3c-3.6,1-5.7,0-7-3.9c-0.7-2-1-4.2-1.4-6C234.5,191,233.3,191.3,232.1,191.5z"/>
		<path style="fill:#E4E4E4;" d="M244.2,200.5c-0.5-1-0.8-2.2-1.5-3c-4.9-5.3-4.6-11.4-2.6-17.7c1.6-1.5,3.1-3,4.7-4.5
			c0.4,8.4,0.8,16.8,1.3,25.2c-0.3,0.3-0.6,0.6-0.9,0.9C244.8,201.1,244.5,200.8,244.2,200.5z"/>
		<path style="fill:#57461E;" d="M245.2,201.4c0.3-0.3,0.6-0.6,0.9-0.9c0.7-0.1,1.3-0.2,2-0.2c5.4,2.5,10,0.8,14.3-2.6
			c0.3-0.2,0.5-0.4,0.8-0.6c0-0.2,0.1-0.3,0.3-0.3c0.5,0.7,1.5,1.5,1.4,1.9c-1.9,5.6-14,9.7-19.2,6.4
			C244.9,204.7,245.3,202.7,245.2,201.4z"/>
		<path style="fill:#C38F9B;" d="M273.3,183.6c0.6,1.2,1.8,2.4,1.6,3.4c-0.7,3.2-1.9,6.3-2.9,9.5
			C272.5,192.2,272.9,187.9,273.3,183.6z"/>
		<path style="fill:#C38F9B;" d="M234.3,203.4c-0.1-0.9-0.2-1.9-0.2-2.8c1,1.7,2,3.3,3,5C236.1,204.9,235.2,204.1,234.3,203.4z"/>
		<path style="fill:#C38F9B;" d="M270,200.6c0.2,2.2-0.2,3.9-2.9,3.9C268.1,203.3,269,201.9,270,200.6z"/>
		<path style="fill:#C38F9B;" d="M272,196.6c-0.6,1.3-1.3,2.6-1.9,3.9C270.7,199.2,271.3,197.9,272,196.6z"/>
		<path style="fill:#57461E;" d="M265,194.6c0.5-0.1,1.1-0.1,1.6-0.2c-0.1,0.3-0.1,0.5-0.2,0.8C266,195,265.5,194.8,265,194.6
			L265,194.6z"/>
		<path style="fill:#C38F9B;" d="M238,206.6c-0.3-0.3-0.6-0.6-1-1C237.4,205.9,237.7,206.3,238,206.6z"/>
		<path style="fill:#57461E;" d="M246.6,169.7c-0.1,0.4-0.2,0.7-0.3,1.1c-0.6-0.2-1.1-0.4-1.7-0.6c0-0.2,0.1-0.4,0.1-0.5
			C245.3,169.7,246,169.7,246.6,169.7z"/>
		<path style="fill:#7A6632;" d="M263.1,197.1c-0.3,0.2-0.5,0.4-0.8,0.6C262.6,197.5,262.8,197.3,263.1,197.1z"/>
	</g>
</g>
</svg>
