<?xml version="1.0" standalone="no"?>
<!DOCTYPE svg PUBLIC "-//W3C//DTD SVG 20010904//EN"
 "http://www.w3.org/TR/2001/REC-SVG-20010904/DTD/svg10.dtd">
<svg version="1.0" xmlns="http://www.w3.org/2000/svg"
 width="1915.000000pt" height="1915.000000pt" viewBox="0 0 1915.000000 1915.000000"
 preserveAspectRatio="xMidYMid meet">
<metadata>
Created by potrace 1.14, written by Peter Selinger 2001-2017
</metadata>
<g transform="translate(0.000000,1915.000000) scale(0.100000,-0.100000)"
fill="#000000" stroke="none">
<path d="M9021 19113 c-6 -10 -11 -13 -11 -5 0 8 -5 10 -12 6 -16 -10 -50 -10
-65 -1 -6 4 -15 3 -18 -3 -5 -8 -11 -8 -20 0 -14 12 -48 3 -39 -11 3 -5 -7 -4
-22 1 -22 9 -25 8 -20 -5 4 -11 2 -14 -7 -8 -20 13 -41 13 -49 0 -6 -9 -8 -9
-8 1 0 9 -6 10 -17 4 -10 -4 -50 -8 -90 -7 -41 0 -69 -4 -65 -9 3 -5 -2 -7
-11 -3 -10 4 -17 2 -17 -5 0 -7 -4 -7 -14 1 -8 7 -17 8 -20 3 -3 -5 -15 -8
-28 -7 -13 1 -32 -2 -43 -8 -19 -10 -19 -9 -5 9 14 18 14 18 -4 4 -10 -8 -36
-16 -59 -17 -22 -1 -42 -5 -45 -8 -3 -2 -12 1 -20 8 -13 10 -14 9 -7 -2 6 -11
2 -13 -18 -9 -15 3 -24 2 -22 -2 3 -5 -2 -11 -11 -14 -10 -4 -13 -2 -8 7 5 8
2 7 -9 -2 -12 -9 -17 -10 -17 -2 0 9 -5 9 -20 1 -15 -8 -20 -8 -20 2 0 8 -5 6
-11 -4 -8 -14 -15 -15 -35 -8 -19 7 -23 7 -18 -2 5 -8 2 -9 -9 -5 -9 3 -19 2
-23 -4 -4 -7 -10 -7 -18 0 -8 7 -16 7 -22 1 -6 -6 -22 -11 -37 -12 -15 -1 -27
-7 -27 -13 0 -5 -4 -4 -9 4 -6 9 -10 10 -16 2 -5 -9 -11 -9 -23 1 -13 11 -14
11 -7 -1 6 -11 4 -13 -8 -8 -10 4 -17 1 -17 -6 0 -8 -4 -6 -10 3 -7 12 -10 12
-10 1 0 -7 -6 -11 -15 -8 -8 4 -17 2 -20 -3 -3 -5 -14 -7 -25 -5 -11 2 -20 0
-20 -6 0 -5 -5 -9 -11 -9 -5 0 -7 5 -4 10 3 6 2 10 -4 10 -5 0 -11 -5 -13 -11
-2 -6 -19 -13 -38 -14 -47 -3 -64 -8 -72 -20 -5 -6 -8 -6 -8 1 0 15 -40 10
-50 -6 -5 -7 -20 -14 -33 -14 -14 -1 -23 2 -20 7 3 5 -4 4 -14 -2 -11 -6 -23
-7 -27 -4 -3 3 -6 2 -6 -4 0 -6 -10 -9 -22 -9 -13 1 -27 0 -33 -3 -11 -6 -18
-8 -41 -10 -9 -1 -12 -6 -8 -13 5 -9 2 -9 -9 1 -9 7 -17 9 -17 4 0 -6 -10 -10
-22 -10 -41 -1 -49 -3 -44 -12 3 -4 -7 -7 -22 -5 -14 1 -30 -2 -33 -8 -9 -14
-51 -17 -68 -4 -11 8 -13 8 -7 -1 6 -12 0 -15 -20 -12 -4 0 -11 -5 -15 -13 -7
-11 -9 -11 -9 1 0 10 -3 11 -13 2 -8 -6 -17 -8 -20 -4 -4 3 -7 -2 -8 -13 0
-10 -3 -14 -5 -7 -4 8 -13 9 -29 3 -12 -5 -26 -6 -29 -3 -3 4 -6 1 -6 -5 0 -6
-6 -9 -14 -6 -8 3 -17 1 -20 -5 -4 -6 -14 -7 -23 -4 -12 5 -14 3 -8 -8 7 -11
5 -11 -10 1 -11 9 -16 10 -11 3 7 -13 -9 -18 -47 -15 -11 1 -15 -2 -11 -9 5
-8 -1 -10 -20 -7 -20 4 -31 0 -41 -16 -8 -11 -15 -15 -15 -8 0 8 -5 10 -12 5
-7 -4 -19 -9 -25 -10 -7 -2 -19 -5 -25 -7 -7 -2 -28 -7 -45 -11 -18 -4 -33
-11 -33 -16 0 -5 -12 -9 -26 -9 -15 0 -33 -8 -40 -17 -13 -17 -14 -17 -7 2 6
20 6 20 -15 1 -12 -11 -22 -16 -22 -11 0 4 -7 2 -15 -5 -8 -7 -15 -9 -15 -4 0
5 -5 2 -10 -6 -7 -11 -10 -12 -10 -2 0 10 -4 9 -16 -3 -9 -9 -21 -14 -28 -12
-6 2 -17 -3 -24 -12 -8 -10 -11 -10 -6 -2 5 10 3 12 -7 5 -14 -9 -19 -10 -40
-13 -5 0 -8 -5 -5 -10 4 -5 -2 -8 -11 -6 -10 1 -31 -4 -46 -12 -15 -7 -32 -11
-37 -8 -6 3 -10 1 -10 -5 0 -7 -7 -9 -16 -6 -10 4 -13 2 -8 -6 5 -7 0 -9 -14
-6 -12 4 -25 1 -29 -4 -4 -7 -1 -8 7 -3 8 5 11 4 6 -3 -4 -6 -13 -9 -20 -6 -8
3 -17 0 -21 -5 -3 -6 -10 -9 -15 -6 -5 3 -11 1 -15 -5 -3 -5 -15 -10 -26 -10
-10 0 -19 -4 -19 -10 0 -5 -7 -7 -15 -4 -8 4 -15 1 -15 -5 0 -6 -3 -10 -7 -9
-5 0 -16 -2 -25 -5 -10 -4 -26 -10 -35 -14 -10 -3 -21 -5 -25 -5 -5 1 -8 -3
-8 -9 0 -5 -4 -8 -9 -5 -5 4 -11 2 -13 -4 -2 -6 -17 -11 -35 -13 -17 -1 -29
-5 -26 -9 2 -5 -3 -8 -12 -8 -10 0 -13 -5 -9 -12 4 -7 3 -8 -5 -4 -6 4 -24 0
-39 -10 -15 -10 -35 -17 -44 -16 -10 2 -18 -2 -18 -7 0 -6 -11 -11 -25 -11
-14 0 -25 -5 -25 -11 0 -5 -4 -7 -10 -4 -5 3 -10 1 -10 -5 0 -7 -7 -9 -15 -6
-9 3 -18 -1 -21 -9 -4 -8 -10 -13 -14 -10 -5 3 -11 1 -15 -5 -3 -5 -15 -10
-26 -10 -12 0 -17 -4 -14 -11 4 -6 1 -10 -6 -8 -26 3 -40 -1 -35 -10 4 -5 -5
-8 -19 -7 -13 2 -22 0 -20 -4 3 -4 -3 -14 -12 -21 -12 -10 -14 -10 -9 -1 4 6
2 12 -3 12 -6 0 -11 -5 -11 -11 0 -6 -7 -8 -16 -5 -8 3 -12 2 -9 -4 3 -6 0
-10 -8 -10 -21 0 -68 -26 -60 -33 6 -6 -15 -11 -44 -10 -7 1 -10 -3 -7 -8 3
-5 -4 -9 -15 -9 -12 0 -21 -4 -21 -10 0 -5 -9 -10 -19 -10 -11 0 -23 -5 -27
-12 -5 -7 -3 -8 6 -3 8 5 11 4 6 -3 -4 -6 -13 -9 -20 -6 -7 3 -22 -3 -31 -13
-10 -10 -19 -16 -19 -14 -2 9 -46 -11 -46 -20 0 -6 -4 -7 -10 -4 -6 3 -10 1
-10 -5 0 -7 -6 -10 -14 -7 -8 3 -17 -1 -20 -9 -3 -8 -13 -14 -21 -14 -10 0
-13 -5 -9 -12 4 -6 3 -8 -3 -5 -14 9 -105 -38 -95 -48 4 -5 -1 -5 -10 -2 -9 3
-18 2 -20 -3 -2 -5 -10 -10 -18 -12 -15 -3 -31 -14 -60 -40 -10 -9 -21 -14
-24 -10 -3 3 -16 -4 -29 -15 -32 -29 -52 -40 -42 -22 8 12 6 12 -8 0 -9 -7
-14 -17 -11 -22 3 -5 2 -8 -3 -7 -14 4 -54 -13 -49 -21 3 -4 -4 -8 -15 -8 -10
-1 -26 -9 -35 -18 -9 -9 -23 -14 -31 -11 -8 3 -12 2 -9 -3 3 -5 -1 -14 -9 -21
-8 -7 -15 -9 -15 -4 0 5 -7 0 -15 -10 -8 -11 -15 -16 -15 -12 0 4 -7 0 -16 -8
-8 -9 -19 -14 -24 -11 -4 3 -10 -2 -14 -10 -3 -8 -12 -15 -21 -15 -8 0 -15 -4
-15 -10 0 -5 -11 -12 -25 -16 -14 -3 -22 -11 -18 -17 4 -6 0 -8 -10 -4 -11 4
-17 1 -17 -9 0 -8 -4 -12 -10 -9 -6 3 -10 2 -10 -3 0 -10 -37 -25 -53 -23 -5
1 -5 -3 -2 -9 4 -7 -2 -14 -14 -17 -12 -3 -21 -10 -21 -15 0 -5 -4 -6 -10 -3
-5 3 -10 2 -10 -3 0 -5 -12 -14 -26 -20 -15 -7 -22 -17 -18 -24 5 -7 3 -8 -6
-3 -8 5 -18 2 -26 -9 -6 -9 -21 -18 -32 -19 -13 -1 -18 -6 -14 -16 3 -9 1 -12
-6 -7 -7 4 -12 2 -12 -4 0 -6 -4 -8 -10 -5 -5 3 -10 1 -10 -4 0 -6 -7 -11 -15
-11 -8 0 -15 -7 -15 -16 0 -8 -5 -12 -10 -9 -6 3 -13 -1 -16 -9 -3 -9 -10 -14
-14 -11 -5 3 -16 -5 -24 -17 -9 -12 -16 -19 -16 -14 0 5 -6 3 -13 -3 -8 -6
-18 -7 -22 -3 -5 4 -5 2 -2 -4 9 -15 -19 -38 -34 -28 -7 4 -9 3 -6 -3 4 -6 -1
-17 -10 -24 -14 -12 -16 -12 -8 1 5 10 1 8 -13 -4 -12 -10 -19 -23 -16 -27 3
-5 -3 -6 -12 -2 -12 4 -15 3 -10 -5 4 -7 1 -12 -9 -12 -9 0 -13 -4 -10 -10 3
-5 0 -7 -8 -4 -8 3 -17 -2 -21 -11 -3 -9 -10 -13 -16 -10 -5 3 -10 1 -10 -5 0
-6 -5 -8 -12 -4 -6 4 -8 3 -5 -3 7 -10 -44 -53 -63 -53 -6 0 -9 -4 -5 -9 3 -5
-4 -12 -15 -16 -11 -3 -20 -11 -20 -16 0 -5 -7 -9 -16 -9 -8 0 -13 -4 -9 -9 3
-5 -3 -12 -14 -16 -10 -3 -35 -21 -55 -41 -20 -19 -36 -32 -36 -29 0 3 -11 -6
-24 -20 -14 -15 -30 -24 -36 -20 -6 3 -10 3 -9 -2 4 -15 -13 -43 -22 -37 -5 3
-12 -2 -15 -10 -3 -9 -10 -13 -15 -10 -5 3 -9 -2 -9 -10 0 -9 -4 -15 -8 -13
-5 1 -22 -11 -39 -28 -17 -16 -39 -36 -49 -43 -11 -7 -12 -10 -4 -6 10 5 12 4
5 -4 -5 -6 -17 -12 -25 -14 -19 -4 -39 -21 -34 -30 2 -4 -4 -9 -15 -13 -10 -3
-29 -19 -41 -35 -13 -17 -30 -30 -38 -30 -9 0 -12 -3 -9 -6 4 -4 -9 -19 -28
-34 -19 -15 -32 -30 -29 -32 3 -3 -7 -9 -21 -12 -14 -4 -23 -11 -20 -16 3 -6
1 -10 -5 -10 -6 0 -8 -5 -5 -10 4 -6 1 -9 -7 -8 -7 2 -12 -3 -11 -9 2 -7 0
-12 -5 -12 -17 3 -35 -1 -29 -7 8 -8 -18 -34 -34 -34 -7 0 -10 -3 -6 -6 6 -7
-41 -54 -54 -54 -5 0 -8 -6 -6 -12 1 -7 -4 -12 -10 -11 -7 2 -13 -4 -13 -13 0
-8 -4 -12 -10 -9 -5 3 -10 1 -10 -6 0 -15 -47 -59 -54 -51 -3 3 -6 0 -6 -7 0
-7 -5 -9 -12 -5 -7 4 -8 3 -4 -4 8 -13 -24 -53 -36 -46 -4 3 -8 -2 -8 -10 0
-8 -9 -18 -20 -21 -11 -4 -18 -11 -15 -16 4 -5 1 -9 -5 -9 -6 0 -8 -4 -5 -10
3 -5 2 -10 -3 -10 -14 0 -52 -36 -45 -44 3 -3 -1 -6 -10 -6 -9 0 -17 -6 -17
-13 0 -16 -36 -47 -45 -39 -4 4 -5 0 -3 -8 2 -8 -3 -14 -10 -12 -8 1 -11 -2
-7 -7 3 -6 -4 -15 -15 -21 -11 -6 -18 -15 -15 -21 4 -5 1 -9 -5 -9 -6 0 -8 -5
-4 -12 4 -7 3 -8 -4 -4 -6 3 -16 -3 -22 -14 -6 -11 -16 -17 -22 -14 -6 4 -8 3
-4 -4 3 -6 -4 -18 -16 -26 -12 -9 -19 -16 -15 -16 4 0 -11 -18 -33 -40 -22
-22 -37 -40 -34 -40 4 0 -4 -10 -17 -23 -37 -36 -64 -71 -61 -79 1 -5 -5 -8
-15 -8 -9 0 -14 -3 -10 -6 3 -3 -8 -19 -24 -36 -16 -17 -26 -36 -22 -42 3 -6
3 -8 -2 -4 -10 9 -47 -31 -40 -43 3 -4 0 -11 -6 -15 -8 -5 -10 -2 -5 7 4 8 0
4 -9 -8 -9 -12 -28 -34 -41 -50 -13 -15 -24 -34 -24 -41 0 -7 -4 -10 -10 -7
-9 6 -14 -8 -11 -28 1 -5 -2 -7 -6 -4 -5 2 -16 -4 -25 -15 -10 -10 -15 -18
-10 -18 4 0 -4 -10 -18 -21 -14 -11 -18 -17 -10 -13 11 5 10 1 -3 -12 -38 -41
-57 -68 -57 -81 0 -8 -3 -12 -8 -10 -4 3 -13 -1 -20 -9 -7 -8 -10 -14 -7 -14
3 0 -2 -13 -11 -29 -10 -17 -22 -27 -28 -24 -5 4 -7 -1 -3 -11 4 -10 3 -15 -3
-11 -6 3 -10 1 -10 -5 0 -6 -5 -8 -12 -4 -8 5 -9 2 -5 -9 3 -10 2 -17 -3 -17
-6 0 -10 -7 -10 -15 0 -8 -4 -15 -9 -15 -5 0 -14 -13 -21 -30 -7 -16 -16 -27
-21 -24 -5 3 -9 -2 -9 -10 0 -9 -4 -16 -10 -16 -5 0 -10 -6 -10 -13 0 -14 -21
-44 -56 -79 -10 -10 -15 -21 -11 -24 3 -3 -4 -16 -16 -28 -12 -11 -23 -27 -25
-35 -1 -7 -9 -20 -17 -28 -9 -8 -13 -19 -10 -24 4 -5 -1 -9 -10 -9 -9 0 -13
-4 -10 -10 3 -5 1 -10 -5 -10 -6 0 -9 -4 -6 -9 3 -5 -1 -11 -9 -15 -9 -3 -12
-12 -8 -23 3 -10 3 -15 -2 -11 -7 6 -55 -54 -55 -69 0 -4 -10 -18 -22 -31 -13
-14 -17 -22 -10 -18 6 4 12 2 12 -3 0 -6 -6 -11 -14 -11 -12 0 -30 -34 -27
-53 1 -4 -6 -10 -14 -13 -8 -3 -12 -10 -9 -15 3 -5 0 -9 -6 -9 -6 0 -9 -4 -6
-9 3 -5 -1 -12 -10 -15 -8 -3 -13 -10 -9 -15 3 -6 -3 -14 -12 -20 -10 -5 -17
-12 -16 -15 5 -12 -9 -36 -18 -30 -5 3 -6 -2 -3 -10 4 -10 1 -16 -7 -16 -7 0
-9 -3 -6 -7 4 -3 -1 -15 -10 -26 -13 -15 -14 -18 -3 -12 13 8 13 6 1 -8 -7 -9
-17 -14 -22 -11 -5 3 -6 -3 -2 -12 5 -13 3 -15 -8 -9 -8 4 -11 5 -7 0 4 -4 1
-20 -7 -35 -8 -15 -11 -31 -7 -35 4 -3 0 -5 -8 -3 -8 1 -14 -3 -12 -9 1 -7 -2
-13 -8 -13 -6 0 -10 -3 -9 -7 2 -16 -14 -53 -23 -53 -5 0 -6 -5 -3 -10 3 -6
-1 -13 -9 -16 -9 -3 -14 -10 -11 -14 2 -4 -4 -15 -14 -24 -10 -9 -17 -27 -15
-41 1 -14 -2 -23 -6 -20 -5 3 -11 -4 -15 -15 -3 -11 -11 -20 -16 -20 -6 0 -7
-4 -4 -10 3 -5 -1 -21 -10 -34 -9 -14 -13 -31 -9 -37 4 -8 3 -9 -4 -5 -7 4
-12 1 -12 -9 0 -10 -5 -13 -12 -9 -6 4 -8 3 -4 -4 3 -6 -3 -27 -15 -46 -11
-20 -18 -36 -13 -36 4 0 -1 -9 -12 -21 -10 -12 -18 -24 -18 -28 1 -3 -1 -5 -6
-4 -4 1 -7 -8 -6 -20 0 -12 -4 -21 -10 -20 -5 1 -10 -10 -10 -25 1 -17 -4 -26
-12 -24 -9 2 -11 -4 -7 -18 3 -11 3 -20 -2 -20 -4 0 -14 -9 -21 -21 -8 -12 -9
-18 -3 -15 7 4 8 1 5 -8 -3 -9 -10 -16 -16 -16 -5 0 -7 -4 -3 -9 3 -5 1 -12
-5 -16 -5 -3 -10 -15 -10 -26 0 -10 -4 -19 -10 -19 -5 0 -10 -7 -10 -15 0 -8
-9 -30 -20 -50 -11 -20 -20 -44 -20 -55 0 -11 -4 -20 -10 -20 -5 0 -10 -12
-10 -26 0 -14 -4 -23 -10 -19 -6 3 -10 -5 -10 -19 0 -13 -7 -31 -15 -39 -8 -8
-11 -17 -8 -21 3 -3 1 -12 -5 -19 -7 -8 -9 -17 -5 -20 3 -4 1 -7 -6 -7 -6 0
-11 -8 -9 -17 2 -10 -2 -17 -9 -16 -7 2 -10 -7 -7 -22 3 -15 0 -25 -7 -25 -6
0 -9 -6 -6 -14 3 -8 2 -16 -4 -18 -5 -2 -12 -17 -15 -33 -3 -16 -9 -32 -13
-35 -5 -3 -11 -22 -15 -42 -4 -21 -12 -38 -18 -38 -6 0 -8 -9 -5 -20 3 -11 1
-20 -5 -20 -5 0 -6 -4 -3 -10 3 -5 1 -10 -5 -10 -7 0 -10 -7 -6 -15 3 -8 2
-15 -3 -15 -4 0 -8 -6 -9 -12 -3 -33 -11 -53 -20 -51 -6 2 -9 -7 -7 -19 3 -12
0 -27 -5 -33 -5 -6 -12 -22 -14 -36 -3 -13 -5 -25 -7 -26 -2 -4 -6 -20 -8 -34
0 -5 -5 -8 -10 -5 -4 3 -7 -6 -5 -19 1 -14 -2 -25 -7 -25 -6 0 -7 -5 -4 -10 4
-6 1 -18 -7 -27 -11 -14 -11 -16 1 -9 8 6 7 0 -4 -18 -10 -14 -14 -26 -10 -26
4 0 2 -7 -5 -15 -6 -8 -9 -19 -5 -25 3 -5 1 -10 -6 -10 -7 0 -9 -3 -6 -7 4 -3
1 -13 -6 -21 -10 -13 -9 -15 3 -8 9 4 8 2 -2 -7 -10 -8 -15 -17 -11 -20 3 -4
1 -13 -5 -20 -7 -8 -9 -16 -6 -19 3 -3 -2 -23 -11 -44 -12 -30 -13 -39 -3 -46
9 -5 8 -8 -5 -8 -10 0 -16 -4 -12 -9 3 -5 1 -12 -5 -16 -5 -3 -10 -12 -10 -18
0 -7 4 -6 10 3 15 23 12 6 -4 -26 -8 -15 -13 -31 -10 -36 3 -4 0 -8 -6 -8 -7
0 -10 -7 -7 -15 4 -8 2 -17 -3 -20 -5 -3 -7 -12 -3 -20 3 -9 -1 -15 -8 -15
-12 0 -12 -2 -1 -9 11 -6 10 -10 -3 -15 -13 -5 -15 -9 -6 -20 9 -10 8 -15 -3
-19 -9 -4 -12 -15 -8 -33 3 -19 1 -25 -7 -20 -6 4 -11 2 -11 -3 0 -6 6 -11 13
-11 8 0 9 -3 1 -8 -6 -4 -12 -15 -12 -24 -4 -41 -6 -48 -13 -48 -4 0 -6 -8 -4
-17 1 -10 -3 -28 -10 -39 -10 -16 -11 -24 -2 -33 8 -8 8 -11 -2 -11 -8 0 -11
-6 -7 -15 3 -8 0 -15 -7 -15 -9 0 -8 -3 1 -9 11 -6 10 -10 -3 -15 -14 -5 -15
-9 -5 -21 7 -8 8 -15 3 -15 -6 0 -9 -10 -9 -22 1 -13 -1 -27 -4 -33 -4 -5 -10
-18 -13 -28 -5 -13 -3 -16 6 -10 6 4 4 -5 -6 -20 -9 -15 -13 -27 -8 -27 6 0 8
-7 5 -15 -4 -8 -9 -13 -13 -10 -4 2 -7 -10 -6 -28 1 -18 -2 -38 -8 -44 -6 -9
-6 -13 3 -13 9 0 10 -3 1 -13 -6 -8 -8 -17 -4 -20 3 -4 1 -7 -5 -7 -7 0 -12
-5 -12 -11 0 -5 6 -7 12 -3 9 5 9 2 -1 -9 -7 -9 -10 -17 -6 -17 4 0 2 -7 -5
-15 -8 -10 -9 -15 -2 -15 6 0 9 -7 6 -15 -4 -8 -11 -12 -18 -8 -6 4 -5 -1 3
-10 8 -11 9 -17 3 -17 -6 0 -9 -6 -6 -14 3 -8 1 -17 -5 -21 -8 -4 -8 -12 -1
-26 7 -12 7 -19 1 -19 -5 0 -8 -9 -6 -20 2 -11 0 -20 -4 -20 -5 0 -6 -12 -3
-26 4 -20 2 -25 -8 -19 -9 6 -10 3 -2 -12 6 -10 7 -25 3 -32 -5 -7 -6 -22 -4
-32 3 -12 0 -19 -8 -19 -11 0 -11 -2 1 -10 8 -5 10 -10 4 -10 -5 0 -10 -10
-11 -22 -1 -33 -7 -61 -17 -76 -4 -7 -4 -12 1 -11 18 3 27 -2 17 -9 -7 -4 -14
-30 -17 -58 -2 -29 -8 -57 -11 -63 -4 -6 -2 -20 5 -32 9 -17 8 -20 -2 -14 -9
6 -11 3 -6 -8 4 -10 1 -17 -6 -17 -9 0 -8 -3 1 -9 11 -6 10 -10 -3 -15 -13 -5
-15 -10 -6 -19 7 -10 7 -17 0 -24 -8 -8 -8 -13 0 -17 8 -5 8 -13 0 -28 -9 -16
-8 -19 3 -12 11 6 11 5 0 -8 -9 -12 -10 -18 -2 -23 8 -5 8 -11 0 -21 -7 -7
-10 -19 -7 -26 2 -7 0 -21 -5 -30 -6 -13 -5 -18 4 -18 6 0 3 -7 -8 -16 -15
-13 -16 -15 -2 -10 12 3 15 1 11 -10 -3 -7 -10 -14 -17 -14 -6 0 -5 -4 3 -9
12 -8 12 -12 2 -25 -11 -12 -11 -16 -1 -16 10 0 10 -3 0 -15 -8 -10 -9 -15 -2
-15 6 0 9 -7 6 -15 -4 -8 -9 -13 -13 -10 -4 2 -8 -2 -8 -10 0 -8 4 -12 9 -9 5
3 6 -7 4 -22 -3 -17 0 -31 7 -36 8 -5 7 -8 -5 -8 -15 0 -16 -4 -8 -26 12 -30
12 -37 3 -31 -5 3 -8 -8 -9 -24 -1 -15 3 -26 7 -23 5 3 9 0 9 -5 0 -6 -4 -11
-8 -11 -11 0 -9 -718 2 -745 6 -16 6 -17 -3 -5 -9 13 -11 13 -11 -2 0 -9 4
-28 10 -42 7 -18 6 -26 -1 -26 -8 0 -8 -4 -1 -13 7 -8 7 -18 2 -27 -5 -8 -5
-21 1 -31 6 -12 5 -20 -1 -24 -7 -5 -8 -11 -1 -19 5 -6 8 -24 7 -39 -2 -15 1
-27 7 -27 5 0 5 -5 -2 -13 -6 -8 -7 -17 -3 -21 4 -4 8 -33 9 -64 2 -31 3 -65
3 -75 1 -11 6 -15 13 -10 8 4 8 1 -1 -9 -9 -11 -10 -18 -2 -23 7 -4 7 -12 0
-24 -5 -10 -7 -21 -4 -23 11 -12 12 -48 1 -48 -9 0 -9 -2 -1 -8 6 -4 11 -27
11 -52 0 -24 5 -46 12 -48 8 -3 8 -9 1 -23 -6 -10 -7 -19 -2 -19 5 0 8 -10 7
-23 -1 -12 2 -30 7 -40 6 -12 5 -17 -4 -17 -10 0 -10 -2 1 -9 11 -7 11 -9 0
-14 -9 -4 -10 -6 -2 -6 7 -1 10 -8 7 -16 -4 -8 -2 -15 4 -15 11 0 11 -18 -1
-36 -3 -6 -3 -14 0 -18 8 -8 13 -28 18 -71 2 -16 4 -32 5 -35 1 -3 3 -18 4
-35 0 -16 4 -34 7 -40 3 -5 5 -17 4 -25 0 -8 4 -18 10 -22 6 -5 5 -8 -4 -8
-10 0 -11 -3 -2 -14 6 -8 11 -18 9 -22 -1 -5 2 -31 7 -59 5 -27 7 -54 6 -59
-1 -4 4 -15 11 -24 11 -13 11 -15 -2 -8 -8 4 -6 0 4 -8 11 -9 15 -16 10 -16
-12 0 -12 -29 -1 -46 3 -6 8 -25 9 -43 1 -17 6 -31 11 -31 5 0 4 -7 -3 -15 -7
-8 -8 -15 -3 -15 5 0 10 -14 11 -32 2 -18 8 -36 15 -40 9 -6 8 -8 -3 -8 -10 0
-11 -3 -4 -8 6 -4 11 -14 12 -22 0 -8 3 -26 7 -40 3 -14 7 -34 9 -45 1 -11 8
-19 15 -17 7 1 10 -2 6 -8 -3 -6 -10 -8 -15 -5 -4 3 -6 -4 -3 -15 3 -11 8 -18
12 -16 4 3 7 -4 7 -15 0 -10 -5 -19 -11 -19 -5 0 -2 -5 7 -11 11 -6 15 -16 11
-26 -4 -11 -2 -14 5 -9 8 4 10 -3 7 -24 -2 -16 1 -32 6 -36 5 -3 7 -10 4 -15
-4 -5 -3 -15 2 -21 9 -16 14 -37 14 -60 0 -10 4 -18 9 -18 5 0 7 -9 5 -20 -2
-11 1 -22 6 -25 5 -4 7 -11 4 -16 -4 -5 -1 -9 5 -9 8 0 7 -6 -1 -21 -6 -12 -7
-19 -1 -15 11 7 25 -21 16 -35 -3 -5 0 -9 6 -9 6 0 9 -4 6 -9 -3 -5 1 -25 9
-45 9 -20 13 -41 10 -46 -3 -4 1 -11 7 -13 10 -4 10 -6 0 -6 -10 -1 -9 -5 3
-17 9 -9 14 -24 13 -33 -2 -9 3 -22 12 -29 13 -11 13 -12 0 -6 -13 7 -13 5 -2
-9 8 -9 11 -21 7 -27 -3 -5 -1 -10 5 -10 6 0 8 -5 5 -10 -3 -6 -2 -10 3 -10 6
0 8 -10 4 -22 -3 -13 -1 -19 5 -15 7 5 9 0 6 -13 -3 -12 0 -20 6 -20 7 0 11
-6 10 -12 -3 -29 2 -49 11 -43 6 3 10 2 10 -4 0 -5 -5 -13 -12 -17 -8 -5 -6
-11 7 -20 9 -7 15 -19 12 -26 -2 -7 5 -24 17 -37 11 -13 15 -21 9 -17 -7 4
-13 2 -13 -3 0 -6 5 -11 11 -11 5 0 7 -4 4 -10 -3 -5 0 -10 7 -10 11 0 10 -2
0 -9 -11 -7 -11 -9 1 -14 9 -3 14 -16 13 -31 -2 -15 3 -27 11 -31 9 -3 13 -12
9 -20 -3 -9 1 -18 10 -22 13 -5 13 -7 2 -14 -11 -7 -11 -9 1 -9 7 0 11 -6 8
-14 -3 -8 -1 -16 4 -18 6 -2 12 -16 12 -31 1 -15 6 -27 10 -27 5 0 5 -4 2 -10
-3 -5 -2 -10 3 -10 6 0 13 -7 16 -16 4 -9 2 -13 -5 -8 -6 3 -4 -5 5 -18 9 -14
13 -28 9 -31 -3 -4 -1 -7 5 -7 6 0 9 -7 5 -17 -5 -12 -3 -14 7 -8 9 6 12 4 8
-6 -3 -8 0 -23 8 -33 7 -11 11 -23 8 -28 -3 -4 1 -11 9 -14 9 -3 14 -16 12
-30 -1 -16 3 -24 13 -24 11 0 12 -3 3 -14 -9 -11 -8 -15 4 -20 9 -3 13 -10 10
-16 -3 -5 -2 -10 4 -10 5 0 8 -9 6 -20 -2 -13 2 -20 11 -20 8 0 12 -4 9 -10
-3 -5 0 -22 8 -37 8 -16 20 -41 27 -58 7 -16 20 -43 28 -60 9 -16 16 -32 15
-35 -1 -3 3 -4 7 -3 5 2 7 -6 5 -17 -2 -11 1 -20 6 -20 6 0 7 -4 4 -10 -3 -5
-1 -10 5 -10 6 0 8 -5 4 -12 -4 -6 1 -17 11 -25 14 -10 15 -13 4 -14 -8 0 -6
-4 6 -9 11 -5 14 -9 7 -9 -8 -1 -6 -8 7 -23 11 -11 18 -25 15 -29 -6 -11 21
-51 29 -43 3 3 3 -4 0 -17 -5 -16 -3 -20 7 -14 8 5 11 3 8 -6 -3 -8 2 -20 11
-27 13 -11 13 -12 1 -7 -12 5 -12 4 1 -7 9 -7 14 -18 12 -25 -2 -6 4 -20 14
-30 10 -11 20 -28 21 -38 2 -11 8 -21 13 -23 5 -2 9 -13 9 -23 0 -13 4 -18 12
-13 8 5 9 0 6 -14 -4 -12 -2 -20 3 -16 8 5 13 -9 10 -29 0 -4 4 -7 10 -7 5 0
7 -5 4 -10 -3 -6 -1 -10 4 -10 6 0 11 -7 11 -15 0 -8 5 -15 11 -15 5 0 8 -4 4
-9 -3 -5 2 -16 10 -24 8 -9 15 -22 15 -31 0 -8 5 -18 10 -21 6 -4 7 -11 4 -17
-4 -6 -2 -8 3 -5 10 7 28 -20 25 -36 -1 -4 3 -7 9 -7 5 0 8 -4 4 -9 -3 -5 -1
-12 5 -16 6 -4 7 -11 4 -17 -4 -6 -3 -8 3 -5 5 3 20 -16 32 -43 13 -28 27 -50
32 -50 6 0 8 -4 4 -9 -3 -6 3 -14 12 -20 10 -6 12 -11 6 -11 -8 0 -5 -8 7 -20
11 -11 20 -26 20 -34 0 -8 7 -16 15 -20 8 -3 15 -9 14 -13 -4 -21 2 -33 17
-33 8 0 13 -4 9 -9 -3 -5 0 -15 7 -23 7 -7 14 -20 16 -27 2 -7 13 -22 25 -33
12 -11 16 -17 10 -13 -20 10 -15 -9 6 -25 11 -7 18 -17 15 -22 -3 -4 0 -8 7
-8 7 0 10 -3 6 -6 -3 -3 3 -15 14 -27 10 -11 19 -27 19 -34 0 -7 4 -13 10 -13
5 0 9 -6 7 -12 -1 -7 4 -12 11 -10 8 1 11 -2 8 -7 -4 -5 1 -16 9 -24 8 -9 15
-20 15 -26 0 -6 5 -11 10 -11 6 0 10 -7 10 -15 0 -8 5 -15 12 -15 6 0 8 -3 5
-6 -4 -4 2 -15 14 -25 14 -12 16 -18 7 -22 -8 -4 -7 -6 5 -6 9 -1 17 -8 17
-17 0 -9 5 -12 12 -8 6 4 8 3 4 -4 -3 -6 1 -18 10 -26 8 -9 12 -16 8 -16 -4 0
3 -8 14 -19 12 -10 19 -21 15 -25 -3 -3 -2 -6 4 -6 6 0 13 -9 16 -21 4 -13 10
-18 18 -13 7 4 10 3 5 -4 -3 -6 -2 -13 4 -17 6 -4 8 -11 5 -16 -4 -5 2 -9 11
-9 10 0 15 -3 11 -6 -3 -4 -1 -12 6 -20 30 -33 35 -42 30 -48 -4 -3 1 -6 9 -6
9 0 21 -13 28 -30 7 -16 17 -30 22 -30 5 0 6 -4 3 -10 -3 -5 -1 -10 5 -10 6 0
8 -4 5 -10 -3 -5 1 -10 9 -10 14 0 20 -12 17 -32 0 -5 6 -8 14 -8 8 0 15 -5
15 -10 0 -6 11 -23 24 -37 14 -15 23 -30 20 -34 -2 -4 5 -10 16 -14 11 -4 18
-11 15 -16 -4 -5 -1 -9 6 -9 7 0 9 -3 6 -7 -4 -3 2 -12 13 -20 11 -8 20 -20
20 -28 0 -7 9 -16 20 -20 11 -3 19 -9 19 -13 -3 -20 2 -32 11 -27 6 3 10 -1
10 -9 0 -9 9 -21 20 -28 11 -7 20 -17 20 -23 0 -5 12 -21 25 -34 14 -12 22
-28 18 -35 -3 -6 -3 -8 1 -5 8 8 56 -34 56 -48 0 -6 11 -18 25 -27 14 -9 25
-23 25 -31 0 -8 9 -19 20 -25 11 -6 18 -15 15 -20 -3 -5 3 -11 13 -14 10 -4
25 -18 32 -31 7 -14 17 -25 22 -25 4 0 8 -7 8 -16 0 -9 5 -12 12 -8 7 5 9 2 5
-9 -4 -11 -2 -14 9 -10 7 3 14 1 14 -5 0 -5 18 -28 40 -51 22 -22 40 -45 40
-50 0 -5 9 -13 21 -16 11 -4 18 -9 15 -12 -7 -7 20 -33 35 -33 7 0 10 -3 6 -6
-3 -4 10 -21 29 -39 18 -18 34 -37 34 -44 0 -6 4 -11 8 -11 5 0 17 -7 28 -16
10 -8 13 -12 5 -8 -9 5 -12 3 -7 -4 4 -7 14 -12 22 -12 8 0 12 -4 9 -10 -3 -5
1 -10 9 -10 8 0 18 -9 21 -20 4 -11 11 -18 16 -15 5 4 9 0 9 -7 0 -14 40 -44
53 -40 5 1 6 -2 2 -8 -3 -5 1 -13 9 -16 9 -3 16 -10 16 -16 0 -10 25 -38 34
-38 9 0 66 -62 66 -72 0 -5 4 -7 9 -3 6 3 15 -4 21 -16 7 -11 14 -18 17 -15 7
6 43 -32 43 -46 0 -4 7 -8 15 -8 8 0 15 -7 15 -16 0 -11 5 -14 17 -10 10 4 14
4 10 0 -9 -10 75 -84 87 -77 6 3 8 3 4 -1 -8 -9 23 -47 33 -40 4 2 10 -5 14
-16 3 -11 11 -20 16 -20 6 0 21 -11 35 -25 14 -14 29 -25 34 -25 6 0 10 -7 10
-15 0 -8 5 -15 11 -15 6 0 17 -7 26 -15 8 -8 19 -13 24 -9 5 3 8 0 7 -7 -2 -7
7 -18 19 -24 13 -7 20 -15 16 -18 -3 -4 1 -7 11 -7 9 0 14 -4 11 -10 -3 -5 0
-10 7 -10 8 0 20 -9 28 -19 7 -11 17 -18 22 -15 4 3 11 -2 14 -10 3 -9 13 -16
21 -16 8 0 11 -4 8 -10 -3 -5 -1 -10 4 -10 11 0 38 -20 76 -57 13 -12 26 -19
29 -16 3 3 8 -2 12 -11 3 -9 10 -14 14 -11 4 2 16 -7 26 -20 10 -14 25 -25 32
-25 7 0 15 -7 18 -15 4 -8 12 -15 20 -15 8 0 14 -4 14 -10 0 -5 6 -10 14 -10
8 0 16 -7 20 -15 3 -8 11 -15 18 -15 7 0 19 -9 26 -21 7 -12 16 -19 19 -16 5
6 17 -2 58 -41 14 -13 25 -19 25 -15 0 4 7 -1 16 -12 8 -11 17 -19 20 -17 6 3
64 -27 64 -34 0 -2 -10 0 -22 6 -22 11 -22 10 -4 -4 11 -9 28 -16 37 -16 10 0
21 -5 25 -12 5 -7 3 -8 -6 -3 -9 5 -11 4 -6 -4 4 -6 11 -9 16 -6 5 3 20 -6 34
-20 14 -14 26 -23 26 -20 0 4 13 -3 29 -14 15 -11 31 -17 35 -13 4 4 6 0 4 -8
-2 -8 4 -15 12 -15 8 0 18 -8 22 -17 4 -10 17 -18 28 -18 11 0 20 -5 20 -12 0
-6 3 -9 6 -5 3 3 17 -5 31 -19 13 -13 29 -22 34 -19 5 4 12 -1 15 -9 3 -9 12
-16 20 -16 8 0 14 -5 14 -11 0 -5 5 -7 10 -4 6 3 13 0 16 -9 3 -8 12 -12 20
-9 8 3 14 -1 14 -10 0 -11 7 -15 20 -12 11 2 18 0 15 -5 -3 -5 4 -14 15 -20
11 -6 20 -8 20 -5 0 3 10 -3 22 -15 12 -11 28 -20 35 -20 7 0 13 -5 13 -11 0
-5 5 -7 10 -4 6 3 13 0 16 -8 3 -9 16 -18 30 -21 13 -4 24 -11 24 -17 0 -6 4
-8 9 -5 5 3 14 -1 21 -9 7 -8 16 -15 21 -15 5 0 27 -11 50 -25 22 -14 44 -23
49 -20 6 4 10 -1 10 -9 0 -9 3 -15 8 -15 21 4 32 -2 26 -13 -5 -8 -2 -9 10 -5
10 4 19 1 22 -7 5 -13 36 -26 58 -25 5 1 13 -6 18 -15 5 -9 15 -16 22 -16 7 0
25 -9 40 -21 15 -11 33 -18 41 -15 9 3 15 0 15 -9 0 -8 9 -15 20 -15 11 0 20
-5 20 -11 0 -5 4 -7 10 -4 6 3 10 1 10 -5 0 -6 5 -8 10 -5 6 3 10 1 10 -5 0
-6 4 -8 10 -5 5 3 17 -3 26 -13 10 -12 24 -18 37 -14 14 3 18 1 13 -6 -5 -8 0
-12 13 -12 12 0 21 -5 21 -11 0 -6 7 -8 15 -5 9 3 18 -1 21 -9 4 -8 10 -12 15
-9 5 3 9 0 9 -7 0 -7 3 -10 6 -7 3 4 17 0 31 -7 15 -8 31 -11 36 -8 6 3 7 2 4
-4 -6 -9 80 -50 95 -46 5 2 8 -2 8 -8 0 -5 5 -7 10 -4 6 3 10 1 10 -5 0 -6 5
-8 10 -5 6 3 13 -1 16 -10 5 -13 9 -13 22 -3 9 7 13 8 9 2 -6 -10 58 -41 76
-36 4 1 7 -3 7 -8 0 -6 9 -10 21 -10 11 0 18 -4 15 -8 -2 -4 7 -9 22 -10 14
-1 28 -6 31 -11 3 -5 17 -11 31 -13 14 -2 24 -9 23 -15 -1 -6 6 -9 17 -6 12 3
20 0 20 -8 0 -7 3 -9 7 -6 3 4 13 1 21 -6 13 -10 14 -9 7 2 -9 16 8 8 38 -17
9 -8 17 -12 17 -8 0 5 16 -1 36 -13 19 -12 32 -15 28 -9 -4 7 2 4 14 -6 12
-11 22 -16 22 -13 0 3 16 -1 35 -9 19 -8 35 -11 35 -7 0 5 4 4 8 -2 4 -5 17
-16 30 -23 18 -10 22 -10 23 0 0 7 4 4 9 -7 5 -12 9 -14 9 -6 1 12 4 12 19 -1
29 -25 46 -33 37 -17 -8 12 -6 12 8 1 9 -8 21 -11 27 -7 5 3 10 0 10 -8 0 -8
9 -13 23 -12 12 1 32 -5 44 -12 12 -8 27 -12 33 -8 5 3 10 1 10 -4 0 -6 11
-11 24 -11 13 0 26 -4 28 -10 1 -5 18 -10 36 -12 18 -1 38 -8 43 -15 6 -6 17
-9 25 -6 8 3 14 -1 14 -8 0 -7 3 -9 7 -6 3 4 13 1 21 -6 13 -9 14 -9 8 0 -5 9
-2 11 8 7 9 -3 16 -11 16 -16 0 -7 4 -7 13 0 8 7 18 6 31 -4 10 -7 23 -11 27
-8 5 3 9 1 9 -3 0 -5 27 -15 60 -22 39 -9 57 -17 53 -25 -4 -6 1 -5 10 3 9 7
17 9 17 4 0 -5 6 -10 13 -11 21 -2 42 -7 53 -15 7 -4 28 -8 48 -9 20 -2 36 -6
36 -9 0 -4 7 -10 16 -13 10 -4 13 -2 8 7 -5 9 -4 9 6 0 7 -6 19 -9 26 -6 8 3
14 0 14 -7 0 -6 5 -8 10 -5 6 3 10 0 10 -7 0 -9 3 -9 10 2 5 8 10 10 10 3 0
-6 11 -10 25 -8 14 1 25 -1 25 -4 0 -3 11 -11 25 -18 14 -6 22 -7 19 -2 -7 12
30 6 48 -7 7 -6 23 -9 36 -8 12 0 22 -4 22 -10 0 -6 4 -5 9 2 7 11 9 11 14 -1
4 -10 17 -13 41 -12 20 2 36 -1 36 -7 0 -6 9 -8 20 -5 10 3 24 -1 31 -9 8 -10
16 -11 29 -4 13 7 21 7 25 0 3 -5 16 -10 29 -10 12 0 27 -5 34 -12 7 -7 12 -8
12 -2 0 5 9 10 19 10 11 0 17 -4 14 -10 -3 -5 6 -7 21 -4 14 3 30 0 34 -6 9
-15 42 -17 42 -2 0 8 3 7 8 -1 4 -7 27 -15 52 -18 24 -3 46 -7 48 -10 3 -3 11
0 18 6 8 7 14 6 20 -2 5 -8 3 -9 -6 -4 -8 5 -11 4 -7 -1 3 -6 21 -9 39 -9 18
1 36 -4 40 -9 5 -7 8 -5 8 4 0 13 2 13 9 1 8 -12 12 -12 24 -2 12 9 17 9 23 0
5 -8 3 -9 -6 -4 -8 5 -11 4 -7 -2 4 -6 25 -10 47 -9 22 1 40 -3 40 -8 0 -6 5
-4 10 4 5 8 10 10 10 3 0 -6 13 -10 30 -9 21 2 30 -2 30 -13 0 -13 2 -13 9 -3
9 15 20 15 36 2 6 -5 17 -5 25 0 10 6 21 4 32 -7 15 -13 18 -13 18 -2 0 11 2
11 10 -1 8 -12 10 -12 10 5 1 18 2 18 10 3 6 -10 18 -14 30 -11 12 3 20 0 20
-7 0 -9 3 -10 13 -1 8 6 17 8 20 5 3 -3 22 -7 41 -9 19 -1 43 -8 53 -16 11 -9
14 -10 9 -1 -5 8 -1 12 13 12 11 0 23 -5 26 -10 5 -8 11 -7 21 1 10 8 14 8 14
0 0 -7 8 -8 24 -1 19 7 26 5 30 -7 5 -13 9 -13 23 -2 9 8 19 12 22 11 31 -18
39 -20 51 -9 10 9 11 9 6 0 -5 -8 -1 -13 9 -13 10 0 13 4 8 13 -4 6 6 4 21 -7
16 -10 25 -13 22 -7 -4 6 -2 11 3 11 6 0 11 -6 11 -12 0 -8 3 -9 8 -3 9 13 32
18 32 7 0 -5 7 -9 15 -9 8 0 15 5 15 11 0 6 4 5 9 -3 8 -13 12 -13 27 0 12 9
15 10 10 1 -6 -9 0 -11 24 -7 19 3 29 2 25 -4 -6 -10 33 -7 43 4 3 2 11 0 19
-6 9 -9 13 -8 13 0 0 6 5 11 11 11 5 0 8 -4 5 -8 -3 -5 170 -8 385 -9 276 0
389 3 389 11 0 7 3 7 8 1 8 -12 46 -20 39 -8 -3 4 18 6 45 4 40 -2 49 0 42 10
-6 11 -5 11 9 0 10 -8 20 -11 24 -8 3 4 13 1 21 -6 13 -10 14 -9 7 2 -6 11 -4
13 7 8 9 -3 21 0 27 6 8 8 11 8 11 -2 0 -7 5 -9 13 -4 20 13 49 14 62 3 9 -7
15 -8 19 -1 4 6 14 7 23 4 12 -5 14 -3 8 8 -8 12 -6 12 8 0 14 -11 17 -11 17
0 0 11 2 11 10 -1 8 -12 10 -12 10 -1 0 8 3 11 7 8 3 -4 12 -2 19 4 8 7 14 7
19 -1 5 -8 11 -8 21 1 8 6 14 7 14 2 0 -10 40 -10 56 0 5 3 22 4 37 3 15 -2
27 0 27 4 0 3 16 6 35 5 20 -1 35 3 35 9 0 6 5 4 10 -4 5 -8 10 -10 10 -4 0 5
15 9 33 8 47 -4 88 6 80 20 -4 6 2 4 12 -4 14 -12 19 -12 23 -2 3 10 7 10 18
1 9 -7 14 -8 14 -1 0 6 11 9 25 6 16 -3 25 0 25 8 0 9 3 8 10 -2 7 -12 10 -12
10 -1 0 7 6 11 14 8 7 -3 19 0 26 6 10 9 11 9 6 -1 -8 -13 10 -17 18 -4 3 5
23 8 45 7 22 -1 38 2 36 6 -8 12 18 17 37 8 10 -5 19 -5 23 0 3 5 17 8 31 5
14 -3 23 -1 21 4 -3 4 6 8 21 9 15 0 45 4 67 8 22 4 48 7 58 7 9 -1 17 2 17 6
0 7 34 12 88 15 12 1 22 4 22 8 0 9 21 6 39 -5 10 -6 12 -5 7 2 -4 7 -1 12 8
12 9 0 16 6 16 13 0 9 3 8 9 -2 6 -10 10 -10 16 -1 6 9 10 9 16 -1 6 -10 9
-11 9 -1 0 7 13 12 29 12 17 0 32 4 35 8 3 5 19 8 36 7 16 -1 30 2 30 7 0 5 4
7 9 3 5 -3 12 -1 16 5 4 7 13 6 27 -1 16 -9 19 -8 13 2 -6 9 -4 11 8 6 8 -3
18 0 20 7 4 9 17 12 37 10 18 -2 29 0 25 6 -3 6 1 7 10 4 8 -4 21 -2 28 3 6 5
24 9 39 8 15 0 24 3 22 7 -4 7 18 10 42 7 4 0 11 5 15 13 7 10 9 10 9 1 0 -7
5 -13 11 -13 5 0 8 4 5 9 -3 5 3 11 14 14 11 3 20 0 20 -6 0 -8 4 -7 9 2 5 7
13 11 19 7 5 -3 13 1 16 9 4 10 14 14 31 11 14 -3 25 -1 25 4 0 5 7 7 15 4 8
-4 15 -1 15 4 0 6 12 10 28 9 17 -1 26 3 25 10 -3 15 18 13 29 -2 5 -6 8 -5 8
2 0 7 7 10 17 6 10 -4 14 -2 10 4 -9 15 29 23 44 9 9 -8 10 -8 5 2 -5 8 0 12
14 12 12 0 19 4 16 9 -3 4 6 6 21 3 18 -3 24 -1 19 6 -5 8 -1 10 9 6 8 -4 21
-1 29 5 8 6 27 13 44 14 16 1 28 5 25 10 -2 4 7 7 20 7 13 0 27 3 31 7 4 4 19
9 34 11 15 2 28 7 30 13 2 5 15 9 28 9 14 0 23 4 20 9 -4 5 3 7 14 4 12 -3 20
0 20 7 0 10 3 10 16 0 12 -11 15 -11 12 -1 -3 12 15 20 50 23 6 1 12 5 12 10
0 4 9 8 20 8 11 0 20 6 20 13 0 8 4 7 10 -3 8 -12 10 -12 10 -1 0 9 7 11 21 8
12 -3 22 0 25 8 3 7 16 12 29 10 14 -1 22 1 20 5 -3 4 3 14 12 21 12 10 14 10
9 2 -4 -7 -2 -13 3 -13 6 0 11 5 11 11 0 5 5 7 10 4 6 -3 10 -1 10 4 0 6 3 10
8 9 12 -5 96 26 110 39 8 7 17 11 22 8 5 -3 11 -1 15 5 4 6 11 8 16 5 5 -4 9
-1 9 5 0 7 7 10 15 6 8 -3 15 -1 15 5 0 6 7 8 16 5 8 -3 12 -2 9 4 -3 6 3 10
14 10 12 0 21 5 21 11 0 5 5 7 11 3 6 -3 14 -3 18 2 9 13 54 37 47 26 -3 -6 5
-5 19 1 14 7 25 15 25 20 0 4 9 7 19 7 11 0 23 5 26 10 4 6 11 8 16 5 5 -4 9
1 9 11 0 13 3 14 15 4 12 -10 16 -9 21 4 3 9 10 14 14 11 5 -3 11 -1 15 5 4 6
10 8 15 5 4 -3 13 2 20 10 7 8 20 15 30 15 10 0 21 7 24 16 5 14 9 14 23 3 9
-8 14 -9 10 -3 -6 11 26 28 46 25 4 -1 7 3 7 8 0 5 11 12 25 15 14 4 25 11 25
17 0 6 4 8 9 4 14 -8 73 30 63 41 -4 4 1 2 11 -5 10 -8 17 -9 17 -3 0 6 23 21
50 34 28 13 50 27 50 31 0 5 5 5 10 2 6 -3 10 -1 10 4 0 6 12 11 26 11 14 0
23 4 20 9 -5 8 29 25 47 22 4 -1 7 4 7 10 0 5 5 7 10 4 6 -3 10 -1 10 5 0 6 4
9 9 6 5 -3 11 1 15 9 3 8 15 15 26 15 11 0 20 5 20 11 0 5 5 7 10 4 6 -3 10
-1 10 5 0 6 5 8 10 5 6 -3 10 -1 10 5 0 6 5 8 10 5 6 -3 10 -2 10 4 0 6 11 13
25 17 14 3 22 11 19 16 -4 6 -1 9 7 6 8 -3 20 2 27 11 8 9 11 10 7 4 -4 -8 -1
-11 9 -7 9 3 15 9 14 12 -2 20 3 25 12 12 8 -13 10 -12 10 3 0 10 5 15 10 12
6 -3 10 -1 10 4 0 6 6 11 14 11 8 0 21 6 28 13 7 7 15 13 18 13 10 0 70 39 70
46 0 4 7 4 17 1 10 -4 14 -2 10 4 -4 6 0 14 9 17 10 4 13 2 8 -7 -4 -6 3 -2
14 10 12 12 30 24 42 28 11 3 20 11 20 16 0 5 7 9 15 9 8 0 15 4 15 10 0 5 6
9 13 7 6 -1 11 3 10 9 -1 7 5 11 15 10 9 0 16 4 15 11 -2 7 4 10 12 7 8 -4 17
1 21 10 3 9 10 14 14 11 5 -3 13 2 18 11 5 9 11 15 13 13 6 -4 93 52 97 63 2
4 8 6 13 2 5 -3 9 0 9 5 0 6 7 11 16 11 8 0 12 5 9 10 -3 6 0 10 7 10 14 0 44
20 78 52 10 9 20 14 23 12 2 -2 10 2 17 11 7 8 18 15 25 15 7 0 16 7 19 16 4
9 9 14 12 11 3 -3 19 7 34 23 15 16 30 27 33 24 2 -3 18 8 35 24 17 16 33 28
35 26 2 -2 18 9 37 26 18 16 37 27 43 23 6 -3 7 -1 3 5 -4 7 3 16 17 21 14 6
28 15 33 22 5 8 3 9 -6 4 -9 -6 -11 -4 -6 4 5 7 10 10 13 7 9 -9 44 14 38 25
-4 5 -3 8 2 7 14 -4 79 42 137 99 13 13 28 23 35 23 6 0 11 7 11 16 0 8 5 12
10 9 6 -3 10 -1 10 6 0 7 3 10 6 7 7 -8 51 35 46 45 -2 4 0 7 5 6 21 -4 33 2
33 17 0 8 4 13 8 10 5 -3 15 4 22 15 8 10 19 19 25 19 6 0 16 9 23 20 7 12 18
18 25 14 7 -4 9 -4 5 0 -8 10 22 46 39 46 7 0 13 7 13 16 0 8 5 12 10 9 6 -3
10 -1 10 5 0 6 4 9 9 5 5 -3 12 3 16 14 3 11 13 25 23 33 16 12 16 11 2 -7 -8
-11 9 4 38 32 29 29 57 53 63 53 6 0 8 4 5 8 -3 5 6 15 19 22 14 7 25 17 25
22 0 5 4 6 10 3 6 -3 7 1 4 9 -4 10 -1 16 10 16 8 0 20 9 26 20 6 11 15 18 21
15 5 -4 9 1 9 9 0 9 7 16 17 16 9 0 14 3 10 6 -8 8 16 33 26 27 4 -2 7 1 7 6
0 14 43 57 52 54 5 -2 8 4 8 12 0 8 5 15 11 15 7 0 22 11 35 25 13 14 21 25
18 25 -3 0 1 6 8 14 7 8 16 12 21 9 4 -2 7 3 7 11 0 9 7 16 16 16 8 0 13 4 9
9 -3 5 4 12 15 16 11 4 18 11 15 16 -4 5 1 9 10 9 9 0 13 5 10 10 -3 6 -1 10
5 10 6 0 8 5 5 10 -4 6 -1 9 7 8 7 -2 12 3 10 11 -2 8 3 11 13 8 10 -4 15 0
15 12 0 10 11 24 25 31 14 7 23 15 21 17 -2 3 22 31 55 64 32 32 56 59 53 59
-2 0 1 6 8 14 7 8 16 12 21 9 7 -4 10 10 5 23 -2 3 8 12 22 19 14 8 22 14 18
15 -4 0 11 18 32 40 22 23 40 45 40 51 0 6 5 7 10 4 6 -3 10 1 10 9 0 9 5 16
11 16 5 0 7 5 4 10 -3 6 1 10 10 10 9 0 14 4 11 9 -3 5 5 16 19 25 14 9 25 23
25 31 0 8 7 15 16 15 8 0 12 5 9 10 -3 6 -1 10 6 10 7 0 10 3 6 6 -3 4 9 21
28 39 19 17 32 35 28 39 -3 3 -1 6 5 6 7 0 12 7 12 16 0 8 5 12 10 9 6 -3 10
-2 10 3 0 8 13 25 65 85 8 9 12 17 9 17 -4 0 5 11 20 25 15 14 23 25 19 25 -4
0 0 7 10 14 10 8 18 18 19 23 0 4 5 7 11 5 7 -2 9 0 5 3 -4 4 9 27 29 51 19
24 31 44 27 44 -5 0 -1 5 9 11 9 6 15 14 12 20 -4 5 2 9 11 9 10 0 15 3 11 6
-3 4 -1 12 6 20 30 34 37 44 30 44 -4 0 0 5 10 11 10 6 22 22 28 35 5 14 13
22 19 19 5 -3 7 0 4 9 -3 8 4 23 15 33 12 9 21 21 21 26 0 5 7 15 15 24 8 8
12 19 9 25 -4 6 -3 9 2 6 5 -3 22 12 37 34 16 22 22 37 15 33 -7 -4 -6 -1 2 7
29 26 56 62 40 54 -8 -4 -5 1 7 12 12 11 19 22 16 26 -4 3 -1 6 6 6 7 0 10 4
7 9 -3 5 1 12 10 15 8 3 12 10 9 16 -3 5 2 10 12 10 14 0 15 2 5 9 -11 7 -10
9 3 15 9 3 13 10 10 16 -3 6 1 13 9 16 9 3 14 10 11 14 -3 4 2 11 11 14 8 3
12 10 9 16 -3 5 -2 10 3 10 5 0 15 12 22 27 8 16 23 40 33 55 10 16 15 33 12
38 -4 6 -2 9 3 8 6 -2 10 1 10 6 0 5 7 13 16 18 9 5 14 13 11 19 -4 5 -1 9 5
9 6 0 8 5 5 10 -3 6 1 13 9 16 9 3 13 10 10 15 -3 5 0 9 6 9 6 0 9 4 6 9 -3 5
1 12 10 15 8 3 13 10 10 15 -4 5 1 16 10 25 8 9 13 20 10 24 -3 5 4 14 14 22
10 8 17 17 14 22 -3 4 0 8 5 8 6 0 11 9 11 19 0 10 7 21 15 25 8 3 15 14 15
25 0 11 6 26 13 33 6 7 13 20 15 28 2 8 8 16 13 18 5 2 9 10 9 19 0 8 9 26 20
40 11 14 17 29 14 34 -3 5 2 12 10 15 9 3 16 15 16 25 0 10 5 19 10 19 6 0 10
9 10 21 0 13 4 18 12 13 7 -4 8 -3 4 5 -4 6 0 18 9 27 9 9 14 23 11 30 -3 8
-1 14 5 14 6 0 7 5 4 10 -3 6 -2 10 3 10 4 0 14 16 22 35 8 19 17 35 22 35 4
0 8 9 8 19 0 11 7 27 16 35 8 9 13 16 10 16 -3 0 3 16 14 36 12 21 15 33 8 29
-7 -4 -6 -1 3 7 9 7 14 19 11 27 -3 8 0 11 7 7 10 -7 16 7 11 29 -1 5 7 15 16
22 13 9 14 13 4 13 -9 0 -8 5 6 16 10 8 12 13 4 9 -10 -4 -9 -2 3 8 20 16 23
31 5 22 -7 -4 -5 0 4 8 10 8 15 17 11 20 -3 4 -1 7 6 7 7 0 10 4 6 9 -3 5 2
17 11 25 11 11 12 16 3 16 -7 0 -5 6 6 13 10 8 15 19 11 25 -4 7 -2 12 4 12 6
0 8 5 5 10 -3 6 -1 10 5 10 7 0 9 7 6 16 -3 9 -2 12 5 9 6 -4 9 -1 8 6 -2 8 5
29 15 47 9 19 15 36 12 39 -3 4 2 12 12 19 13 10 14 13 3 14 -11 0 -9 4 5 15
10 8 16 15 12 15 -4 0 -1 12 7 27 8 15 12 30 9 35 -3 4 0 8 5 8 6 0 11 11 11
24 0 13 7 29 15 36 8 7 13 16 10 20 -3 4 2 20 10 36 7 15 12 31 9 36 -3 4 0 8
6 8 7 0 10 7 6 15 -3 8 -1 15 4 15 6 0 10 9 10 20 0 11 4 20 9 20 4 0 7 11 6
25 -2 14 1 23 6 19 5 -3 10 2 10 10 2 20 4 26 13 48 5 10 9 29 10 42 0 13 5
22 10 18 5 -3 7 2 3 11 -4 10 -2 17 4 17 6 0 9 7 6 15 -4 8 -1 17 5 21 7 5 8
2 3 -6 -5 -8 -4 -11 2 -7 6 4 9 20 8 37 -1 16 1 30 6 30 5 0 8 3 8 8 -3 17 14
72 23 72 5 0 6 5 3 10 -4 6 -1 17 5 25 10 12 10 15 -1 15 -9 1 -8 5 5 15 11 8
16 15 12 15 -5 0 -3 6 3 14 9 11 9 15 -1 19 -11 4 -10 6 0 6 7 1 10 6 7 11 -3
6 -2 10 4 10 5 0 8 9 6 20 -2 11 3 27 11 35 12 11 12 15 2 15 -9 1 -8 4 3 10
10 6 15 20 14 35 -2 14 0 25 5 25 4 0 6 11 5 25 -2 14 1 23 6 19 10 -6 10 -5
12 44 1 18 9 37 17 42 13 9 13 10 0 10 -10 0 -11 3 -4 8 6 4 10 15 8 25 -1 9
1 17 6 17 4 0 8 12 8 26 0 15 6 30 13 35 12 7 12 9 0 9 -10 0 -11 3 -3 13 6 7
12 24 14 37 2 14 7 31 12 39 6 10 5 12 -2 7 -8 -5 -10 -2 -6 8 3 9 11 16 18
16 6 0 4 5 -4 10 -9 6 -10 10 -3 10 6 0 12 8 12 18 2 43 6 62 12 62 4 0 6 11
4 25 -1 14 1 25 6 25 5 0 5 7 2 17 -4 11 -3 14 5 9 7 -4 12 -2 12 3 0 6 -6 11
-12 11 -8 0 -9 3 -3 8 11 8 16 23 21 69 1 18 8 42 14 54 10 17 9 20 -2 13 -10
-6 -11 -5 -1 7 10 12 10 18 0 28 -9 10 -9 12 2 9 10 -2 15 7 16 29 0 18 4 35
8 39 4 4 2 13 -5 21 -6 8 -7 13 -2 12 20 -4 24 2 14 20 -7 14 -7 22 2 27 7 5
8 3 3 -6 -5 -9 -4 -11 3 -6 9 5 9 13 2 26 -6 11 -6 21 -1 24 5 4 8 17 6 31 -1
14 3 25 9 25 6 0 5 4 -2 9 -11 7 -11 9 0 13 8 4 13 22 13 52 -1 35 3 46 15 46
11 0 12 2 3 8 -13 8 -11 41 3 64 5 7 3 8 -5 3 -10 -6 -11 -3 -1 14 9 17 9 26
-1 37 -10 12 -9 13 4 8 13 -5 16 0 12 25 -2 17 0 31 5 31 11 0 7 33 -5 42 -6
5 -5 8 2 8 7 0 10 7 7 15 -4 8 0 23 7 32 8 9 9 14 3 10 -6 -3 -11 0 -11 8 0 8
4 12 8 9 4 -2 10 0 14 6 3 5 1 10 -6 10 -10 0 -10 3 -1 12 7 7 8 17 1 30 -5
10 -6 18 -1 18 5 0 8 18 7 40 -1 22 0 38 4 36 3 -2 7 17 8 42 2 44 12 202 15
230 1 6 6 12 12 12 6 0 3 7 -7 14 -15 12 -15 15 -2 26 10 9 12 17 5 30 -5 9
-6 20 -3 24 11 11 12 66 2 66 -6 0 -4 7 5 15 11 12 13 22 6 40 -7 17 -6 25 1
25 8 0 8 4 0 13 -6 8 -8 16 -5 19 2 3 7 18 10 33 3 20 1 25 -8 19 -10 -6 -9
-3 1 9 11 14 11 20 0 34 -8 10 -9 14 -2 10 9 -6 11 79 11 358 -1 201 -5 360
-9 353 -6 -9 -9 -9 -9 -1 0 6 5 15 10 18 8 5 7 11 -1 21 -8 10 -8 14 0 14 6 0
11 5 11 11 0 5 -4 8 -9 4 -6 -3 -6 6 -1 24 5 19 4 33 -3 40 -6 6 -7 11 -3 11
5 0 2 8 -5 17 -12 15 -12 16 5 10 16 -6 17 -5 6 8 -7 8 -9 15 -5 15 4 0 2 6
-4 13 -6 8 -8 16 -5 20 10 9 12 57 2 63 -4 3 -6 10 -3 15 4 5 3 15 -1 21 -11
18 -12 48 -2 48 4 0 8 5 8 11 0 5 -5 7 -10 4 -7 -4 -9 5 -5 25 4 20 2 29 -5
25 -7 -4 -7 2 0 19 5 14 6 28 1 30 -10 6 -8 37 4 55 5 9 4 12 -2 8 -6 -4 -11
5 -11 21 -1 15 -3 36 -6 47 -2 11 1 26 7 33 6 7 6 12 1 11 -21 -4 -26 2 -14
16 9 11 9 15 1 15 -8 0 -9 6 -3 18 10 18 5 45 -6 38 -4 -2 -6 20 -6 50 1 30
-2 54 -6 54 -4 0 -6 22 -6 49 1 40 -1 48 -14 43 -12 -5 -13 -3 -3 9 10 12 10
18 0 29 -10 10 -9 11 1 5 11 -6 12 -3 4 11 -5 11 -8 27 -7 37 2 9 0 17 -3 17
-4 0 -7 15 -6 33 0 17 -4 38 -9 45 -6 8 -5 12 4 12 10 0 11 3 3 8 -7 4 -13 23
-15 42 -2 19 -8 41 -13 49 -9 12 -8 13 3 6 11 -6 12 -5 5 6 -9 15 -11 25 -17
74 -2 17 -9 40 -15 52 -11 20 -10 22 5 16 14 -5 12 0 -7 27 -13 18 -19 30 -12
26 13 -8 17 6 5 18 -4 4 -9 17 -10 29 -6 47 -9 63 -15 72 -3 6 -5 22 -4 37 1
14 -3 24 -8 21 -5 -4 -7 1 -3 10 3 10 2 17 -3 17 -6 0 -10 5 -10 11 0 5 6 7
13 3 8 -6 8 -3 -1 9 -8 9 -11 21 -7 27 3 5 -2 10 -12 11 -11 0 -13 3 -5 6 10
4 10 8 1 19 -9 11 -8 14 2 14 10 0 10 3 1 12 -7 7 -12 20 -12 31 0 12 -4 16
-12 11 -9 -5 -9 -2 1 9 11 13 11 17 1 17 -8 0 -10 3 -7 7 4 3 2 12 -4 20 -9
10 -8 13 1 13 9 0 8 6 -4 19 -13 14 -14 21 -6 26 9 5 9 9 1 14 -6 4 -12 19
-13 34 -1 15 -5 27 -9 27 -4 0 -6 8 -4 18 1 9 -4 29 -11 43 -10 20 -10 29 -1
39 9 10 9 11 0 6 -6 -3 -14 -2 -18 4 -3 5 0 10 7 10 9 1 7 5 -4 14 -10 7 -15
16 -11 19 3 4 -2 18 -12 33 -9 15 -12 23 -6 20 17 -11 13 10 -4 24 -11 9 -12
16 -5 25 7 9 6 16 -3 24 -8 6 -14 25 -15 42 0 18 -6 35 -13 39 -6 4 -9 14 -7
21 3 8 -2 23 -11 33 -13 16 -13 18 -1 11 13 -8 13 -6 2 8 -8 9 -11 21 -7 27 3
5 0 13 -8 16 -7 2 -14 10 -14 17 -3 46 -12 82 -21 85 -6 2 -9 9 -6 17 3 7 1
16 -5 20 -6 3 -11 16 -11 29 0 28 -22 76 -35 76 -5 0 -3 5 5 10 11 7 11 10 2
10 -7 0 -10 5 -7 10 3 6 1 10 -4 10 -6 0 -11 5 -11 11 0 5 5 7 12 3 7 -4 2 6
-10 23 -16 23 -19 33 -10 36 8 4 7 6 -4 6 -11 1 -16 8 -13 21 2 11 -1 20 -6
20 -6 0 -8 4 -4 9 3 5 0 13 -6 16 -5 4 -8 13 -5 21 3 8 1 14 -5 14 -6 0 -7 5
-4 10 3 6 1 10 -5 10 -7 0 -10 7 -6 15 3 10 -1 15 -12 16 -10 0 -12 3 -4 6 6
2 12 9 12 14 0 6 -4 7 -10 4 -6 -3 -10 5 -10 19 0 14 -5 28 -10 31 -6 4 -8 10
-5 15 3 5 1 11 -5 15 -6 4 -8 11 -5 16 4 5 1 9 -4 9 -6 0 -11 9 -11 21 0 11
-4 17 -10 14 -5 -3 -7 0 -4 8 3 8 1 18 -5 21 -6 4 -7 14 -4 23 4 11 3 14 -5 9
-8 -5 -12 1 -12 18 0 14 -4 26 -8 26 -4 0 -8 10 -9 22 -1 11 -7 24 -13 28 -7
4 -11 10 -11 14 1 3 0 8 0 11 -1 3 -2 11 -3 18 -1 6 -8 11 -16 9 -11 -3 -11 0
0 12 11 15 7 20 -12 17 -4 0 -4 7 -1 16 4 9 2 14 -4 10 -5 -3 -9 4 -9 16 1 14
-4 21 -13 19 -11 -2 -12 0 -2 11 9 12 8 16 -4 21 -8 3 -15 17 -15 31 0 14 -5
25 -11 25 -6 0 -8 9 -4 20 4 12 2 19 -3 18 -6 -2 -11 2 -12 7 -1 6 -9 19 -18
29 -9 11 -11 16 -4 12 6 -4 12 -2 12 3 0 6 -8 11 -17 11 -14 0 -15 2 -5 9 11
6 10 10 -3 15 -10 3 -15 12 -11 21 3 8 2 15 -3 15 -7 0 -45 74 -46 90 -2 19
-18 50 -26 50 -5 0 -9 7 -9 16 0 8 -7 22 -16 31 -8 9 -13 22 -10 29 3 8 -3 19
-13 26 -11 6 -17 18 -14 25 3 7 -1 13 -8 13 -7 0 -10 3 -6 6 3 4 -1 13 -9 21
-8 8 -12 19 -9 24 4 5 1 9 -4 9 -6 0 -11 7 -11 16 0 9 -5 12 -12 8 -8 -5 -9
-2 -5 9 4 10 0 20 -11 26 -12 7 -13 10 -3 11 8 0 4 8 -10 21 -13 11 -18 17
-11 14 11 -6 11 -3 0 14 -7 12 -16 21 -21 21 -4 0 -6 4 -2 9 3 5 -2 16 -10 24
-8 9 -15 20 -15 26 0 6 -4 11 -10 11 -5 0 -7 7 -4 15 4 8 1 15 -7 15 -7 0 -9
3 -6 6 4 4 -2 14 -12 23 -10 9 -17 24 -15 34 1 9 -7 24 -19 32 -12 8 -18 15
-14 15 5 0 1 7 -7 16 -9 8 -14 19 -12 23 3 4 -4 13 -14 21 -10 8 -17 17 -14
22 3 4 0 8 -6 8 -6 0 -9 4 -5 9 3 5 -2 16 -10 24 -8 9 -15 20 -15 26 0 6 -5
11 -11 11 -5 0 -8 4 -5 9 3 5 -1 12 -10 15 -8 3 -12 10 -9 16 3 5 1 10 -4 10
-6 0 -11 9 -11 21 0 11 -4 17 -10 14 -5 -3 -10 1 -10 9 0 9 -5 16 -10 16 -6 0
-9 3 -8 8 3 16 -15 42 -25 35 -6 -4 -8 0 -4 10 3 10 2 17 -3 17 -6 0 -10 6
-10 13 0 8 -9 22 -20 32 -11 10 -20 24 -20 31 0 7 -4 14 -9 16 -5 2 -11 10
-13 18 -2 8 -11 22 -20 31 -10 9 -15 19 -11 23 3 3 -1 6 -10 6 -10 0 -14 5
-11 15 4 8 -1 17 -10 21 -9 3 -16 12 -16 20 0 7 -10 20 -22 28 -12 9 -17 16
-10 16 7 0 4 8 -8 20 -11 11 -20 25 -20 30 0 6 -6 10 -14 10 -8 0 -17 7 -20
16 -6 14 -4 15 11 4 10 -7 6 -1 -9 13 -15 14 -24 28 -21 31 4 3 1 6 -6 6 -7 0
-10 4 -6 9 3 6 -4 15 -15 21 -11 6 -20 17 -20 25 0 8 -4 15 -10 15 -5 0 -10 7
-10 15 0 8 -4 15 -10 15 -5 0 -10 7 -10 16 0 8 -4 12 -10 9 -5 -3 -10 1 -10 9
0 9 -5 16 -11 16 -5 0 -7 5 -4 10 3 6 -2 10 -12 11 -10 0 -13 3 -6 5 7 3 4 13
-10 28 -63 68 -82 95 -79 106 3 7 0 10 -6 6 -6 -3 -13 3 -17 14 -3 11 -11 20
-16 20 -6 0 -7 5 -4 10 3 6 -1 10 -10 10 -9 0 -14 4 -10 9 3 6 -4 15 -15 21
-11 6 -20 16 -20 22 0 6 -8 17 -17 25 -11 9 -12 12 -3 7 9 -4 7 2 -5 13 -11
11 -23 19 -27 16 -5 -2 -8 5 -8 17 0 12 -4 18 -10 15 -5 -3 -10 3 -10 15 0 12
-4 19 -8 16 -5 -3 -15 6 -22 19 -7 14 -17 25 -22 25 -5 0 -6 5 -3 10 4 6 3 10
-2 9 -21 -4 -33 2 -33 16 0 8 -16 29 -35 46 -19 18 -35 38 -35 46 0 7 -5 13
-11 13 -5 0 -7 5 -4 10 3 6 -1 10 -9 10 -9 0 -16 7 -16 17 0 9 -3 14 -6 10 -7
-7 -34 17 -34 30 0 4 -16 23 -35 42 -19 18 -32 39 -28 45 3 6 3 8 -1 4 -9 -8
-56 36 -56 52 0 6 -3 9 -7 7 -5 -2 -18 7 -30 19 -14 15 -17 25 -10 28 7 2 2 5
-11 5 -13 1 -20 5 -17 11 3 6 1 10 -5 10 -6 0 -8 5 -4 12 4 6 3 8 -3 5 -11 -7
-45 28 -36 37 4 3 -1 6 -9 6 -9 0 -25 15 -37 33 -11 17 -21 28 -21 23 0 -10
-69 66 -70 77 0 4 -6 7 -14 7 -8 0 -18 9 -21 21 -4 11 -9 18 -12 16 -6 -6 -53
41 -53 53 0 6 -7 10 -16 10 -8 0 -12 5 -9 10 3 6 1 10 -6 10 -14 0 -69 55 -69
70 0 9 -14 14 -32 11 -5 0 -8 5 -8 11 -1 7 -18 27 -39 43 -21 17 -37 33 -34
38 2 4 -2 7 -10 7 -17 0 -58 46 -49 56 4 4 2 4 -4 1 -6 -4 -30 11 -52 32 -22
22 -43 36 -46 33 -3 -3 -6 3 -6 13 0 10 -2 16 -6 13 -3 -3 -25 14 -49 37 -24
24 -53 46 -64 50 -12 3 -21 13 -21 21 0 8 -4 14 -10 14 -5 0 -21 11 -35 25
-14 14 -25 23 -25 20 0 -3 -13 8 -30 25 -16 17 -30 28 -30 24 0 -4 -8 2 -17
13 -10 11 -28 25 -41 32 -12 7 -20 16 -17 22 4 5 -3 9 -14 9 -11 0 -25 9 -31
20 -6 11 -15 18 -21 15 -5 -4 -9 2 -9 11 0 10 -3 15 -6 11 -3 -3 -18 5 -32 19
-15 13 -33 24 -40 24 -7 0 -11 3 -9 8 3 4 -7 16 -21 26 -16 12 -23 14 -18 5 4
-8 1 -6 -7 3 -8 10 -18 14 -22 10 -5 -4 -5 -2 -1 5 7 13 -27 37 -38 26 -3 -3
-6 2 -6 12 0 10 -3 16 -6 12 -6 -6 -17 1 -55 36 -10 9 -23 17 -27 17 -4 0 -14
9 -22 20 -10 14 -16 16 -22 7 -5 -8 -8 -7 -8 6 0 15 -11 22 -32 18 -5 0 -8 6
-8 15 0 8 -4 12 -10 9 -5 -3 -10 -1 -10 5 0 6 -4 8 -10 5 -5 -3 -10 2 -10 12
0 15 -2 16 -10 3 -8 -13 -10 -12 -10 3 0 9 -7 17 -16 17 -8 0 -12 5 -9 10 3 6
-3 10 -14 10 -12 0 -21 4 -21 8 0 5 -12 15 -27 23 -16 8 -37 22 -47 32 -11 9
-24 17 -28 17 -5 0 -18 9 -30 20 -12 11 -28 20 -35 20 -7 0 -13 5 -13 10 0 6
-6 10 -13 10 -8 0 -22 9 -32 20 -10 11 -24 20 -32 20 -8 0 -11 5 -7 12 4 6 3
8 -4 4 -6 -3 -18 1 -26 10 -9 8 -16 13 -16 9 0 -4 -7 1 -16 9 -8 9 -20 14 -25
11 -5 -4 -9 -1 -9 5 0 6 -4 8 -10 5 -5 -3 -10 1 -10 9 0 15 -12 21 -33 17 -4
-1 -10 6 -13 14 -4 8 -12 15 -20 15 -8 0 -14 4 -14 10 0 5 -3 9 -7 9 -21 -3
-33 3 -33 17 0 8 -4 12 -10 9 -5 -3 -20 1 -33 10 -13 8 -27 12 -32 8 -4 -5 -5
-2 -1 5 4 7 1 12 -8 12 -9 0 -16 5 -16 10 0 6 -5 10 -11 10 -6 0 -24 9 -40 21
-16 11 -33 18 -38 15 -5 -3 -11 1 -15 9 -3 8 -12 15 -21 15 -8 0 -15 5 -15 11
0 5 -4 7 -10 4 -5 -3 -10 -1 -10 5 0 6 -4 8 -10 5 -5 -3 -10 -1 -10 5 0 6 -4
9 -9 6 -5 -3 -12 1 -15 10 -4 9 -13 14 -21 10 -8 -3 -15 0 -15 7 0 7 -10 13
-22 14 -11 1 -25 8 -29 15 -5 7 -9 9 -9 4 0 -5 -6 -3 -13 3 -8 6 -18 7 -22 3
-5 -4 -5 -2 -2 4 8 14 -37 39 -52 30 -6 -4 -11 0 -11 9 0 9 -5 13 -10 10 -6
-3 -13 0 -16 9 -3 8 -12 12 -20 9 -7 -3 -17 3 -20 12 -5 13 -9 14 -15 3 -7
-10 -9 -10 -9 0 0 6 -7 12 -15 12 -8 0 -15 5 -15 11 0 6 -7 9 -15 6 -8 -4 -17
-1 -21 5 -5 7 -2 8 6 3 8 -5 11 -4 7 2 -4 6 -18 9 -31 8 -15 -2 -24 2 -23 8 1
7 -4 11 -10 10 -7 -2 -13 2 -13 7 0 5 -3 10 -7 9 -15 -2 -53 13 -49 20 2 3 -8
7 -22 8 -15 0 -28 6 -30 12 -2 6 -15 11 -28 11 -13 0 -24 5 -24 10 0 6 -7 10
-15 10 -8 0 -15 5 -15 10 0 6 -9 10 -20 10 -11 0 -20 4 -20 10 0 5 -7 7 -15 4
-8 -4 -15 -1 -15 4 0 6 -9 9 -20 7 -11 -2 -18 0 -15 6 5 8 -7 11 -31 8 -3 0
-14 10 -25 22 -10 12 -19 17 -19 10 0 -8 -5 -7 -16 3 -8 9 -20 14 -25 11 -5
-4 -9 -1 -9 4 0 6 -3 10 -7 10 -5 -1 -11 0 -15 1 -5 1 -11 3 -15 4 -5 1 -18 7
-29 14 -12 6 -24 8 -28 5 -3 -3 -6 -1 -6 6 0 7 -4 10 -9 6 -5 -3 -17 2 -25 11
-12 11 -16 12 -16 2 0 -10 -2 -10 -8 -1 -9 15 -82 46 -82 36 0 -5 -4 -2 -9 5
-5 8 -20 15 -34 15 -14 1 -23 5 -20 10 2 4 -5 7 -16 7 -12 0 -21 6 -21 13 0 9
-3 8 -9 -2 -6 -10 -10 -10 -13 -1 -2 6 -15 13 -30 13 -14 1 -25 4 -23 7 2 4
-5 11 -15 18 -12 7 -21 8 -25 2 -3 -5 -20 -1 -38 10 -18 11 -40 20 -49 20 -10
0 -18 4 -18 10 0 5 -3 9 -7 9 -24 -4 -63 2 -59 9 2 4 -4 9 -15 9 -12 1 -28 8
-36 15 -8 7 -30 13 -47 13 -17 1 -30 6 -29 11 1 5 -14 9 -33 8 -19 -1 -31 2
-28 7 3 5 -2 10 -10 10 -17 2 -35 5 -38 8 -2 2 -14 5 -28 7 -13 2 -27 9 -31
15 -5 8 -9 8 -14 -1 -5 -8 -12 -7 -25 5 -10 9 -24 14 -29 10 -6 -3 -11 -2 -11
3 0 9 -7 11 -57 15 -17 1 -29 5 -27 8 2 4 -10 12 -26 18 -17 5 -28 6 -25 1 3
-4 -8 -3 -24 3 -17 6 -28 14 -26 17 2 3 -9 5 -26 4 -16 -1 -29 2 -29 6 0 4 -9
6 -20 3 -11 -3 -20 -1 -20 5 0 6 -8 11 -17 11 -41 1 -53 5 -53 15 0 6 -5 4
-10 -4 -8 -12 -10 -12 -10 -1 0 8 -7 11 -20 8 -10 -3 -25 1 -31 9 -9 11 -15
11 -25 3 -11 -9 -14 -7 -14 7 0 16 -2 17 -10 4 -7 -11 -10 -12 -10 -2 0 9 -7
11 -20 7 -11 -4 -20 -2 -20 4 0 6 -7 11 -16 11 -9 0 -12 -5 -8 -12 4 -7 -3 -3
-15 10 -25 26 -40 30 -20 5 13 -15 12 -15 -18 0 -18 10 -41 17 -52 17 -11 0
-23 5 -26 10 -5 7 -11 8 -18 1 -8 -6 -18 -5 -30 4 -10 7 -27 11 -37 8 -13 -3
-20 0 -20 8 0 11 -2 11 -10 -1 -8 -12 -10 -12 -10 -1 0 8 -3 11 -7 8 -3 -4
-13 -1 -21 6 -13 10 -14 9 -8 -3 7 -12 5 -11 -9 1 -13 13 -24 15 -47 8 -23 -6
-29 -5 -25 5 3 7 -1 13 -9 13 -8 0 -14 -5 -14 -10 0 -6 -5 -6 -12 0 -7 6 -21
9 -30 8 -10 -2 -18 1 -18 5 0 5 -12 8 -27 7 -16 -2 -34 3 -42 10 -10 11 -16
11 -27 2 -8 -6 -14 -7 -14 -2 0 12 -31 13 -46 2 -7 -6 -16 -3 -24 6 -7 8 -23
13 -35 11 -15 -3 -26 1 -29 11 -5 12 -9 13 -21 3 -12 -10 -15 -10 -15 0 0 9
-3 10 -14 1 -10 -9 -16 -8 -26 4 -10 12 -16 13 -26 4 -8 -6 -14 -7 -14 -2 0 5
-9 9 -20 9 -11 0 -20 -5 -20 -10 0 -5 -7 -1 -16 10 -8 10 -12 12 -8 4 6 -12 5
-13 -7 -3 -8 6 -27 10 -42 9 -15 -2 -30 1 -33 5 -3 5 -14 4 -26 -2 -15 -8 -19
-8 -13 1 5 8 -3 11 -28 9 -19 -2 -42 2 -50 9 -10 9 -17 10 -22 2 -3 -6 -12 -7
-18 -3 -19 11 -47 11 -47 -1 0 -6 -4 -6 -8 2 -5 7 -22 12 -39 10 -17 -1 -38 4
-46 10 -11 9 -16 10 -19 2 -2 -8 -11 -8 -29 -2 -15 6 -32 7 -40 2 -9 -6 -20
-3 -33 8 -11 9 -16 11 -12 5 4 -8 1 -13 -9 -13 -10 0 -13 5 -9 13 6 9 5 9 -7
0 -8 -6 -20 -8 -27 -4 -7 4 -30 6 -52 5 -22 -1 -40 2 -40 7 0 5 -5 9 -11 9 -5
0 -8 -4 -4 -9 3 -6 -6 -6 -25 -1 -16 5 -30 5 -30 0 0 -4 -8 -7 -17 -5 -10 1
-17 8 -15 14 1 7 -8 5 -23 -5 -20 -13 -26 -14 -30 -2 -4 11 -79 14 -433 15
-310 1 -431 -2 -441 -10 -10 -8 -12 -8 -8 -1 4 7 -6 10 -28 10 -24 -1 -35 -6
-35 -16 -1 -13 -2 -12 -10 1 -8 13 -18 15 -49 9 -23 -4 -44 -3 -49 2 -6 6 -14
3 -21 -9z m3624 -483 c3 -5 1 -10 -4 -10 -6 0 -11 5 -11 10 0 6 2 10 4 10 3 0
8 -4 11 -10z m-12541 -10046 c3 -8 2 -12 -4 -9 -6 3 -10 10 -10 16 0 14 7 11
14 -7z"/>
<path d="M11155 19000 c3 -5 8 -10 11 -10 2 0 4 5 4 10 0 6 -5 10 -11 10 -5 0
-7 -4 -4 -10z"/>
<path d="M7575 18920 c3 -5 8 -10 11 -10 2 0 4 5 4 10 0 6 -5 10 -11 10 -5 0
-7 -4 -4 -10z"/>
<path d="M16840 15796 c0 -2 8 -10 18 -17 15 -13 16 -12 3 4 -13 16 -21 21
-21 13z"/>
</g>
</svg>
