<svg width="617" height="550" viewBox="0 0 617 550" fill="none" xmlns="http://www.w3.org/2000/svg">
<g id="House">
<path id="Vector" d="M481.833 34.5636C481.833 33.9086 480.177 33.2993 477.443 32.9477L274.793 6.81994C271.683 6.41864 267.703 6.41948 264.594 6.82196L63.2002 32.9017C60.4802 33.2536 58.833 33.8618 58.833 34.5159V282.375C58.833 283.062 60.6471 283.695 63.5897 284.037L263.373 307.264C266.279 307.601 269.844 307.604 272.758 307.274L477 283.997C479.98 283.659 481.825 283.021 481.825 282.328L481.833 34.5636Z" fill="url(#paint0_linear_153_756)"/>
<path id="Vector_2" opacity="0.5" d="M437.545 25.3344C437.545 24.0214 435.194 22.8393 431.604 22.3486L269.975 0.23344C267.695 -0.0780599 265.162 -0.0780645 262.883 0.234936L102.275 22.2984C98.6914 22.7911 96.3496 23.9713 96.3496 25.2842V325.516C96.3496 326.648 98.1055 327.7 100.971 328.277L255.449 359.625C258.347 360.216 261.939 360.234 264.891 359.68L432.657 328.23C435.677 327.664 437.545 326.582 437.545 325.41V25.3344Z" fill="url(#paint1_linear_153_756)"/>
<g id="Group">
<path id="Vector_3" d="M486.862 230.659H348.431V535.273H486.862V230.659Z" fill="#474747"/>
<path id="Vector_4" d="M348.431 230.659H57.895V535.273H348.431V230.659Z" fill="#606060"/>
<g id="Group_2">
<g id="Group_3">
<path id="Vector_5" d="M57.895 292.489H33.6831L57.895 230.659H82.1059L57.895 292.489Z" fill="#F18D9E"/>
</g>
<g id="Group_4">
<path id="Vector_6" d="M82.1059 292.489H57.895L82.1059 230.659H106.317L82.1059 292.489Z" fill="#5BC8AC"/>
</g>
<g id="Group_5">
<path id="Vector_7" d="M106.317 292.489H82.106L106.317 230.659H130.529L106.317 292.489Z" fill="#F18D9E"/>
</g>
<g id="Group_6">
<path id="Vector_8" d="M130.529 292.489H106.317L130.529 230.659H154.74L130.529 292.489Z" fill="#5BC8AC"/>
</g>
<g id="Group_7">
<path id="Vector_9" d="M154.74 292.489H130.529L154.74 230.659H178.951L154.74 292.489Z" fill="#F18D9E"/>
</g>
<g id="Group_8">
<path id="Vector_10" d="M178.951 292.489H154.74L178.951 230.659H203.163L178.951 292.489Z" fill="#5BC8AC"/>
</g>
<g id="Group_9">
<path id="Vector_11" d="M203.163 292.489H178.951L203.163 230.659H227.374L203.163 292.489Z" fill="#F18D9E"/>
</g>
<g id="Group_10">
<path id="Vector_12" d="M227.374 292.489H203.163L227.374 230.659H251.586L227.374 292.489Z" fill="#5BC8AC"/>
</g>
<g id="Group_11">
<path id="Vector_13" d="M251.586 292.489H227.374L251.586 230.659H275.796L251.586 292.489Z" fill="#F18D9E"/>
</g>
<g id="Group_12">
<path id="Vector_14" d="M275.796 292.489H251.586L275.796 230.659H300.009L275.796 292.489Z" fill="#5BC8AC"/>
</g>
<g id="Group_13">
<path id="Vector_15" d="M300.009 292.489H275.796L300.009 230.659H324.22L300.009 292.489Z" fill="#F18D9E"/>
</g>
<g id="Group_14">
<path id="Vector_16" d="M324.22 292.489H300.009L324.22 230.659H348.431L324.22 292.489Z" fill="#5BC8AC"/>
</g>
<g id="Group_15">
<path id="Vector_17" d="M33.6831 292.489V300.094C33.6831 306.779 39.103 312.197 45.7881 312.197C52.4751 312.197 57.8941 306.777 57.8941 300.094V292.489H33.6831Z" fill="#FC9FB3"/>
</g>
<g id="Group_16">
<path id="Vector_18" d="M57.895 292.489V300.094C57.895 306.779 63.3149 312.197 70 312.197C76.686 312.197 82.106 306.777 82.106 300.094V292.489H57.895Z" fill="#67D6B6"/>
</g>
<g id="Group_17">
<path id="Vector_19" d="M82.106 292.489V300.094C82.106 306.779 87.5259 312.197 94.211 312.197C100.897 312.197 106.316 306.777 106.316 300.094V292.489H82.106Z" fill="#FC9FB3"/>
</g>
<g id="Group_18">
<path id="Vector_20" d="M106.317 292.489V300.094C106.317 306.779 111.737 312.197 118.422 312.197C125.108 312.197 130.528 306.777 130.528 300.094V292.489H106.317Z" fill="#67D6B6"/>
</g>
<g id="Group_19">
<path id="Vector_21" d="M130.529 292.489V300.094C130.529 306.779 135.949 312.197 142.634 312.197C149.321 312.197 154.74 306.777 154.74 300.094V292.489H130.529Z" fill="#FC9FB3"/>
</g>
<g id="Group_20">
<path id="Vector_22" d="M154.74 292.489V300.094C154.74 306.779 160.16 312.197 166.844 312.197C173.531 312.197 178.949 306.777 178.949 300.094V292.489H154.74Z" fill="#67D6B6"/>
</g>
<g id="Group_21">
<path id="Vector_23" d="M178.951 292.489V300.094C178.951 306.779 184.371 312.197 191.055 312.197C197.743 312.197 203.16 306.777 203.16 300.094V292.489H178.951Z" fill="#FC9FB3"/>
</g>
<g id="Group_22">
<path id="Vector_24" d="M203.163 292.489V300.094C203.163 306.779 208.583 312.197 215.267 312.197C221.955 312.197 227.372 306.777 227.372 300.094V292.489H203.163Z" fill="#67D6B6"/>
</g>
<g id="Group_23">
<path id="Vector_25" d="M227.374 292.489V300.094C227.374 306.779 232.794 312.197 239.48 312.197C246.166 312.197 251.583 306.777 251.583 300.094V292.489H227.374Z" fill="#FC9FB3"/>
</g>
<g id="Group_24">
<path id="Vector_26" d="M251.586 292.489V300.094C251.586 306.779 257.006 312.197 263.691 312.197C270.376 312.197 275.795 306.777 275.795 300.094V292.489H251.586Z" fill="#67D6B6"/>
</g>
<g id="Group_25">
<path id="Vector_27" d="M275.796 292.489V300.094C275.796 306.779 281.218 312.197 287.901 312.197C294.589 312.197 300.007 306.777 300.007 300.094V292.489H275.796Z" fill="#FC9FB3"/>
</g>
<g id="Group_26">
<path id="Vector_28" d="M300.009 292.489V300.094C300.009 306.779 305.429 312.197 312.114 312.197C318.8 312.197 324.218 306.777 324.218 300.094V292.489H300.009Z" fill="#67D6B6"/>
</g>
</g>
<path id="Vector_29" d="M348.431 492.445H15.1831V535.273H348.431V492.445Z" fill="#474747"/>
<g id="Group_27">
<g id="Group_28">
<path id="Vector_30" d="M182.12 466.155C182.12 467.069 181.379 467.811 180.466 467.811H104.803C103.888 467.811 103.148 467.069 103.148 466.155V348.944C103.148 348.029 103.889 347.289 104.803 347.289H180.466C181.38 347.289 182.12 348.029 182.12 348.944V466.155Z" fill="#576C8B"/>
<path id="Vector_31" d="M169.498 428.073H115.771C114.465 428.073 113.407 427.015 113.407 425.711C113.407 424.403 114.466 423.347 115.771 423.347H169.498C170.804 423.347 171.862 424.405 171.862 425.711C171.862 427.016 170.804 428.073 169.498 428.073Z" fill="#5BC8AC"/>
<path id="Vector_32" d="M121.838 428.073C121.838 428.073 125.051 428.917 128.691 433.217C131.548 436.591 135.636 436.498 140.002 436.433V473.557H145.268V436.433C149.625 436.5 153.705 436.596 156.561 433.231C160.206 428.938 163.43 428.074 163.43 428.074H121.838V428.073Z" fill="#53AD93"/>
<path id="Vector_33" d="M108.892 347.289H103.147V467.811H108.892V347.289Z" fill="#7C87A4"/>
<path id="Vector_34" opacity="0.1" d="M150.984 341.545C132.381 354.795 115.171 368.812 97.4019 382.954V410.029C126.54 385.676 155.68 365.089 184.819 341.545H150.984V341.545Z" fill="white"/>
<path id="Vector_35" opacity="0.1" d="M97.4028 450.363V471.701C97.4028 472.725 98.2329 473.556 99.2568 473.556H109.086C135.323 453.994 162.242 434.259 187.864 413.025V381.175C159.218 403.728 128.613 424.318 100.687 447.59C98.206 447.588 98.3018 449.307 97.4028 450.363Z" fill="white"/>
<path id="Vector_36" d="M186.011 341.545H99.2578C98.2339 341.545 97.4038 342.375 97.4038 343.398V471.701C97.4038 472.725 98.2339 473.556 99.2578 473.556H186.011C187.035 473.556 187.865 472.726 187.865 471.701V343.398C187.865 342.375 187.035 341.545 186.011 341.545ZM182.12 466.155C182.12 467.069 181.379 467.811 180.466 467.811H104.803C103.888 467.811 103.148 467.069 103.148 466.155V348.944C103.148 348.029 103.889 347.289 104.803 347.289H180.466C181.38 347.289 182.12 348.029 182.12 348.944V466.155Z" fill="#595959"/>
</g>
<path id="Vector_37" d="M303.177 466.155C303.177 467.069 302.437 467.811 301.524 467.811H225.862C224.947 467.811 224.207 467.069 224.207 466.155V348.944C224.207 348.029 224.948 347.289 225.862 347.289H301.524C302.437 347.289 303.177 348.029 303.177 348.944V466.155Z" fill="#576C8B"/>
<path id="Vector_38" d="M290.554 428.073H236.828C235.522 428.073 234.464 427.015 234.464 425.711C234.464 424.403 235.522 423.347 236.828 423.347H290.554C291.862 423.347 292.919 424.405 292.919 425.711C292.919 427.016 291.86 428.073 290.554 428.073Z" fill="#5BC8AC"/>
<g id="Group_29">
<path id="Vector_39" d="M255.886 415.837C250.07 413.51 244.251 416.808 238.432 415.921V417.786V419.031V422.039H236.806C236.75 422.039 236.697 422.051 236.649 422.067C236.503 422.125 236.401 422.255 236.401 422.407C236.401 422.923 236.911 423.345 237.533 423.345H241.388H260.748C260.567 420.219 259.621 417.332 255.886 415.837Z" fill="#F286A5"/>
<path id="Vector_40" d="M241.777 403.093V403.099V406.416C241.648 406.536 241.532 406.657 241.373 406.776C241.259 406.861 241.163 406.973 241.098 407.101C241.124 407.118 241.137 407.148 241.16 407.166C240.994 407.031 240.785 406.94 240.55 406.94C240.027 406.94 239.601 407.35 239.601 407.843V407.844V407.845C239.601 407.914 239.629 407.983 239.647 408.048C239.66 408.102 239.66 408.151 239.681 408.208H239.269C238.821 408.208 238.435 408.564 238.435 409.015V412.604V413.981V415.918C244.251 416.805 250.07 413.507 255.887 415.834C259.621 417.327 260.569 420.216 260.749 423.343H263.592C264.215 423.343 264.724 422.922 264.724 422.405C264.724 422.202 264.542 422.036 264.319 422.036H262.627V419.029V417.784V413.982V412.604V412.146C262.384 411.774 262.138 411.403 261.89 411.031C256.349 405.493 246.554 407.757 241.777 403.093Z" fill="#FC8DA9"/>
<path id="Vector_41" d="M262.612 408.825C262.575 408.676 262.506 408.549 262.402 408.443C262.256 408.309 262.07 408.23 261.858 408.23H261.419C261.471 408.1 261.5 407.988 261.5 407.859C261.5 407.367 261.074 406.962 260.549 406.962C260.31 406.962 260.099 407.054 259.932 407.192C259.955 407.172 259.967 407.142 259.994 407.127C259.94 407.025 259.873 406.932 259.803 406.846C259.72 406.744 259.547 406.589 259.349 406.392V403.117V401.74V398.337C259.349 398.08 259.157 397.872 258.902 397.872H255.541C255.543 397.868 255.543 397.866 255.544 397.863H256.031H258.025C258.182 397.734 258.277 397.539 258.266 397.28C258.256 396.987 258.109 396.714 257.921 396.487C257.756 396.286 257.219 395.856 256.851 395.323C256.82 395.274 256.764 395.252 256.71 395.254V395.252C256.658 395.254 256.608 395.275 256.575 395.321C256.364 395.624 256.013 396.052 255.491 396.441C255.365 396.534 255.262 396.657 255.197 396.802C255.191 396.816 255.187 396.828 255.18 396.843C255.201 396.857 255.213 396.882 255.236 396.899C255.071 396.772 254.869 396.686 254.637 396.686C254.403 396.686 254.193 396.776 254.027 396.911C254.045 396.897 254.052 396.878 254.072 396.862C254.01 396.728 253.926 396.6 253.831 396.485C253.666 396.285 253.13 395.854 252.763 395.321C252.731 395.272 252.674 395.252 252.62 395.253C252.62 395.253 252.62 395.252 252.62 395.25C252.569 395.253 252.516 395.273 252.486 395.32C252.275 395.623 251.924 396.051 251.402 396.439C251.276 396.533 251.172 396.656 251.108 396.802C251.105 396.808 251.101 396.814 251.098 396.821C251.123 396.838 251.135 396.865 251.16 396.884C251 396.767 250.806 396.686 250.59 396.686C250.344 396.687 250.125 396.782 249.957 396.927C249.97 396.914 249.977 396.897 249.991 396.885C249.929 396.74 249.841 396.608 249.741 396.487C249.575 396.287 249.039 395.856 248.671 395.323C248.637 395.274 248.584 395.254 248.529 395.255C248.529 395.255 248.529 395.254 248.529 395.253C248.477 395.255 248.426 395.276 248.393 395.322C248.183 395.626 247.831 396.052 247.31 396.441C247.184 396.535 247.081 396.658 247.016 396.803C247.01 396.814 247.007 396.824 247.002 396.836C247.028 396.851 247.038 396.878 247.061 396.895C246.898 396.771 246.699 396.686 246.471 396.686C246.234 396.687 246.019 396.778 245.852 396.916C245.87 396.902 245.877 396.882 245.894 396.869C245.832 396.73 245.748 396.601 245.652 396.485C245.486 396.286 244.949 395.854 244.581 395.321C244.547 395.272 244.494 395.251 244.441 395.252V395.251C244.388 395.252 244.336 395.274 244.304 395.32C244.2 395.471 244.058 395.654 243.879 395.847C243.701 396.04 243.484 396.245 243.222 396.439C243.096 396.533 242.993 396.656 242.927 396.801C242.724 397.257 243.012 397.557 243.266 397.861H243.759H245.572C245.573 397.865 245.573 397.867 245.574 397.872H243.668H242.225C241.971 397.872 241.779 398.079 241.779 398.335V401.739V403.11C246.554 407.773 256.349 405.51 261.89 411.05C262.137 411.421 262.383 411.791 262.626 412.164V409.033C262.625 408.961 262.627 408.891 262.612 408.825Z" fill="#F79AB4"/>
<path id="Vector_42" d="M281.028 423.345H286.251C284.202 417.49 276.538 415.933 270.269 412.941V422.033H268.208C268.021 422.033 267.87 422.199 267.87 422.405C267.87 422.534 267.897 422.658 267.944 422.77C268.04 422.994 268.218 423.176 268.444 423.271C268.556 423.319 268.677 423.345 268.806 423.345H278.163" fill="#F286A5"/>
<path id="Vector_43" d="M277.175 422.14C277.224 422.14 277.269 422.146 277.317 422.146C277.362 422.144 277.409 422.14 277.456 422.14C277.48 422.14 277.505 422.143 277.53 422.144C277.554 422.144 277.579 422.14 277.603 422.14C277.653 422.14 277.698 422.146 277.747 422.146C277.784 422.144 277.815 422.14 277.854 422.14C277.884 422.14 277.913 422.144 277.939 422.145C277.968 422.144 277.995 422.14 278.023 422.14C278.064 422.14 278.105 422.145 278.146 422.146C278.169 422.144 278.192 422.14 278.218 422.14C278.278 422.14 278.329 422.146 278.386 422.148C278.439 422.146 278.49 422.14 278.544 422.14C278.573 422.14 278.601 422.144 278.628 422.145C278.655 422.144 278.683 422.14 278.712 422.14C278.775 422.14 278.835 422.146 278.896 422.149C278.937 422.145 278.976 422.14 279.019 422.14C279.046 422.14 279.073 422.144 279.097 422.145C279.124 422.144 279.149 422.14 279.177 422.14C279.232 422.14 279.281 422.146 279.333 422.148C279.362 422.145 279.39 422.14 279.419 422.14C279.454 422.14 279.483 422.145 279.517 422.145C279.612 422.138 279.705 422.131 279.802 422.131C279.878 422.131 279.95 422.138 280.026 422.143C280.028 422.138 280.028 422.131 280.03 422.127H277.167C277.169 422.131 277.171 422.137 277.171 422.141L277.175 422.14Z" fill="#F286A5"/>
<path id="Vector_44" d="M274.904 403.516C274.904 402.846 274.904 401.827 274.904 400.645C274.495 400.666 274.095 400.687 273.72 400.712C273.732 400.712 273.738 400.711 273.745 400.709C273.859 400.548 273.925 400.351 273.925 400.139C273.925 399.58 273.474 399.131 272.917 399.131C272.361 399.131 271.909 399.58 271.909 400.139C271.909 400.407 272.013 400.65 272.185 400.83C272.411 400.81 272.65 400.788 272.902 400.769C272.464 400.804 272.077 400.841 271.724 400.88C271.724 400.879 271.724 400.879 271.724 400.878C271.697 400.881 271.675 400.885 271.65 400.889C271.492 400.905 271.345 400.926 271.21 400.943C271.154 400.951 271.091 400.959 271.036 400.966C270.853 400.992 270.691 401.02 270.552 401.051C270.259 401.112 270.017 401.418 270.013 401.862C270.005 402.446 269.841 407.171 270.263 407.485C270.265 407.486 270.267 407.484 270.269 407.485V408.499V410.214V412.711V412.94C276.54 415.931 284.202 417.487 286.251 423.342H290.382C290.9 423.342 291.322 422.917 291.322 422.402C291.322 422.197 291.171 422.03 290.986 422.03H288.892V418.774V416.99V414.423V412.711V410.211V409.189C284.21 407.786 277.872 407.968 274.904 403.516Z" fill="#FC8DA9"/>
<path id="Vector_45" d="M288.896 405.801C288.88 405.808 288.87 405.808 288.859 405.812C288.87 405.807 288.88 405.808 288.89 405.801C289.052 405.693 289.143 405.355 289.169 405.034C289.224 404.416 289.273 401.777 289.044 401.343C288.899 401.06 287.866 400.866 286.368 400.74C286.493 400.753 286.626 400.762 286.741 400.771C286.853 400.608 286.921 400.412 286.921 400.2C286.921 399.643 286.47 399.191 285.913 399.191C285.357 399.191 284.905 399.643 284.905 400.2C284.905 400.36 284.944 400.515 285.011 400.65C285.025 400.65 285.032 400.651 285.042 400.651C284.118 400.605 283.087 400.579 282.013 400.569C282.093 400.569 282.175 400.569 282.255 400.57C282.3 400.457 282.327 400.332 282.327 400.2C282.327 399.644 281.876 399.193 281.317 399.193C280.759 399.193 280.312 399.644 280.312 400.2C280.312 400.328 280.335 400.449 280.378 400.561C280.446 400.561 280.513 400.563 280.583 400.563C279.706 400.566 278.819 400.576 277.948 400.597C278.024 400.596 278.095 400.593 278.173 400.591C278.225 400.47 278.253 400.337 278.253 400.198C278.253 399.642 277.802 399.192 277.245 399.192C276.689 399.192 276.237 399.642 276.237 400.198C276.237 400.358 276.274 400.51 276.341 400.642C276.372 400.641 276.405 400.641 276.437 400.64C275.907 400.658 275.393 400.68 274.899 400.702C274.899 401.888 274.899 402.902 274.899 403.572C277.868 408.024 284.206 407.844 288.888 409.248V408.561V405.797H288.894V405.801H288.896V405.801Z" fill="#F79AB4"/>
<path id="Vector_46" d="M126.788 406.597C126.831 406.735 126.889 406.87 126.96 406.995H126.962C126.968 407.005 126.97 407.015 126.975 407.022H126.96H124.268C124.344 406.835 124.38 406.604 124.372 406.36C124.35 405.739 124.008 405.153 123.575 404.675C123.171 404.224 121.648 403.466 120.954 401.994C120.933 401.953 120.896 401.95 120.866 401.934C120.868 401.925 120.872 401.914 120.876 401.903C120.855 401.893 120.839 401.903 120.818 401.901C120.8 401.899 120.79 401.897 120.772 401.899C120.719 401.909 120.672 401.932 120.637 401.975C120.632 401.981 120.625 401.979 120.621 401.985C120.619 401.987 120.615 401.991 120.613 401.996C120.613 401.998 120.61 401.998 120.609 402.003C120.149 402.639 119.536 403.634 117.94 404.565C117.64 404.743 117.413 405.034 117.263 405.339C116.975 405.928 117.065 406.507 117.326 406.971C117.331 406.983 117.335 406.993 117.341 407.005V407.018H117.316V408.532V411.807V412.248V413.511V413.536C123.668 416.055 130.274 418.796 133.981 423.341H142.423C143.028 423.341 143.549 422.889 143.653 422.291L143.72 421.893C144.244 418.882 144.385 415.821 144.2 412.776C137.562 411.483 129.569 412.19 126.788 406.597Z" fill="#FC8DA9"/>
<path id="Vector_47" d="M143.491 407.082C143.583 406.881 143.63 406.647 143.62 406.381C143.599 405.76 143.257 405.184 142.823 404.699C142.419 404.252 140.897 403.497 140.202 402.025C140.181 401.981 140.14 401.977 140.104 401.963C140.106 401.953 140.11 401.945 140.112 401.941C140.102 401.936 140.093 401.953 140.083 401.951C140.009 401.932 139.927 401.945 139.872 402.024C139.411 402.662 138.798 403.662 137.202 404.598C136.901 404.775 136.669 405.059 136.519 405.363C136.373 405.662 136.323 405.957 136.341 406.236C136.359 406.514 136.447 406.781 136.582 407.035H133.89C133.966 406.848 134.002 406.617 133.994 406.373C133.972 405.754 133.629 405.168 133.197 404.688C132.793 404.236 131.27 403.479 130.576 402.008C130.555 401.965 130.516 401.963 130.483 401.945C130.488 401.936 130.492 401.925 130.494 401.916C130.474 401.906 130.457 401.918 130.438 401.916C130.421 401.913 130.412 401.91 130.394 401.916C130.341 401.924 130.294 401.947 130.256 401.99C130.251 401.995 130.247 401.995 130.243 402C130.241 402.002 130.239 402.006 130.237 402.01C130.235 402.01 130.234 402.01 130.233 402.014C129.773 402.652 129.151 403.65 127.557 404.584C127.255 404.764 127.034 405.053 126.883 405.356C126.668 405.793 126.666 406.221 126.783 406.604C129.562 412.199 137.555 411.49 144.201 412.791C144.111 411.332 143.972 409.875 143.721 408.435L143.491 407.082Z" fill="#F79AB4"/>
<path id="Vector_48" d="M117.319 413.544V417.105V417.916V418.809V421.83V423.346H119.886H133.984C130.278 418.802 123.668 416.06 117.319 413.544Z" fill="#F286A5"/>
<path id="Vector_49" d="M155.999 423.278C156.029 423.277 156.058 423.273 156.089 423.273C156.133 423.273 156.174 423.279 156.217 423.281C156.268 423.278 156.319 423.273 156.369 423.273C156.482 423.273 156.588 423.28 156.692 423.294C156.746 423.296 156.802 423.297 156.856 423.302C156.91 423.299 156.96 423.284 157.015 423.284C157.077 423.284 157.129 423.298 157.188 423.301C157.282 423.289 157.378 423.284 157.479 423.284C157.53 423.284 157.576 423.293 157.625 423.297C157.689 423.291 157.75 423.284 157.815 423.284C157.885 423.284 157.948 423.301 158.015 423.306C158.075 423.303 158.131 423.298 158.192 423.298C158.242 423.298 158.287 423.304 158.335 423.307C158.397 423.303 158.46 423.298 158.527 423.298C158.587 423.298 158.642 423.303 158.7 423.306C158.724 423.304 158.75 423.298 158.777 423.298C158.778 423.291 158.78 423.283 158.782 423.278L156.804 423.275H161.815C161.371 417.764 152.738 417.242 147.552 414.553V422.031H146.594C146.418 422.031 146.275 422.189 146.275 422.386C146.275 422.507 146.3 422.622 146.345 422.731C146.481 423.05 146.798 423.276 147.164 423.276H155.997L155.999 423.278Z" fill="#F286A5"/>
<path id="Vector_50" d="M152.627 406.43C151.652 406.449 150.763 406.477 150.017 406.514C150.017 406.513 150.017 406.512 150.017 406.511C149.919 406.517 149.837 406.521 149.744 406.526C149.616 406.535 149.49 406.541 149.372 406.549C149.209 406.561 149.063 406.569 148.922 406.579C148.825 406.59 148.723 406.597 148.635 406.604C148.493 406.616 148.377 406.631 148.261 406.647C148.201 406.653 148.129 406.66 148.076 406.668C147.923 406.691 147.799 406.717 147.717 406.741C147.121 406.93 147.059 408.695 147.524 408.665C147.534 408.665 147.544 408.662 147.553 408.66V410.601V411.965V414.55C152.74 417.237 161.37 417.76 161.817 423.272H167.606C168.093 423.272 168.494 422.871 168.494 422.381C168.494 422.187 168.35 422.027 168.175 422.027H167.564V420.202V418.841V416.053V414.893C163.303 412.216 156.183 411.334 152.628 407.779C152.627 407.423 152.627 406.945 152.627 406.43Z" fill="#FC8DA9"/>
<path id="Vector_51" d="M167.564 411.969V410.606V408.653C167.316 408.686 167.117 408.369 166.788 408.301C166.792 408.302 166.795 408.3 166.799 408.301C167.13 408.365 167.326 408.686 167.587 408.653C167.659 408.644 167.736 408.608 167.822 408.534C168.128 408.265 168.043 406.802 167.344 406.746C165.412 406.6 162.991 406.501 160.513 406.447C160.58 406.449 160.65 406.45 160.716 406.451C160.824 406.284 160.886 406.09 160.886 405.88C160.886 405.27 160.364 404.775 159.717 404.767C159.696 404.797 159.675 404.82 159.66 404.838C159.816 404.654 160.474 403.808 160.221 402.888C160.216 402.869 160.198 402.859 160.178 402.867C159.987 402.943 159.008 403.356 158.663 403.947C158.654 403.967 158.631 403.969 158.616 403.958L158.466 403.842C158.449 403.828 158.424 403.835 158.416 403.854C158.374 403.952 158.262 404.226 158.191 404.527C158.203 404.531 158.211 404.539 158.224 404.546C158.075 404.489 157.913 404.453 157.744 404.453C157.699 404.453 157.661 404.474 157.617 404.476C157.618 404.473 157.618 404.47 157.619 404.467C157.638 404.465 157.655 404.455 157.674 404.454C157.611 404.204 157.523 403.981 157.478 403.88C157.464 403.847 157.423 403.837 157.399 403.858L157.286 403.945C157.262 403.967 157.224 403.956 157.209 403.928C156.866 403.366 155.959 402.97 155.728 402.877C155.7 402.864 155.666 402.882 155.659 402.91C155.429 403.789 156.027 404.598 156.206 404.815C156.199 404.805 156.191 404.794 156.181 404.784C156.166 404.782 156.152 404.782 156.135 404.78C156.1 404.776 156.068 404.771 156.032 404.769C156.032 404.77 156.032 404.77 156.031 404.771C156.012 404.77 155.997 404.765 155.981 404.765C155.328 404.765 154.794 405.265 154.794 405.878C154.794 406.066 154.845 406.244 154.933 406.399C155.027 406.399 155.123 406.4 155.216 406.399C154.302 406.403 153.439 406.415 152.63 406.43C152.63 406.946 152.63 407.426 152.63 407.784C156.187 411.341 163.304 412.222 167.568 414.897V414.695L167.564 411.969Z" fill="#F79AB4"/>
</g>
<path id="Vector_52" d="M242.896 428.073C242.896 428.073 246.109 428.917 249.749 433.217C252.606 436.591 256.694 436.498 261.06 436.433V473.557H266.326V436.433C270.682 436.5 274.764 436.596 277.619 433.231C281.264 428.938 284.49 428.074 284.49 428.074H242.896V428.073Z" fill="#53AD93"/>
<path id="Vector_53" d="M229.949 347.289H224.205V467.811H229.949V347.289Z" fill="#7C87A4"/>
<path id="Vector_54" opacity="0.1" d="M272.04 341.545C253.438 354.795 236.228 368.812 218.46 382.954V410.029C247.599 385.676 276.737 365.089 305.876 341.545H272.04V341.545Z" fill="white"/>
<path id="Vector_55" opacity="0.1" d="M218.46 450.363V471.701C218.46 472.725 219.29 473.556 220.314 473.556H230.144C256.379 453.994 283.296 434.259 308.919 413.025V381.175C280.274 403.728 249.668 424.318 221.742 447.59C219.262 447.588 219.358 449.307 218.46 450.363Z" fill="white"/>
<path id="Vector_56" opacity="0.4" d="M307.067 341.545H220.315C219.291 341.545 218.461 342.375 218.461 343.398V471.701C218.461 472.725 219.291 473.556 220.315 473.556H307.067C308.091 473.556 308.921 472.726 308.921 471.701V343.398C308.923 342.375 308.093 341.545 307.067 341.545Z" fill="#5BC8AC"/>
<path id="Vector_57" opacity="0.4" d="M180.501 347.289H104.767C103.873 347.289 103.148 348.049 103.148 348.981V466.118C103.148 467.055 103.873 467.811 104.767 467.811H180.501C181.395 467.811 182.12 467.053 182.12 466.118V348.981C182.12 348.047 181.395 347.289 180.501 347.289Z" fill="#5BC8AC"/>
<path id="Vector_58" d="M307.067 341.545H220.314C219.29 341.545 218.46 342.375 218.46 343.398V471.701C218.46 472.725 219.29 473.556 220.314 473.556H307.067C308.089 473.556 308.921 472.726 308.921 471.701V343.398C308.921 342.375 308.091 341.545 307.067 341.545ZM303.177 466.155C303.177 467.069 302.437 467.811 301.524 467.811H225.862C224.947 467.811 224.207 467.069 224.207 466.155V348.944C224.207 348.029 224.948 347.289 225.862 347.289H301.524C302.437 347.289 303.177 348.029 303.177 348.944V466.155Z" fill="#595959"/>
</g>
<path id="Vector_59" d="M358.368 217.148L348.431 230.659H57.8951L47.957 217.148H358.368Z" fill="#686868"/>
<path id="Vector_60" d="M348.431 230.659L358.368 217.148H496.798L486.86 230.659H348.431Z" fill="#5B5B5B"/>
<path id="Vector_61" d="M358.369 201.03H47.957V217.148H358.369V201.03Z" fill="#565656"/>
<path id="Vector_62" d="M496.798 201.03H358.368V217.148H496.798V201.03Z" fill="#474747"/>
<g id="Group_30">
<g id="Group_31">
<path id="Vector_63" d="M183.049 476.031C188.082 481.064 196.473 467.642 204.862 474.353C206.98 476.895 209.207 479.327 211.566 481.628C209.95 471.667 201.844 464.085 192.064 464.085C191.094 464.085 190.142 464.162 189.21 464.307C185.517 455.789 177.453 449.878 168.092 449.878C162.929 449.878 158.161 451.679 154.303 454.721C150.837 457.452 148.106 461.189 146.484 465.527C145.548 465.139 144.572 464.84 143.574 464.604C151.042 476.176 171.436 467.321 183.049 476.031Z" fill="#A1DADD"/>
</g>
<g id="Group_32">
<path id="Vector_64" d="M211.858 484.319C211.82 483.403 211.71 482.511 211.566 481.631C209.207 479.328 206.98 476.897 204.862 474.355C196.471 467.644 188.083 481.067 183.049 476.033C171.435 467.324 151.042 476.18 143.577 464.605C142.198 464.279 140.772 464.087 139.301 464.087C136.383 464.087 133.615 464.767 131.122 465.977C126.193 460.143 119.061 456.477 111.128 456.477C109.81 456.477 108.516 456.581 107.25 456.778C106.713 455.541 106.104 454.345 105.436 453.192C99.8608 443.576 89.9072 437.166 78.5439 437.166C71.0039 437.166 64.0879 439.993 58.6562 444.702C54.3359 447.846 50.8481 452.403 48.6928 457.842C48.6191 457.827 48.5439 457.823 48.4692 457.813C48.955 463.166 50.9791 467.925 52.1671 472.68C57.2003 484.426 68.9463 471.002 77.3359 476.034C82.3701 479.391 90.7602 484.426 95.7939 482.746C119.579 476.543 138.266 484.358 157.353 492.448H218.999C218.998 492.445 217.37 486.368 211.858 484.319Z" fill="#8FCDD5"/>
</g>
<g id="Group_33">
<path id="Vector_65" d="M95.7949 482.743C90.7612 484.424 82.3711 479.389 77.3369 476.031C68.9468 470.998 57.2012 484.424 52.168 472.678C50.979 467.922 48.9561 463.161 48.4702 457.811C47.4922 457.657 46.4971 457.566 45.4829 457.566C33.5049 457.566 23.7378 468.606 23.2148 482.453C17.0141 484.975 15.1831 492.447 15.1831 492.447H96.916H157.353C138.267 484.355 119.58 476.538 95.7949 482.743Z" fill="#89C4CD"/>
</g>
</g>
<g id="Group_34">
<g id="Group_35">
<path id="Vector_66" d="M268.017 482.743C262.985 484.424 254.594 479.389 249.56 476.031C241.17 470.998 229.424 484.424 224.391 472.678C223.203 467.922 221.179 463.161 220.694 457.811C219.715 457.657 218.72 457.566 217.708 457.566C205.731 457.566 195.963 468.606 195.44 482.453C189.239 484.975 187.407 492.447 187.407 492.447H269.14H329.577C310.489 484.355 291.802 476.538 268.017 482.743Z" fill="#89C4CD"/>
</g>
<path id="Vector_67" d="M323.9 484.026C320.318 473.281 311.362 475.072 304.198 469.699C303.06 468.561 302.642 466.699 302.034 464.575C297.189 459.574 290.616 456.476 283.349 456.476C282.032 456.476 280.737 456.579 279.47 456.776C278.933 455.539 278.324 454.343 277.657 453.19C272.083 443.574 262.13 437.164 250.765 437.164C243.225 437.164 236.31 439.991 230.877 444.7C226.557 447.844 223.069 452.401 220.914 457.84C220.841 457.825 220.765 457.821 220.691 457.811C221.176 463.166 223.201 467.923 224.388 472.678C229.421 484.424 241.167 471 249.558 476.032C254.591 479.389 262.982 484.424 268.013 482.744C291.8 476.539 310.487 484.356 329.575 492.446H348.429L345.083 490.528C338.726 483.868 332.993 481.428 323.9 484.026Z" fill="#8FCDD5"/>
</g>
<path id="Vector_68" d="M440.825 397.566H434.327V535.274H440.825V397.566Z" fill="#415771"/>
<g id="Group_36">
<g id="Group_37">
<g id="Group_38">
<path id="Vector_69" d="M37.7578 492.445H22.6382C21.4639 492.445 20.5122 493.397 20.5122 494.572V501.996C20.5122 503.172 21.4639 504.124 22.6382 504.124H37.7578C38.9321 504.124 39.8838 503.172 39.8838 501.996V494.572C39.8838 493.398 38.9321 492.445 37.7578 492.445Z" fill="#666666"/>
</g>
<g id="Group_39">
<path id="Vector_70" d="M32.4282 492.445H15.1831V504.123H32.4292C33.603 504.123 34.5552 503.173 34.5552 501.996V494.572C34.5552 493.398 33.603 492.445 32.4282 492.445Z" fill="#8E8E8E"/>
</g>
</g>
<g id="Group_40">
<g id="Group_41">
<path id="Vector_71" d="M59.7939 492.445H44.6748C43.501 492.445 42.5488 493.397 42.5488 494.572V501.996C42.5488 503.172 43.5009 504.124 44.6748 504.124H59.7939C60.9677 504.124 61.92 503.172 61.92 501.996V494.572C61.92 493.398 60.9678 492.445 59.7939 492.445Z" fill="#666666"/>
</g>
<g id="Group_42">
<path id="Vector_72" d="M54.4648 492.445H39.3452C38.1709 492.445 37.2188 493.397 37.2188 494.572V501.996C37.2188 503.172 38.1708 504.124 39.3452 504.124H54.4648C55.6391 504.124 56.5909 503.172 56.5909 501.996V494.572C56.5909 493.398 55.6392 492.445 54.4648 492.445Z" fill="#8E8E8E"/>
</g>
</g>
<g id="Group_43">
<g id="Group_44">
<path id="Vector_73" d="M81.8311 492.445H66.711C65.5372 492.445 64.585 493.397 64.585 494.572V501.996C64.585 503.172 65.5371 504.124 66.711 504.124H81.8311C83.0049 504.124 83.9571 503.172 83.9571 501.996V494.572C83.9571 493.398 83.005 492.445 81.8311 492.445Z" fill="#666666"/>
</g>
<g id="Group_45">
<path id="Vector_74" d="M76.501 492.445H61.3809C60.2071 492.445 59.2549 493.397 59.2549 494.572V501.996C59.2549 503.172 60.207 504.124 61.3809 504.124H76.501C77.6748 504.124 78.627 503.172 78.627 501.996V494.572C78.6269 493.398 77.6758 492.445 76.501 492.445Z" fill="#8E8E8E"/>
</g>
</g>
<g id="Group_46">
<g id="Group_47">
<path id="Vector_75" d="M103.867 492.445H88.7471C87.5733 492.445 86.6211 493.397 86.6211 494.572V501.996C86.6211 503.172 87.5732 504.124 88.7471 504.124H103.867C105.041 504.124 105.993 503.172 105.993 501.996V494.572C105.993 493.398 105.041 492.445 103.867 492.445Z" fill="#666666"/>
</g>
<g id="Group_48">
<path id="Vector_76" d="M98.5381 492.445H83.419C82.2452 492.445 81.293 493.397 81.293 494.572V501.996C81.293 503.172 82.2451 504.124 83.419 504.124H98.5381C99.7119 504.124 100.664 503.172 100.664 501.996V494.572C100.664 493.398 99.7119 492.445 98.5381 492.445Z" fill="#8E8E8E"/>
</g>
</g>
<g id="Group_49">
<g id="Group_50">
<path id="Vector_77" d="M125.903 492.445H110.784C109.61 492.445 108.658 493.397 108.658 494.572V501.996C108.658 503.172 109.61 504.124 110.784 504.124H125.903C127.077 504.124 128.029 503.172 128.029 501.996V494.572C128.03 493.398 127.077 492.445 125.903 492.445Z" fill="#666666"/>
</g>
<g id="Group_51">
<path id="Vector_78" d="M120.574 492.445H105.455C104.28 492.445 103.329 493.397 103.329 494.572V501.996C103.329 503.172 104.281 504.124 105.455 504.124H120.574C121.748 504.124 122.7 503.172 122.7 501.996V494.572C122.7 493.398 121.748 492.445 120.574 492.445Z" fill="#8E8E8E"/>
</g>
</g>
<g id="Group_52">
<g id="Group_53">
<path id="Vector_79" d="M147.939 492.445H132.818C131.644 492.445 130.692 493.397 130.692 494.572V501.996C130.692 503.172 131.644 504.124 132.818 504.124H147.939C149.113 504.124 150.066 503.172 150.066 501.996V494.572C150.066 493.398 149.113 492.445 147.939 492.445Z" fill="#666666"/>
</g>
<g id="Group_54">
<path id="Vector_80" d="M142.61 492.445H127.491C126.317 492.445 125.365 493.397 125.365 494.572V501.996C125.365 503.172 126.317 504.124 127.491 504.124H142.61C143.785 504.124 144.736 503.172 144.736 501.996V494.572C144.737 493.398 143.785 492.445 142.61 492.445Z" fill="#8E8E8E"/>
</g>
</g>
<g id="Group_55">
<g id="Group_56">
<path id="Vector_81" d="M169.976 492.445H154.858C153.682 492.445 152.732 493.397 152.732 494.572V501.996C152.732 503.172 153.682 504.124 154.858 504.124H169.976C171.152 504.124 172.103 503.172 172.103 501.996V494.572C172.103 493.398 171.15 492.445 169.976 492.445Z" fill="#666666"/>
</g>
<g id="Group_57">
<path id="Vector_82" d="M164.646 492.445H149.527C148.353 492.445 147.401 493.397 147.401 494.572V501.996C147.401 503.172 148.353 504.124 149.527 504.124H164.646C165.821 504.124 166.773 503.172 166.773 501.996V494.572C166.773 493.398 165.821 492.445 164.646 492.445Z" fill="#8E8E8E"/>
</g>
</g>
<g id="Group_58">
<g id="Group_59">
<path id="Vector_83" d="M192.013 492.445H176.893C175.719 492.445 174.767 493.397 174.767 494.572V501.996C174.767 503.172 175.719 504.124 176.893 504.124H192.013C193.186 504.124 194.139 503.172 194.139 501.996V494.572C194.139 493.398 193.186 492.445 192.013 492.445Z" fill="#666666"/>
</g>
<g id="Group_60">
<path id="Vector_84" d="M186.683 492.445H171.564C170.388 492.445 169.437 493.397 169.437 494.572V501.996C169.437 503.172 170.388 504.124 171.564 504.124H186.681C187.858 504.124 188.807 503.172 188.807 501.996V494.572C188.809 493.398 187.857 492.445 186.683 492.445Z" fill="#8E8E8E"/>
</g>
</g>
<g id="Group_61">
<g id="Group_62">
<path id="Vector_85" d="M214.049 492.445H198.93C197.755 492.445 196.804 493.397 196.804 494.572V501.996C196.804 503.172 197.755 504.124 198.93 504.124H214.049C215.224 504.124 216.175 503.172 216.175 501.996V494.572C216.175 493.398 215.223 492.445 214.049 492.445Z" fill="#666666"/>
</g>
<g id="Group_63">
<path id="Vector_86" d="M208.72 492.445H193.6C192.426 492.445 191.474 493.397 191.474 494.572V501.996C191.474 503.172 192.426 504.124 193.6 504.124H208.72C209.894 504.124 210.846 503.172 210.846 501.996V494.572C210.846 493.398 209.894 492.445 208.72 492.445Z" fill="#8E8E8E"/>
</g>
</g>
<g id="Group_64">
<g id="Group_65">
<path id="Vector_87" d="M236.085 492.445H220.965C219.791 492.445 218.839 493.397 218.839 494.572V501.996C218.839 503.172 219.791 504.124 220.965 504.124H236.085C237.259 504.124 238.211 503.172 238.211 501.996V494.572C238.211 493.398 237.259 492.445 236.085 492.445Z" fill="#666666"/>
</g>
<g id="Group_66">
<path id="Vector_88" d="M230.756 492.445H215.637C214.462 492.445 213.511 493.397 213.511 494.572V501.996C213.511 503.172 214.462 504.124 215.637 504.124H230.756C231.931 504.124 232.882 503.172 232.882 501.996V494.572C232.882 493.398 231.93 492.445 230.756 492.445Z" fill="#8E8E8E"/>
</g>
</g>
<g id="Group_67">
<g id="Group_68">
<path id="Vector_89" d="M258.121 492.445H243.002C241.827 492.445 240.876 493.397 240.876 494.572V501.996C240.876 503.172 241.827 504.124 243.002 504.124H258.121C259.296 504.124 260.247 503.172 260.247 501.996V494.572C260.247 493.398 259.296 492.445 258.121 492.445Z" fill="#666666"/>
</g>
<g id="Group_69">
<path id="Vector_90" d="M252.792 492.445H237.673C236.498 492.445 235.547 493.397 235.547 494.572V501.996C235.547 503.172 236.498 504.124 237.673 504.124H252.792C253.966 504.124 254.918 503.172 254.918 501.996V494.572C254.919 493.398 253.966 492.445 252.792 492.445Z" fill="#8E8E8E"/>
</g>
</g>
<g id="Group_70">
<g id="Group_71">
<path id="Vector_91" d="M280.157 492.445H265.038C263.863 492.445 262.912 493.397 262.912 494.572V501.996C262.912 503.172 263.863 504.124 265.038 504.124H280.157C281.331 504.124 282.282 503.172 282.282 501.996V494.572C282.282 493.398 281.331 492.445 280.157 492.445Z" fill="#666666"/>
</g>
<g id="Group_72">
<path id="Vector_92" d="M274.827 492.445H259.709C258.534 492.445 257.583 493.397 257.583 494.572V501.996C257.583 503.172 258.534 504.124 259.709 504.124H274.827C276.003 504.124 276.954 503.172 276.954 501.996V494.572C276.954 493.398 276.003 492.445 274.827 492.445Z" fill="#8E8E8E"/>
</g>
</g>
<g id="Group_73">
<g id="Group_74">
<path id="Vector_93" d="M302.194 492.445H287.073C285.899 492.445 284.948 493.397 284.948 494.572V501.996C284.948 503.172 285.899 504.124 287.073 504.124H302.194C303.368 504.124 304.319 503.172 304.319 501.996V494.572C304.319 493.398 303.368 492.445 302.194 492.445Z" fill="#666666"/>
</g>
<g id="Group_75">
<path id="Vector_94" d="M296.864 492.445H281.745C280.571 492.445 279.618 493.397 279.618 494.572V501.996C279.618 503.172 280.571 504.124 281.745 504.124H296.864C298.038 504.124 298.991 503.172 298.991 501.996V494.572C298.991 493.398 298.038 492.445 296.864 492.445Z" fill="#8E8E8E"/>
</g>
</g>
<g id="Group_76">
<g id="Group_77">
<path id="Vector_95" d="M324.229 492.445H309.11C307.935 492.445 306.985 493.397 306.985 494.572V501.996C306.985 503.172 307.935 504.124 309.11 504.124H324.229C325.405 504.124 326.356 503.172 326.356 501.996V494.572C326.356 493.398 325.403 492.445 324.229 492.445Z" fill="#666666"/>
</g>
<g id="Group_78">
<path id="Vector_96" d="M318.901 492.445H303.782C302.606 492.445 301.655 493.397 301.655 494.572V501.996C301.655 503.172 302.606 504.124 303.782 504.124H318.901C320.075 504.124 321.026 503.172 321.026 501.996V494.572C321.026 493.398 320.075 492.445 318.901 492.445Z" fill="#8E8E8E"/>
</g>
</g>
<g id="Group_79">
<g id="Group_80">
<path id="Vector_97" d="M348.392 492.445H329.021V504.123H348.392V492.445Z" fill="#666666"/>
</g>
<g id="Group_81">
<path id="Vector_98" d="M340.937 492.445H325.819C324.644 492.445 323.692 493.397 323.692 494.572V501.996C323.692 503.172 324.644 504.124 325.819 504.124H340.937C342.112 504.124 343.065 503.172 343.065 501.996V494.572C343.064 493.398 342.11 492.445 340.937 492.445Z" fill="#8E8E8E"/>
</g>
</g>
<g id="Group_82">
<g id="Group_83">
<path id="Vector_99" d="M344.396 458.966H329.274C328.1 458.966 327.149 459.918 327.149 461.093V468.517C327.149 469.691 328.1 470.644 329.274 470.644H344.396C345.569 470.644 346.521 469.692 346.521 468.517V461.093C346.521 459.919 345.569 458.966 344.396 458.966Z" fill="#666666"/>
</g>
<g id="Group_84">
<path id="Vector_100" d="M339.065 458.966H323.946C322.772 458.966 321.819 459.918 321.819 461.093V468.517C321.819 469.691 322.772 470.644 323.946 470.644H339.065C340.239 470.644 341.192 469.692 341.192 468.517V461.093C341.192 459.919 340.239 458.966 339.065 458.966Z" fill="#8E8E8E"/>
</g>
</g>
<g id="Group_85">
<g id="Group_86">
<path id="Vector_101" d="M333.917 438.966H318.796C317.622 438.966 316.671 439.918 316.671 441.093V448.517C316.671 449.691 317.622 450.644 318.796 450.644H333.917C335.091 450.644 336.042 449.692 336.042 448.517V441.093C336.042 439.919 335.091 438.966 333.917 438.966Z" fill="#666666"/>
</g>
<g id="Group_87">
<path id="Vector_102" d="M328.587 438.966H313.468C312.294 438.966 311.341 439.918 311.341 441.093V448.517C311.341 449.691 312.294 450.644 313.468 450.644H328.587C329.761 450.644 330.714 449.692 330.714 448.517V441.093C330.714 439.919 329.761 438.966 328.587 438.966Z" fill="#8E8E8E"/>
</g>
</g>
<g id="Group_88">
<g id="Group_89">
<path id="Vector_103" d="M345.045 411.237H329.924C328.75 411.237 327.799 412.189 327.799 413.364V420.789C327.799 421.964 328.75 422.916 329.924 422.916H345.045C346.219 422.916 347.17 421.964 347.17 420.789V413.364C347.17 412.19 346.219 411.237 345.045 411.237Z" fill="#666666"/>
</g>
<g id="Group_90">
<path id="Vector_104" d="M339.715 411.237H324.596C323.422 411.237 322.469 412.189 322.469 413.364V420.789C322.469 421.964 323.422 422.916 324.596 422.916H339.715C340.889 422.916 341.842 421.964 341.842 420.789V413.364C341.842 412.19 340.889 411.237 339.715 411.237Z" fill="#8E8E8E"/>
</g>
</g>
<g id="Group_91">
<g id="Group_92">
<path id="Vector_105" d="M332.694 381.175H317.573C316.399 381.175 315.448 382.127 315.448 383.302V390.726C315.448 391.9 316.399 392.853 317.573 392.853H332.694C333.868 392.853 334.819 391.901 334.819 390.726V383.302C334.819 382.128 333.868 381.175 332.694 381.175Z" fill="#666666"/>
</g>
<g id="Group_93">
<path id="Vector_106" d="M327.364 381.175H312.245C311.071 381.175 310.118 382.127 310.118 383.302V390.726C310.118 391.9 311.071 392.853 312.245 392.853H327.364C328.538 392.853 329.491 391.901 329.491 390.726V383.302C329.491 382.128 328.538 381.175 327.364 381.175Z" fill="#8E8E8E"/>
</g>
</g>
<g id="Group_94">
<g id="Group_95">
<path id="Vector_107" d="M345.045 347.289H329.924C328.75 347.289 327.799 348.241 327.799 349.417V356.841C327.799 358.016 328.75 358.968 329.924 358.968H345.045C346.219 358.968 347.17 358.016 347.17 356.841V349.417C347.17 348.242 346.219 347.289 345.045 347.289Z" fill="#666666"/>
</g>
<g id="Group_96">
<path id="Vector_108" d="M339.715 347.289H324.596C323.422 347.289 322.469 348.241 322.469 349.417V356.841C322.469 358.016 323.422 358.968 324.596 358.968H339.715C340.889 358.968 341.842 358.016 341.842 356.841V349.417C341.842 348.242 340.889 347.289 339.715 347.289Z" fill="#8E8E8E"/>
</g>
</g>
<g id="Group_97">
<g id="Group_98">
<path id="Vector_109" d="M317.68 324.128H302.559C301.385 324.128 300.434 325.079 300.434 326.255V333.679C300.434 334.854 301.385 335.806 302.559 335.806H317.68C318.854 335.806 319.805 334.854 319.805 333.679V326.255C319.805 325.082 318.854 324.128 317.68 324.128Z" fill="#666666"/>
</g>
<g id="Group_99">
<path id="Vector_110" d="M312.35 324.128H297.231C296.057 324.128 295.104 325.079 295.104 326.255V333.679C295.104 334.854 296.057 335.806 297.231 335.806H312.35C313.524 335.806 314.478 334.854 314.478 333.679V326.255C314.477 325.082 313.523 324.128 312.35 324.128Z" fill="#8E8E8E"/>
</g>
</g>
<g id="Group_100">
<g id="Group_101">
<path id="Vector_111" d="M345.045 309.295H329.924C328.75 309.295 327.799 310.246 327.799 311.422V318.846C327.799 320.021 328.75 320.973 329.924 320.973H345.045C346.219 320.973 347.17 320.021 347.17 318.846V311.422C347.17 310.248 346.219 309.295 345.045 309.295Z" fill="#666666"/>
</g>
<g id="Group_102">
<path id="Vector_112" d="M339.715 309.295H324.596C323.422 309.295 322.469 310.246 322.469 311.422V318.846C322.469 320.021 323.422 320.973 324.596 320.973H339.715C340.889 320.973 341.842 320.021 341.842 318.846V311.422C341.842 310.248 340.889 309.295 339.715 309.295Z" fill="#8E8E8E"/>
</g>
</g>
<g id="Group_103">
<g id="Group_104">
<path id="Vector_113" d="M267.68 316.128H252.559C251.385 316.128 250.434 317.079 250.434 318.255V325.679C250.434 326.854 251.385 327.806 252.559 327.806H267.68C268.854 327.806 269.805 326.854 269.805 325.679V318.255C269.805 317.082 268.854 316.128 267.68 316.128Z" fill="#666666"/>
</g>
<g id="Group_105">
<path id="Vector_114" d="M262.35 316.128H247.232C246.057 316.128 245.104 317.079 245.104 318.255V325.679C245.104 326.854 246.057 327.806 247.232 327.806H262.35C263.525 327.806 264.477 326.854 264.477 325.679V318.255C264.477 317.082 263.524 316.128 262.35 316.128Z" fill="#8E8E8E"/>
</g>
</g>
<g id="Group_106">
<g id="Group_107">
<path id="Vector_115" d="M222.081 324.128H206.96C205.786 324.128 204.835 325.079 204.835 326.255V333.679C204.835 334.854 205.786 335.806 206.96 335.806H222.081C223.255 335.806 224.206 334.854 224.206 333.679V326.255C224.206 325.082 223.255 324.128 222.081 324.128Z" fill="#666666"/>
</g>
<g id="Group_108">
<path id="Vector_116" d="M216.751 324.128H201.632C200.458 324.128 199.505 325.079 199.505 326.255V333.679C199.505 334.854 200.458 335.806 201.632 335.806H216.751C217.925 335.806 218.878 334.854 218.878 333.679V326.255C218.878 325.082 217.925 324.128 216.751 324.128Z" fill="#8E8E8E"/>
</g>
</g>
<g id="Group_109">
<g id="Group_110">
<path id="Vector_117" d="M168.346 316.128H153.225C152.051 316.128 151.1 317.079 151.1 318.255V325.679C151.1 326.854 152.051 327.806 153.225 327.806H168.346C169.521 327.806 170.471 326.854 170.471 325.679V318.255C170.471 317.082 169.521 316.128 168.346 316.128Z" fill="#666666"/>
</g>
<g id="Group_111">
<path id="Vector_118" d="M163.016 316.128H147.897C146.723 316.128 145.77 317.079 145.77 318.255V325.679C145.77 326.854 146.723 327.806 147.897 327.806H163.016C164.19 327.806 165.143 326.854 165.143 325.679V318.255C165.143 317.082 164.19 316.128 163.016 316.128Z" fill="#8E8E8E"/>
</g>
</g>
<g id="Group_112">
<g id="Group_113">
<path id="Vector_119" d="M113.373 324.128H98.252C97.0782 324.128 96.127 325.079 96.127 326.255V333.679C96.127 334.854 97.0782 335.806 98.252 335.806H113.373C114.547 335.806 115.498 334.854 115.498 333.679V326.255C115.498 325.082 114.546 324.128 113.373 324.128Z" fill="#666666"/>
</g>
<g id="Group_114">
<path id="Vector_120" d="M108.042 324.128H92.9229C91.7491 324.128 90.7959 325.079 90.7959 326.255V333.679C90.7959 334.854 91.749 335.806 92.9229 335.806H108.042C109.216 335.806 110.169 334.854 110.169 333.679V326.255C110.169 325.082 109.216 324.128 108.042 324.128Z" fill="#8E8E8E"/>
</g>
</g>
<g id="Group_115">
<g id="Group_116">
<path id="Vector_121" d="M83.373 316.128H68.252C67.0782 316.128 66.127 317.079 66.127 318.255V325.679C66.127 326.854 67.0782 327.806 68.252 327.806H83.373C84.5468 327.806 85.498 326.854 85.498 325.679V318.255C85.498 317.082 84.5459 316.128 83.373 316.128Z" fill="#666666"/>
</g>
<g id="Group_117">
<path id="Vector_122" d="M78.042 316.128H62.9229C61.7491 316.128 60.7959 317.079 60.7959 318.255V325.679C60.7959 326.854 61.749 327.806 62.9229 327.806H78.042C79.2158 327.806 80.169 326.854 80.169 325.679V318.255C80.1689 317.082 79.2158 316.128 78.042 316.128Z" fill="#8E8E8E"/>
</g>
</g>
<g id="Group_118">
<g id="Group_119">
<path id="Vector_123" d="M91.2059 354.295H76.085C74.9112 354.295 73.96 355.246 73.96 356.422V363.846C73.96 365.021 74.9112 365.973 76.085 365.973H91.2061C92.3799 365.973 93.3311 365.021 93.3311 363.846V356.422C93.331 355.248 92.3798 354.295 91.2059 354.295Z" fill="#666666"/>
</g>
<g id="Group_120">
<path id="Vector_124" d="M85.876 354.295H70.7569C69.5831 354.295 68.6299 355.246 68.6299 356.422V363.846C68.6299 365.021 69.583 365.973 70.7569 365.973H85.876C87.0498 365.973 88.003 365.021 88.003 363.846V356.422C88.0029 355.248 87.0498 354.295 85.876 354.295Z" fill="#8E8E8E"/>
</g>
</g>
<g id="Group_121">
<g id="Group_122">
<path id="Vector_125" d="M78.855 390.223H63.7339C62.5601 390.223 61.6089 391.175 61.6089 392.35V399.773C61.6089 400.948 62.5601 401.9 63.7339 401.9H78.855C80.0288 401.9 80.98 400.948 80.98 399.773V392.35C80.98 391.176 80.0288 390.223 78.855 390.223Z" fill="#666666"/>
</g>
<g id="Group_123">
<path id="Vector_126" d="M73.5249 390.223H58.4062C57.2319 390.223 56.2788 391.175 56.2788 392.35V399.773C56.2788 400.948 57.2319 401.9 58.4062 401.9H73.5249C74.6992 401.9 75.6519 400.948 75.6519 399.773V392.35C75.6518 391.176 74.6992 390.223 73.5249 390.223Z" fill="#8E8E8E"/>
</g>
</g>
<g id="Group_124">
<g id="Group_125">
<path id="Vector_127" d="M92.835 421.526H77.7139C76.5401 421.526 75.5889 422.478 75.5889 423.653V431.077C75.5889 432.253 76.5401 433.205 77.7139 433.205H92.835C94.0088 433.205 94.96 432.253 94.96 431.077V423.653C94.96 422.48 94.0088 421.526 92.835 421.526Z" fill="#666666"/>
</g>
<g id="Group_126">
<path id="Vector_128" d="M87.5049 421.526H72.3862C71.2119 421.526 70.2588 422.478 70.2588 423.653V431.077C70.2588 432.253 71.2119 433.205 72.3862 433.205H87.5049C88.6792 433.205 89.6319 432.253 89.6319 431.077V423.653C89.6318 422.48 88.6792 421.526 87.5049 421.526Z" fill="#8E8E8E"/>
</g>
</g>
<g id="Group_127">
<g id="Group_128">
<path id="Vector_129" d="M213.387 358.967H198.266C197.092 358.967 196.141 359.919 196.141 361.094V368.518C196.141 369.692 197.092 370.645 198.266 370.645H213.387C214.562 370.645 215.512 369.693 215.512 368.518V361.094C215.512 359.92 214.562 358.967 213.387 358.967Z" fill="#666666"/>
</g>
<g id="Group_129">
<path id="Vector_130" d="M208.057 358.967H192.939C191.764 358.967 190.812 359.919 190.812 361.094V368.518C190.812 369.692 191.764 370.645 192.939 370.645H208.057C209.232 370.645 210.184 369.693 210.184 368.518V361.094C210.184 359.92 209.23 358.967 208.057 358.967Z" fill="#8E8E8E"/>
</g>
</g>
<g id="Group_130">
<g id="Group_131">
<path id="Vector_131" d="M213.389 403.412H198.268C197.094 403.412 196.143 404.364 196.143 405.539V412.964C196.143 414.139 197.094 415.091 198.268 415.091H213.389C214.563 415.091 215.514 414.139 215.514 412.964V405.539C215.514 404.365 214.561 403.412 213.389 403.412Z" fill="#666666"/>
</g>
<g id="Group_132">
<path id="Vector_132" d="M208.059 403.412H192.94C191.766 403.412 190.813 404.364 190.813 405.539V412.964C190.813 414.139 191.766 415.091 192.94 415.091H208.059C209.233 415.091 210.187 414.139 210.187 412.964V405.539C210.187 404.365 209.232 403.412 208.059 403.412Z" fill="#8E8E8E"/>
</g>
</g>
<g id="Group_133">
<g id="Group_134">
<path id="Vector_133" d="M212.368 442.041H197.247C196.073 442.041 195.122 442.993 195.122 444.169V451.593C195.122 452.768 196.073 453.72 197.247 453.72H212.368C213.542 453.72 214.493 452.768 214.493 451.593V444.169C214.493 442.995 213.542 442.041 212.368 442.041Z" fill="#666666"/>
</g>
<g id="Group_135">
<path id="Vector_134" d="M207.038 442.041H191.919C190.745 442.041 189.792 442.993 189.792 444.169V451.593C189.792 452.768 190.745 453.72 191.919 453.72H207.038C208.212 453.72 209.165 452.768 209.165 451.593V444.169C209.165 442.995 208.212 442.041 207.038 442.041Z" fill="#8E8E8E"/>
</g>
</g>
</g>
<path id="Vector_135" d="M301.655 464.193C301.655 464.193 303.929 467.264 308.362 470.006C312.796 472.743 316.671 472.02 320.21 476.13C321.905 478.1 324.087 481.136 327.222 481.528C336.284 482.669 345.725 481.967 348.431 492.445C342.372 492.445 318.919 484.107 318.919 484.107C318.919 484.107 295.952 471.376 296.517 470.487C297.079 469.601 301.655 464.193 301.655 464.193Z" fill="#8FCDD5"/>
<g id="Group_136">
<path id="Vector_136" d="M615.401 549.567H1.5107C0.675696 549.567 0 548.818 0 547.896V536.946C0 536.023 0.676796 535.274 1.5107 535.274H615.402C616.238 535.274 616.914 536.023 616.914 536.946V547.896C616.913 548.818 616.237 549.567 615.401 549.567Z" fill="#595F87"/>
</g>
<g id="Group_137">
<path id="Vector_137" d="M478.905 264.722H359.546V355.918H478.905V264.722Z" fill="#576C8B" stroke="#595959" stroke-width="11" stroke-miterlimit="10"/>
</g>
<g id="Group_138">
<g id="Group_139">
<g id="Group_140">
<path id="Vector_138" d="M355.331 217.148H333.579C331.884 217.148 330.509 215.642 330.509 213.781V201.978C330.509 200.118 331.884 198.61 333.579 198.61H355.331C357.028 198.61 358.401 200.118 358.401 201.978V213.781C358.401 215.642 357.028 217.148 355.331 217.148Z" fill="#666666"/>
</g>
<g id="Group_141">
<path id="Vector_139" d="M347.661 217.148H325.909C324.212 217.148 322.837 215.642 322.837 213.781V201.978C322.837 200.118 324.212 198.61 325.909 198.61H347.661C349.357 198.61 350.73 200.118 350.73 201.978V213.781C350.73 215.642 349.357 217.148 347.661 217.148Z" fill="#8E8E8E"/>
</g>
<g id="Group_142">
<g id="Group_143">
<path id="Vector_140" d="M319.896 217.148H298.143C296.449 217.148 295.074 215.642 295.074 213.781V201.978C295.074 200.118 296.449 198.61 298.143 198.61H319.896C321.592 198.61 322.965 200.118 322.965 201.978V213.781C322.966 215.642 321.593 217.148 319.896 217.148Z" fill="#666666"/>
</g>
<g id="Group_144">
<path id="Vector_141" d="M312.226 217.148H290.474C288.778 217.148 287.403 215.642 287.403 213.781V201.978C287.403 200.118 288.778 198.61 290.474 198.61H312.226C313.921 198.61 315.294 200.118 315.294 201.978V213.781C315.294 215.642 313.921 217.148 312.226 217.148Z" fill="#8E8E8E"/>
</g>
</g>
<g id="Group_145">
<g id="Group_146">
<path id="Vector_142" d="M284.331 217.148H262.579C260.885 217.148 259.51 215.642 259.51 213.781V201.978C259.51 200.118 260.885 198.61 262.579 198.61H284.331C286.028 198.61 287.401 200.118 287.401 201.978V213.781C287.401 215.642 286.028 217.148 284.331 217.148Z" fill="#666666"/>
</g>
<g id="Group_147">
<path id="Vector_143" d="M276.661 217.148H254.909C253.213 217.148 251.837 215.642 251.837 213.781V201.978C251.837 200.118 253.213 198.61 254.909 198.61H276.661C278.357 198.61 279.73 200.118 279.73 201.978V213.781C279.73 215.642 278.357 217.148 276.661 217.148Z" fill="#8E8E8E"/>
</g>
<g id="Group_148">
<g id="Group_149">
<path id="Vector_144" d="M248.896 217.148H227.143C225.45 217.148 224.075 215.642 224.075 213.781V201.978C224.075 200.118 225.45 198.61 227.143 198.61H248.896C250.592 198.61 251.966 200.118 251.966 201.978V213.781C251.966 215.642 250.592 217.148 248.896 217.148Z" fill="#666666"/>
</g>
<g id="Group_150">
<path id="Vector_145" d="M241.225 217.148H219.473C217.778 217.148 216.402 215.642 216.402 213.781V201.978C216.402 200.118 217.778 198.61 219.473 198.61H241.225C242.92 198.61 244.293 200.118 244.293 201.978V213.781C244.293 215.642 242.92 217.148 241.225 217.148Z" fill="#8E8E8E"/>
</g>
</g>
</g>
<g id="Group_151">
<g id="Group_152">
<path id="Vector_146" d="M213.46 217.148H191.707C190.013 217.148 188.638 215.642 188.638 213.781V201.978C188.638 200.118 190.013 198.61 191.707 198.61H213.46C215.156 198.61 216.53 200.118 216.53 201.978V213.781C216.531 215.642 215.157 217.148 213.46 217.148Z" fill="#666666"/>
</g>
<g id="Group_153">
<path id="Vector_147" d="M205.79 217.148H184.038C182.342 217.148 180.966 215.642 180.966 213.781V201.978C180.966 200.118 182.342 198.61 184.038 198.61H205.79C207.485 198.61 208.859 200.118 208.859 201.978V213.781C208.859 215.642 207.485 217.148 205.79 217.148Z" fill="#8E8E8E"/>
</g>
<g id="Group_154">
<g id="Group_155">
<path id="Vector_148" d="M178.025 217.148H156.272C154.578 217.148 153.203 215.642 153.203 213.781V201.978C153.203 200.118 154.578 198.61 156.272 198.61H178.025C179.72 198.61 181.094 200.118 181.094 201.978V213.781C181.095 215.642 179.721 217.148 178.025 217.148Z" fill="#666666"/>
</g>
<g id="Group_156">
<path id="Vector_149" d="M170.355 217.148H148.601C146.905 217.148 145.529 215.642 145.529 213.781V201.978C145.529 200.118 146.905 198.61 148.601 198.61H170.355C172.048 198.61 173.421 200.118 173.421 201.978V213.781C173.422 215.642 172.049 217.148 170.355 217.148Z" fill="#8E8E8E"/>
</g>
</g>
<g id="Group_157">
<g id="Group_158">
<path id="Vector_150" d="M142.459 217.148H120.707C119.013 217.148 117.638 215.642 117.638 213.781V201.978C117.638 200.118 119.013 198.61 120.707 198.61H142.459C144.156 198.61 145.529 200.118 145.529 201.978V213.781C145.53 215.642 144.157 217.148 142.459 217.148Z" fill="#666666"/>
</g>
<g id="Group_159">
<path id="Vector_151" d="M134.79 217.148H113.038C111.342 217.148 109.966 215.642 109.966 213.781V201.978C109.966 200.118 111.342 198.61 113.038 198.61H134.79C136.485 198.61 137.858 200.118 137.858 201.978V213.781C137.858 215.642 136.485 217.148 134.79 217.148Z" fill="#8E8E8E"/>
</g>
<g id="Group_160">
<g id="Group_161">
<path id="Vector_152" d="M107.024 217.148H85.2709C83.5771 217.148 82.2021 215.642 82.2021 213.781V201.978C82.2021 200.118 83.5771 198.61 85.2709 198.61H107.024C108.72 198.61 110.094 200.118 110.094 201.978V213.781C110.095 215.642 108.721 217.148 107.024 217.148Z" fill="#666666"/>
</g>
<g id="Group_162">
<path id="Vector_153" d="M99.3541 217.148H77.6021C75.9058 217.148 74.5298 215.642 74.5298 213.781V201.978C74.5298 200.118 75.9063 198.61 77.6021 198.61H99.3541C101.049 198.61 102.422 200.118 102.422 201.978V213.781C102.422 215.642 101.049 217.148 99.3541 217.148Z" fill="#8E8E8E"/>
</g>
</g>
</g>
</g>
<g id="Group_163">
<g id="Group_164">
<g id="Group_165">
<g id="Group_166">
<path id="Vector_154" d="M71.459 217.148H49.706C48.0122 217.148 46.6372 215.642 46.6372 213.781V201.978C46.6372 200.118 48.0122 198.61 49.706 198.61H71.4589C73.1552 198.61 74.5287 200.118 74.5287 201.978V213.781C74.5288 215.642 73.1548 217.148 71.459 217.148Z" fill="#666666"/>
</g>
<g id="Group_167">
<path id="Vector_155" d="M63.7882 217.148H42.0362C40.3399 217.148 38.9639 215.642 38.9639 213.781V201.978C38.9639 200.118 40.3399 198.61 42.0362 198.61H63.7882C65.483 198.61 66.8561 200.118 66.8561 201.978V213.781C66.856 215.642 65.483 217.148 63.7882 217.148Z" fill="#8E8E8E"/>
</g>
</g>
</g>
</g>
</g>
</g>
<g id="Group_168">
<g id="Group_169">
<g id="Group_170">
<g id="Group_171">
<path id="Vector_156" d="M432.749 216.976H454.554C456.255 216.976 457.632 215.482 457.632 213.642V201.947C457.632 200.105 456.255 198.611 454.554 198.611H432.749C431.05 198.611 429.673 200.105 429.673 201.947V213.642C429.673 215.484 431.05 216.976 432.749 216.976Z" fill="#666666"/>
</g>
<g id="Group_172">
<path id="Vector_157" d="M440.44 216.976H462.247C463.946 216.976 465.325 215.482 465.325 213.642V201.947C465.325 200.105 463.946 198.611 462.247 198.611H440.44C438.741 198.611 437.364 200.105 437.364 201.947V213.642C437.364 215.484 438.741 216.976 440.44 216.976Z" fill="#8E8E8E"/>
</g>
</g>
<g id="Group_173">
<g id="Group_174">
<path id="Vector_158" d="M468.306 216.976H490.114C491.81 216.976 493.19 215.481 493.19 213.64V201.945C493.19 200.104 491.81 198.611 490.114 198.611H468.306C466.608 198.611 465.231 200.105 465.231 201.945V213.64C465.227 215.482 466.606 216.976 468.306 216.976Z" fill="#666666"/>
</g>
<g id="Group_175">
<path id="Vector_159" d="M475.997 216.976H497.802C499.503 216.976 500.88 215.481 500.88 213.64V201.945C500.88 200.104 499.503 198.611 497.802 198.611H475.997C474.298 198.611 472.921 200.105 472.921 201.945V213.64C472.919 215.482 474.298 216.976 475.997 216.976Z" fill="#8E8E8E"/>
</g>
</g>
<g id="Group_176">
<g id="Group_177">
<path id="Vector_160" d="M397.097 216.976H418.903C420.603 216.976 421.979 215.482 421.979 213.642V201.947C421.979 200.105 420.603 198.611 418.903 198.611H397.097C395.399 198.611 394.021 200.105 394.021 201.947V213.642C394.021 215.484 395.397 216.976 397.097 216.976Z" fill="#666666"/>
</g>
<g id="Group_178">
<path id="Vector_161" d="M404.788 216.976H426.595C428.294 216.976 429.673 215.482 429.673 213.642V201.947C429.673 200.105 428.294 198.611 426.595 198.611H404.788C403.089 198.611 401.712 200.105 401.712 201.947V213.642C401.712 215.484 403.089 216.976 404.788 216.976Z" fill="#8E8E8E"/>
</g>
</g>
<g id="Group_179">
<g id="Group_180">
<path id="Vector_162" d="M361.444 216.976H383.251C384.95 216.976 386.327 215.482 386.327 213.642V201.947C386.327 200.105 384.95 198.611 383.251 198.611H361.444C359.745 198.611 358.368 200.105 358.368 201.947V213.642C358.368 215.484 359.745 216.976 361.444 216.976Z" fill="#666666"/>
</g>
<g id="Group_181">
<path id="Vector_163" d="M369.136 216.976H390.944C392.642 216.976 394.021 215.482 394.021 213.642V201.947C394.021 200.105 392.642 198.611 390.944 198.611H369.136C367.437 198.611 366.06 200.105 366.06 201.947V213.642C366.06 215.484 367.437 216.976 369.136 216.976Z" fill="#8E8E8E"/>
</g>
</g>
<g id="Group_182">
<g id="Group_183">
<path id="Vector_164" d="M356.078 250.298H371.272C372.454 250.298 373.414 249.349 373.414 248.178V240.746C373.414 239.574 372.454 238.628 371.272 238.628H356.078C354.896 238.628 353.936 239.575 353.936 240.746V248.178C353.934 249.35 354.896 250.298 356.078 250.298Z" fill="#666666"/>
</g>
<g id="Group_184">
<path id="Vector_165" d="M361.437 250.298H376.629C377.814 250.298 378.773 249.349 378.773 248.178V240.746C378.773 239.574 377.814 238.628 376.629 238.628H361.437C360.253 238.628 359.295 239.575 359.295 240.746V248.178C359.293 249.35 360.254 250.298 361.437 250.298Z" fill="#8E8E8E"/>
</g>
</g>
<g id="Group_185">
<g id="Group_186">
<path id="Vector_166" d="M402.911 256.133H418.105C419.287 256.133 420.247 255.184 420.247 254.013V246.582C420.247 245.409 419.287 244.463 418.105 244.463H402.911C401.73 244.463 400.769 245.41 400.769 246.582V254.013C400.767 255.184 401.73 256.133 402.911 256.133Z" fill="#666666"/>
</g>
<g id="Group_187">
<path id="Vector_167" d="M408.271 256.133H423.463C424.647 256.133 425.607 255.184 425.607 254.013V246.582C425.607 245.409 424.647 244.463 423.463 244.463H408.271C407.087 244.463 406.129 245.41 406.129 246.582V254.013C406.126 255.184 407.087 256.133 408.271 256.133Z" fill="#8E8E8E"/>
</g>
</g>
<g id="Group_188">
<g id="Group_189">
<path id="Vector_168" d="M448.911 244.463H464.105C465.287 244.463 466.247 243.514 466.247 242.343V234.911C466.247 233.739 465.287 232.793 464.105 232.793H448.911C447.73 232.793 446.769 233.74 446.769 234.911V242.343C446.767 243.515 447.73 244.463 448.911 244.463Z" fill="#666666"/>
</g>
<g id="Group_190">
<path id="Vector_169" d="M454.271 244.463H469.463C470.647 244.463 471.607 243.514 471.607 242.343V234.911C471.607 233.739 470.647 232.793 469.463 232.793H454.271C453.087 232.793 452.129 233.74 452.129 234.911V242.343C452.126 243.515 453.087 244.463 454.271 244.463Z" fill="#8E8E8E"/>
</g>
</g>
<g id="Group_191">
<g id="Group_192">
<path id="Vector_170" d="M465.991 392.201H481.185C482.367 392.201 483.327 391.253 483.327 390.082V382.65C483.327 381.478 482.367 380.531 481.185 380.531H465.991C464.81 380.531 463.849 381.479 463.849 382.65V390.082C463.847 391.253 464.81 392.201 465.991 392.201Z" fill="#666666"/>
</g>
<g id="Group_193">
<path id="Vector_171" d="M471.351 392.201H486.543C487.728 392.201 488.687 391.253 488.687 390.082V382.65C488.687 381.478 487.728 380.531 486.543 380.531H471.351C470.167 380.531 469.209 381.479 469.209 382.65V390.082C469.206 391.253 470.167 392.201 471.351 392.201Z" fill="#8E8E8E"/>
</g>
<g id="Group_194">
<g id="Group_195">
<path id="Vector_172" d="M447.326 420.388H462.521C463.702 420.388 464.662 419.438 464.662 418.268V410.837C464.662 409.664 463.702 408.718 462.521 408.718H447.326C446.144 408.718 445.184 409.665 445.184 410.837V418.268C445.182 419.439 446.146 420.388 447.326 420.388Z" fill="#666666"/>
</g>
<g id="Group_196">
<path id="Vector_173" d="M452.687 420.388H467.878C469.063 420.388 470.022 419.438 470.022 418.268V410.837C470.022 409.664 469.063 408.718 467.878 408.718H452.687C451.502 408.718 450.544 409.665 450.544 410.837V418.268C450.541 419.439 451.502 420.388 452.687 420.388Z" fill="#8E8E8E"/>
</g>
</g>
</g>
<g id="Group_197">
<g id="Group_198">
<path id="Vector_174" d="M418.131 379.303H433.325C434.507 379.303 435.467 378.354 435.467 377.183V369.752C435.467 368.579 434.507 367.633 433.325 367.633H418.131C416.949 367.633 415.989 368.58 415.989 369.752V377.183C415.986 378.355 416.949 379.303 418.131 379.303Z" fill="#666666"/>
</g>
<g id="Group_199">
<path id="Vector_175" d="M423.49 379.303H438.682C439.866 379.303 440.825 378.354 440.825 377.183V369.752C440.825 368.579 439.866 367.633 438.682 367.633H423.49C422.306 367.633 421.348 368.58 421.348 369.752V377.183C421.346 378.355 422.307 379.303 423.49 379.303Z" fill="#8E8E8E"/>
</g>
</g>
<g id="Group_200">
<g id="Group_201">
<path id="Vector_176" d="M375.297 393.636H390.491C391.673 393.636 392.633 392.687 392.633 391.516V384.085C392.633 382.912 391.673 381.966 390.491 381.966H375.297C374.115 381.966 373.155 382.913 373.155 384.085V391.516C373.152 392.688 374.115 393.636 375.297 393.636Z" fill="#666666"/>
</g>
<g id="Group_202">
<path id="Vector_177" d="M380.656 393.636H395.848C397.032 393.636 397.991 392.687 397.991 391.516V384.085C397.991 382.912 397.032 381.966 395.848 381.966H380.656C379.472 381.966 378.514 382.913 378.514 384.085V391.516C378.512 392.688 379.473 393.636 380.656 393.636Z" fill="#8E8E8E"/>
</g>
</g>
<g id="Group_203">
<g id="Group_204">
<path id="Vector_178" d="M353.496 375.303H368.69C369.872 375.303 370.832 374.353 370.832 373.183V365.752C370.832 364.579 369.872 363.633 368.69 363.633H353.496C352.315 363.633 351.354 364.58 351.354 365.752V373.183C351.352 374.354 352.314 375.303 353.496 375.303Z" fill="#666666"/>
</g>
<g id="Group_205">
<path id="Vector_179" d="M358.854 375.303H374.047C375.232 375.303 376.19 374.353 376.19 373.183V365.752C376.19 364.579 375.232 363.633 374.047 363.633H358.854C357.671 363.633 356.713 364.58 356.713 365.752V373.183C356.711 374.354 357.672 375.303 358.854 375.303Z" fill="#8E8E8E"/>
</g>
</g>
<g id="Group_206">
<g id="Group_207">
<path id="Vector_180" d="M351.964 463.4H367.158C368.34 463.4 369.3 462.451 369.3 461.28V453.85C369.3 452.678 368.34 451.73 367.158 451.73H351.964C350.782 451.73 349.822 452.679 349.822 453.85V461.28C349.819 462.452 350.782 463.4 351.964 463.4Z" fill="#666666"/>
</g>
<g id="Group_208">
<path id="Vector_181" d="M357.323 463.4H372.515C373.699 463.4 374.658 462.451 374.658 461.28V453.85C374.658 452.678 373.699 451.73 372.515 451.73H357.323C356.139 451.73 355.181 452.679 355.181 453.85V461.28C355.179 462.452 356.14 463.4 357.323 463.4Z" fill="#8E8E8E"/>
</g>
</g>
<g id="Group_209">
<g id="Group_210">
<path id="Vector_182" d="M352.631 420.566H367.825C369.007 420.566 369.967 419.617 369.967 418.446V411.016C369.967 409.844 369.007 408.896 367.825 408.896H352.631C351.449 408.896 350.489 409.845 350.489 411.016V418.446C350.486 419.618 351.449 420.566 352.631 420.566Z" fill="#666666"/>
</g>
<g id="Group_211">
<path id="Vector_183" d="M357.99 420.566H373.182C374.366 420.566 375.325 419.617 375.325 418.446V411.016C375.325 409.844 374.366 408.896 373.182 408.896H357.99C356.806 408.896 355.848 409.845 355.848 411.016V418.446C355.846 419.618 356.807 420.566 357.99 420.566Z" fill="#8E8E8E"/>
</g>
</g>
<g id="Group_212">
<g id="Group_213">
<path id="Vector_184" d="M351.964 497.566H367.158C368.34 497.566 369.3 496.617 369.3 495.446V488.016C369.3 486.844 368.34 485.896 367.158 485.896H351.964C350.782 485.896 349.822 486.845 349.822 488.016V495.446C349.819 496.618 350.782 497.566 351.964 497.566Z" fill="#666666"/>
</g>
<g id="Group_214">
<path id="Vector_185" d="M357.323 497.566H372.515C373.699 497.566 374.658 496.617 374.658 495.446V488.016C374.658 486.844 373.699 485.896 372.515 485.896H357.323C356.139 485.896 355.181 486.845 355.181 488.016V495.446C355.179 496.618 356.14 497.566 357.323 497.566Z" fill="#8E8E8E"/>
</g>
</g>
<g id="Group_215">
<g id="Group_216">
<path id="Vector_186" d="M352.631 531.899H367.825C369.007 531.899 369.967 530.95 369.967 529.779V522.349C369.967 521.177 369.007 520.229 367.825 520.229H352.631C351.449 520.229 350.489 521.178 350.489 522.349V529.779C350.486 530.951 351.449 531.899 352.631 531.899Z" fill="#666666"/>
</g>
<g id="Group_217">
<path id="Vector_187" d="M357.99 531.899H373.182C374.366 531.899 375.325 530.95 375.325 529.779V522.349C375.325 521.177 374.366 520.229 373.182 520.229H357.99C356.806 520.229 355.848 521.178 355.848 522.349V529.779C355.846 530.951 356.807 531.899 357.99 531.899Z" fill="#8E8E8E"/>
</g>
</g>
<g id="Group_218">
<g id="Group_219">
<path id="Vector_188" d="M465.547 446.679H480.741C481.923 446.679 482.883 445.729 482.883 444.559V437.128C482.883 435.955 481.923 435.009 480.741 435.009H465.547C464.365 435.009 463.405 435.956 463.405 437.128V444.559C463.402 445.73 464.365 446.679 465.547 446.679Z" fill="#666666"/>
</g>
<g id="Group_220">
<path id="Vector_189" d="M470.906 446.679H486.098C487.282 446.679 488.241 445.729 488.241 444.559V437.128C488.241 435.955 487.282 435.009 486.098 435.009H470.906C469.722 435.009 468.764 435.956 468.764 437.128V444.559C468.762 445.73 469.723 446.679 470.906 446.679Z" fill="#8E8E8E"/>
</g>
<g id="Group_221">
<g id="Group_222">
<path id="Vector_190" d="M453.129 472.431H468.323C469.505 472.431 470.465 471.481 470.465 470.311V462.88C470.465 461.707 469.505 460.761 468.323 460.761H453.129C451.947 460.761 450.987 461.709 450.987 462.88V470.311C450.984 471.482 451.947 472.431 453.129 472.431Z" fill="#666666"/>
</g>
<g id="Group_223">
<path id="Vector_191" d="M458.488 472.431H473.68C474.864 472.431 475.823 471.481 475.823 470.311V462.88C475.823 461.707 474.864 460.761 473.68 460.761H458.488C457.304 460.761 456.346 461.709 456.346 462.88V470.311C456.344 471.482 457.305 472.431 458.488 472.431Z" fill="#8E8E8E"/>
</g>
</g>
</g>
<g id="Group_224">
<g id="Group_225">
<path id="Vector_192" d="M446.07 499.467H461.264C462.446 499.467 463.406 498.518 463.406 497.347V489.916C463.406 488.743 462.446 487.797 461.264 487.797H446.07C444.888 487.797 443.928 488.744 443.928 489.916V497.347C443.926 498.518 444.889 499.467 446.07 499.467Z" fill="#666666"/>
</g>
<g id="Group_226">
<path id="Vector_193" d="M451.43 499.467H466.622C467.806 499.467 468.765 498.518 468.765 497.347V489.916C468.765 488.743 467.806 487.797 466.622 487.797H451.43C450.246 487.797 449.288 488.744 449.288 489.916V497.347C449.285 498.518 450.246 499.467 451.43 499.467Z" fill="#8E8E8E"/>
</g>
<g id="Group_227">
<path id="Vector_194" d="M456.215 523.598H471.409C472.591 523.598 473.551 522.648 473.551 521.478V514.047C473.551 512.875 472.591 511.928 471.409 511.928H456.215C455.033 511.928 454.073 512.875 454.073 514.047V521.478C454.07 522.649 455.033 523.598 456.215 523.598Z" fill="#666666"/>
</g>
<g id="Group_228">
<path id="Vector_195" d="M461.574 523.598H476.766C477.95 523.598 478.909 522.648 478.909 521.478V514.047C478.909 512.875 477.95 511.928 476.766 511.928H461.574C460.39 511.928 459.432 512.875 459.432 514.047V521.478C459.43 522.649 460.391 523.598 461.574 523.598Z" fill="#8E8E8E"/>
</g>
</g>
</g>
</g>
<g id="Group_229">
<g id="Group_230">
<g id="Group_231">
<path id="Vector_196" d="M37.7959 523.598H22.6758C21.502 523.598 20.5498 524.55 20.5498 525.725V533.148C20.5498 534.322 21.5019 535.274 22.6758 535.274H37.7959C38.9702 535.274 39.9219 534.322 39.9219 533.148V525.725C39.9228 524.551 38.9712 523.598 37.7959 523.598Z" fill="#666666"/>
</g>
<g id="Group_232">
<path id="Vector_197" d="M32.4668 523.598H15.2212V535.274H32.4668C33.6411 535.274 34.5928 534.323 34.5928 533.148V525.725C34.5937 524.551 33.6411 523.598 32.4668 523.598Z" fill="#8E8E8E"/>
</g>
</g>
<g id="Group_233">
<g id="Group_234">
<path id="Vector_198" d="M59.833 523.598H44.7129C43.5391 523.598 42.5869 524.55 42.5869 525.725V533.148C42.5869 534.322 43.539 535.274 44.7129 535.274H59.833C61.0068 535.274 61.959 534.322 61.959 533.148V525.725C61.958 524.551 61.0068 523.598 59.833 523.598Z" fill="#666666"/>
</g>
<g id="Group_235">
<path id="Vector_199" d="M54.5029 523.598H39.3828C38.209 523.598 37.2568 524.55 37.2568 525.725V533.148C37.2568 534.322 38.2089 535.274 39.3828 535.274H54.5029C55.6772 535.274 56.6289 534.322 56.6289 533.148V525.725C56.6299 524.551 55.6782 523.598 54.5029 523.598Z" fill="#8E8E8E"/>
</g>
</g>
<g id="Group_236">
<g id="Group_237">
<path id="Vector_200" d="M81.8691 523.598H66.749C65.5752 523.598 64.623 524.55 64.623 525.725V533.148C64.623 534.322 65.5751 535.274 66.749 535.274H81.8691C83.0429 535.274 83.9951 534.322 83.9951 533.148V525.725C83.9951 524.551 83.043 523.598 81.8691 523.598Z" fill="#666666"/>
</g>
<g id="Group_238">
<path id="Vector_201" d="M76.54 523.598H61.42C60.2462 523.598 59.2939 524.55 59.2939 525.725V533.148C59.2939 534.322 60.2461 535.274 61.42 535.274H76.54C77.7138 535.274 78.666 534.322 78.666 533.148V525.725C78.666 524.551 77.7139 523.598 76.54 523.598Z" fill="#8E8E8E"/>
</g>
</g>
<g id="Group_239">
<g id="Group_240">
<path id="Vector_202" d="M103.906 523.598H88.7862C87.6119 523.598 86.6602 524.55 86.6602 525.725V533.148C86.6602 534.322 87.6119 535.274 88.7862 535.274H103.906C105.08 535.274 106.032 534.322 106.032 533.148V525.725C106.032 524.551 105.08 523.598 103.906 523.598Z" fill="#666666"/>
</g>
<g id="Group_241">
<path id="Vector_203" d="M98.5763 523.598H83.4571C82.2833 523.598 81.3311 524.55 81.3311 525.725V533.148C81.3311 534.322 82.2832 535.274 83.4571 535.274H98.5762C99.75 535.274 100.702 534.322 100.702 533.148V525.725C100.703 524.551 99.7501 523.598 98.5763 523.598Z" fill="#8E8E8E"/>
</g>
</g>
<g id="Group_242">
<g id="Group_243">
<path id="Vector_204" d="M125.941 523.598H110.822C109.648 523.598 108.696 524.55 108.696 525.725V533.148C108.696 534.322 109.648 535.274 110.822 535.274H125.941C127.115 535.274 128.067 534.322 128.067 533.148V525.725C128.068 524.551 127.116 523.598 125.941 523.598Z" fill="#666666"/>
</g>
<g id="Group_244">
<path id="Vector_205" d="M120.613 523.598H105.494C104.319 523.598 103.368 524.55 103.368 525.725V533.148C103.368 534.322 104.32 535.274 105.494 535.274H120.613C121.787 535.274 122.739 534.322 122.739 533.148V525.725C122.739 524.551 121.787 523.598 120.613 523.598Z" fill="#8E8E8E"/>
</g>
</g>
<g id="Group_245">
<g id="Group_246">
<path id="Vector_206" d="M147.978 523.598H132.858C131.684 523.598 130.732 524.55 130.732 525.725V533.148C130.732 534.322 131.684 535.274 132.858 535.274H147.978C149.153 535.274 150.105 534.322 150.105 533.148V525.725C150.105 524.551 149.152 523.598 147.978 523.598Z" fill="#666666"/>
</g>
<g id="Group_247">
<path id="Vector_207" d="M142.648 523.598H127.529C126.355 523.598 125.403 524.55 125.403 525.725V533.148C125.403 534.322 126.355 535.274 127.529 535.274H142.648C143.823 535.274 144.774 534.322 144.774 533.148V525.725C144.775 524.551 143.823 523.598 142.648 523.598Z" fill="#8E8E8E"/>
</g>
</g>
<g id="Group_248">
<g id="Group_249">
<path id="Vector_208" d="M170.014 523.598H154.896C153.72 523.598 152.769 524.55 152.769 525.725V533.148C152.769 534.322 153.72 535.274 154.896 535.274H170.014C171.189 535.274 172.14 534.322 172.14 533.148V525.725C172.14 524.551 171.189 523.598 170.014 523.598Z" fill="#666666"/>
</g>
<g id="Group_250">
<path id="Vector_209" d="M164.685 523.598H149.567C148.391 523.598 147.441 524.55 147.441 525.725V533.148C147.441 534.322 148.393 535.274 149.567 535.274H164.685C165.861 535.274 166.812 534.322 166.812 533.148V525.725C166.812 524.551 165.86 523.598 164.685 523.598Z" fill="#8E8E8E"/>
</g>
</g>
<g id="Group_251">
<g id="Group_252">
<path id="Vector_210" d="M192.051 523.598H176.931C175.757 523.598 174.805 524.55 174.805 525.725V533.148C174.805 534.322 175.757 535.274 176.931 535.274H192.051C193.225 535.274 194.177 534.322 194.177 533.148V525.725C194.177 524.551 193.225 523.598 192.051 523.598Z" fill="#666666"/>
</g>
<g id="Group_253">
<path id="Vector_211" d="M186.721 523.598H171.603C170.428 523.598 169.476 524.55 169.476 525.725V533.148C169.476 534.322 170.428 535.274 171.603 535.274H186.721C187.896 535.274 188.847 534.322 188.847 533.148V525.725C188.847 524.551 187.896 523.598 186.721 523.598Z" fill="#8E8E8E"/>
</g>
</g>
<g id="Group_254">
<g id="Group_255">
<path id="Vector_212" d="M214.087 523.598H198.968C197.793 523.598 196.842 524.55 196.842 525.725V533.148C196.842 534.322 197.793 535.274 198.968 535.274H214.087C215.262 535.274 216.213 534.322 216.213 533.148V525.725C216.213 524.551 215.261 523.598 214.087 523.598Z" fill="#666666"/>
</g>
<g id="Group_256">
<path id="Vector_213" d="M208.758 523.598H193.638C192.464 523.598 191.512 524.55 191.512 525.725V533.148C191.512 534.322 192.464 535.274 193.638 535.274H208.758C209.932 535.274 210.884 534.322 210.884 533.148V525.725C210.884 524.551 209.932 523.598 208.758 523.598Z" fill="#8E8E8E"/>
</g>
</g>
<g id="Group_257">
<g id="Group_258">
<path id="Vector_214" d="M236.124 523.598H221.004C219.83 523.598 218.878 524.55 218.878 525.725V533.148C218.878 534.322 219.83 535.274 221.004 535.274H236.124C237.298 535.274 238.25 534.322 238.25 533.148V525.725C238.25 524.551 237.297 523.598 236.124 523.598Z" fill="#666666"/>
</g>
<g id="Group_259">
<path id="Vector_215" d="M230.794 523.598H215.675C214.5 523.598 213.549 524.55 213.549 525.725V533.148C213.549 534.322 214.5 535.274 215.675 535.274H230.794C231.969 535.274 232.92 534.322 232.92 533.148V525.725C232.92 524.551 231.968 523.598 230.794 523.598Z" fill="#8E8E8E"/>
</g>
</g>
<g id="Group_260">
<g id="Group_261">
<path id="Vector_216" d="M258.16 523.598H243.041C241.866 523.598 240.915 524.55 240.915 525.725V533.148C240.915 534.322 241.866 535.274 243.041 535.274H258.16C259.335 535.274 260.286 534.322 260.286 533.148V525.725C260.286 524.551 259.334 523.598 258.16 523.598Z" fill="#666666"/>
</g>
<g id="Group_262">
<path id="Vector_217" d="M252.831 523.598H237.712C236.537 523.598 235.586 524.55 235.586 525.725V533.148C235.586 534.322 236.537 535.274 237.712 535.274H252.831C254.005 535.274 254.957 534.322 254.957 533.148V525.725C254.958 524.551 254.004 523.598 252.831 523.598Z" fill="#8E8E8E"/>
</g>
</g>
<g id="Group_263">
<g id="Group_264">
<path id="Vector_218" d="M280.196 523.598H265.077C263.902 523.598 262.951 524.55 262.951 525.725V533.148C262.951 534.322 263.902 535.274 265.077 535.274H280.196C281.37 535.274 282.321 534.322 282.321 533.148V525.725C282.321 524.551 281.37 523.598 280.196 523.598Z" fill="#666666"/>
</g>
<g id="Group_265">
<path id="Vector_219" d="M274.866 523.598H259.747C258.572 523.598 257.621 524.55 257.621 525.725V533.148C257.621 534.322 258.572 535.274 259.747 535.274H274.866C276.042 535.274 276.993 534.322 276.993 533.148V525.725C276.993 524.551 276.042 523.598 274.866 523.598Z" fill="#8E8E8E"/>
</g>
</g>
<g id="Group_266">
<g id="Group_267">
<path id="Vector_220" d="M302.233 523.598H287.112C285.939 523.598 284.987 524.55 284.987 525.725V533.148C284.987 534.322 285.939 535.274 287.112 535.274H302.233C303.407 535.274 304.358 534.322 304.358 533.148V525.725C304.358 524.551 303.407 523.598 302.233 523.598Z" fill="#666666"/>
</g>
<g id="Group_268">
<path id="Vector_221" d="M296.903 523.598H281.784C280.61 523.598 279.657 524.55 279.657 525.725V533.148C279.657 534.322 280.61 535.274 281.784 535.274H296.903C298.077 535.274 299.03 534.322 299.03 533.148V525.725C299.03 524.551 298.077 523.598 296.903 523.598Z" fill="#8E8E8E"/>
</g>
</g>
<g id="Group_269">
<g id="Group_270">
<path id="Vector_222" d="M324.269 523.598H309.151C307.976 523.598 307.026 524.55 307.026 525.725V533.148C307.026 534.322 307.976 535.274 309.151 535.274H324.269C325.446 535.274 326.396 534.322 326.396 533.148V525.725C326.396 524.551 325.442 523.598 324.269 523.598Z" fill="#666666"/>
</g>
<g id="Group_271">
<path id="Vector_223" d="M318.94 523.598H303.821C302.644 523.598 301.694 524.55 301.694 525.725V533.148C301.694 534.322 302.643 535.274 303.821 535.274H318.94C320.114 535.274 321.065 534.322 321.065 533.148V525.725C321.065 524.551 320.114 523.598 318.94 523.598Z" fill="#8E8E8E"/>
</g>
</g>
<g id="Group_272">
<g id="Group_273">
<path id="Vector_224" d="M348.431 523.598H329.06V535.274H348.431V523.598Z" fill="#666666"/>
</g>
<g id="Group_274">
<path id="Vector_225" d="M340.976 523.598H325.858C324.683 523.598 323.73 524.55 323.73 525.725V533.148C323.73 534.322 324.683 535.274 325.858 535.274H340.976C342.151 535.274 343.103 534.322 343.103 533.148V525.725C343.102 524.551 342.149 523.598 340.976 523.598Z" fill="#8E8E8E"/>
</g>
</g>
</g>
<path id="Vector_226" d="M440.825 397.701H434.327V535.409H440.825V397.701Z" fill="#415771"/>
<path id="Vector_227" d="M440.825 397.701H434.327V535.409H440.825V397.701Z" fill="#415771"/>
<path id="Vector_228" d="M376.251 397.625L616.401 397.65L616.341 535.216L376.19 535.19L376.251 397.625Z" fill="url(#paint2_linear_153_756)" fill-opacity="0.6"/>
<path id="Vector_229" d="M376.242 404.873L582.621 404.897L582.569 535.216L376.191 535.191L376.242 404.873Z" fill="url(#paint3_linear_153_756)" fill-opacity="0.6"/>
<g id="Group_275">
<g id="Group_276">
<path id="Vector_230" d="M550.684 504.484L566.131 435.042C567.129 430.543 563.682 426.278 559.043 426.278H508.893C505.487 426.278 502.539 428.633 501.805 431.938L485.711 504.484H550.684Z" fill="#51A58D"/>
</g>
<g id="Group_277">
<path id="Vector_231" d="M503.578 440.916L551.388 484.522L540.63 533.015H483.148L503.578 440.916ZM501.402 433.748L478.503 536.978H543.517L555.476 483.069L501.402 433.748Z" fill="#51A58D"/>
</g>
<g id="Group_278">
<path id="Vector_232" d="M517.617 504.484L502.17 435.041C501.172 430.541 504.62 426.277 509.258 426.277H559.407C562.813 426.277 565.762 428.632 566.496 431.937L582.59 504.483L517.617 504.484Z" fill="#5BC8AC"/>
</g>
<g id="Group_279">
<path id="Vector_233" d="M517.523 487.267L575.638 490.113L585.154 533.016H527.673L517.523 487.267ZM512.816 483.07H512.826H512.816ZM512.826 483.07L524.785 536.979H589.8L578.556 486.291L512.826 483.07Z" fill="#5BC8AC"/>
</g>
<g id="Group_280">
<path id="Vector_234" d="M523.391 495.337L511.557 442.138C510.793 438.691 513.434 435.426 516.987 435.426H555.407C558.016 435.426 560.274 437.229 560.838 439.761L573.165 495.337H523.391V495.337Z" fill="#445872"/>
</g>
</g>
</g>
<path id="FORTCAKESPECIAL -PLAY -SWAP -EARN" d="M517.902 444.352H520.911L521.112 445.421H519.361L519.568 446.525H521.187L521.381 447.56H519.763L520.157 449.661H518.898L517.902 444.352ZM523.137 444.264C523.79 444.264 524.35 444.507 524.818 444.991C525.286 445.476 525.599 446.138 525.756 446.978C525.914 447.82 525.851 448.493 525.566 448.995C525.28 449.495 524.835 449.745 524.231 449.745C523.603 449.745 523.069 449.485 522.628 448.965C522.187 448.445 521.894 447.796 521.748 447.02C521.648 446.482 521.641 446 521.729 445.574C521.816 445.145 521.99 444.82 522.251 444.599C522.511 444.376 522.806 444.264 523.137 444.264ZM523.482 445.383C523.229 445.383 523.062 445.527 522.982 445.813C522.902 446.1 522.908 446.492 523.001 446.989C523.096 447.494 523.235 447.891 523.418 448.181C523.604 448.467 523.811 448.611 524.041 448.611C524.268 448.611 524.423 448.462 524.504 448.165C524.585 447.869 524.579 447.473 524.486 446.978C524.39 446.465 524.246 446.072 524.056 445.798C523.867 445.522 523.676 445.383 523.482 445.383ZM525.794 444.352H527.734C528.173 444.352 528.549 444.463 528.862 444.687C529.177 444.91 529.374 445.227 529.451 445.638C529.514 445.976 529.47 446.264 529.319 446.502C529.169 446.738 528.913 446.925 528.549 447.062C529.051 447.138 529.41 447.442 529.626 447.975L530.31 449.661H528.932L528.455 448.192C528.372 447.943 528.277 447.762 528.171 447.648C528.067 447.534 527.928 447.477 527.755 447.477H527.639L528.049 449.661H526.79L525.794 444.352ZM527.246 445.383L527.46 446.521H527.735C527.931 446.521 528.07 446.464 528.152 446.35C528.234 446.236 528.258 446.091 528.225 445.916C528.192 445.738 528.122 445.605 528.015 445.516C527.908 445.428 527.762 445.383 527.579 445.383H527.246ZM529.492 444.352H532.904L533.106 445.429H532.01L532.804 449.661H531.546L530.751 445.429H529.694L529.492 444.352ZM536.961 449.528C536.676 449.673 536.393 449.745 536.111 449.745C535.505 449.745 534.973 449.485 534.517 448.965C534.06 448.445 533.759 447.798 533.614 447.024C533.525 446.547 533.516 446.095 533.588 445.669C533.663 445.242 533.838 444.902 534.114 444.649C534.388 444.392 534.733 444.264 535.149 444.264C535.404 444.264 535.692 444.329 536.01 444.458L536.238 445.673C535.997 445.475 535.759 445.376 535.524 445.376C535.232 445.376 535.028 445.52 534.912 445.81C534.799 446.099 534.793 446.517 534.896 447.066C534.984 447.535 535.139 447.912 535.36 448.196C535.583 448.478 535.834 448.618 536.113 448.618C536.317 448.618 536.525 448.523 536.737 448.333L536.961 449.528ZM537.713 444.352H538.964L541.382 449.661H540.011L539.623 448.607H538.593L538.59 449.661H537.3L537.713 444.352ZM538.586 445.802L538.589 447.655H539.27L538.586 445.802ZM540.761 444.352H542.019L542.378 446.262L542.972 444.352H544.219L543.504 446.156L545.378 449.661H543.968L542.962 447.556L542.729 448.135L543.016 449.661H541.757L540.761 444.352ZM544.606 444.352H547.685L547.885 445.421H546.065L546.248 446.396H547.944L548.139 447.435H546.443L546.657 448.576H548.477L548.681 449.661H545.602L544.606 444.352ZM520.125 456.92C520.612 457.3 521.04 457.491 521.409 457.491C521.597 457.491 521.748 457.431 521.859 457.312C521.971 457.193 522.011 457.048 521.979 456.878C521.954 456.741 521.883 456.619 521.768 456.512C521.649 456.406 521.444 456.287 521.151 456.155C520.737 455.972 520.409 455.768 520.168 455.542C519.924 455.316 519.77 455.029 519.705 454.682C519.622 454.24 519.71 453.869 519.968 453.567C520.226 453.262 520.614 453.11 521.133 453.11C521.489 453.11 521.877 453.204 522.297 453.392L522.535 454.659C522.134 454.337 521.777 454.176 521.465 454.176C521.31 454.176 521.184 454.221 521.088 454.313C520.991 454.404 520.955 454.514 520.979 454.644C521.003 454.771 521.07 454.88 521.18 454.971C521.288 455.062 521.474 455.161 521.739 455.268C522.178 455.446 522.523 455.649 522.775 455.877C523.028 456.108 523.191 456.419 523.264 456.809C523.356 457.302 523.254 457.722 522.958 458.069C522.664 458.417 522.258 458.591 521.739 458.591C521.337 458.591 520.88 458.471 520.371 458.233L520.125 456.92ZM523.155 453.197H525.08C525.578 453.197 525.989 453.329 526.312 453.593C526.635 453.855 526.841 454.226 526.932 454.708C526.979 454.96 526.981 455.212 526.938 455.466C526.895 455.717 526.745 455.937 526.489 456.124C526.234 456.31 525.888 456.402 525.449 456.402H525.023L525.418 458.507H524.152L523.155 453.197ZM524.614 454.221L524.827 455.359H525.106C525.313 455.359 525.467 455.307 525.569 455.203C525.673 455.097 525.707 454.948 525.671 454.758C525.637 454.578 525.564 454.443 525.452 454.354C525.342 454.266 525.193 454.221 525.005 454.221H524.614ZM527.167 453.197H530.246L530.446 454.267H528.626L528.809 455.241H530.505L530.7 456.28H529.004L529.218 457.422H531.038L531.242 458.507H528.163L527.167 453.197ZM534.57 458.374C534.285 458.518 534.002 458.591 533.721 458.591C533.114 458.591 532.582 458.33 532.126 457.81C531.669 457.29 531.369 456.643 531.223 455.869C531.134 455.392 531.125 454.941 531.198 454.514C531.273 454.088 531.448 453.748 531.723 453.494C531.997 453.238 532.342 453.11 532.758 453.11C533.014 453.11 533.301 453.175 533.619 453.304L533.847 454.518C533.606 454.32 533.368 454.221 533.133 454.221C532.841 454.221 532.637 454.366 532.521 454.655C532.408 454.944 532.402 455.363 532.505 455.911C532.593 456.381 532.748 456.757 532.969 457.042C533.192 457.323 533.443 457.464 533.722 457.464C533.926 457.464 534.134 457.369 534.346 457.179L534.57 458.374ZM534.285 453.197H535.555L536.551 458.507H535.281L534.285 453.197ZM537.39 453.197H538.641L541.059 458.507H539.688L539.3 457.453H538.27L538.267 458.507H536.977L537.39 453.197ZM538.263 454.648L538.266 456.501H538.947L538.263 454.648ZM540.481 453.197H541.743L542.536 457.422H544.27L544.474 458.507H541.477L540.481 453.197ZM521.842 464.939H523.883L524.108 466.138H522.067L521.842 464.939ZM524.149 462.043H526.074C526.572 462.043 526.983 462.175 527.306 462.439C527.628 462.7 527.835 463.072 527.925 463.554C527.973 463.805 527.975 464.058 527.932 464.311C527.889 464.563 527.739 464.782 527.482 464.97C527.228 465.155 526.881 465.248 526.443 465.248H526.017L526.411 467.352H525.145L524.149 462.043ZM525.607 463.067L525.821 464.205H526.1C526.306 464.205 526.46 464.153 526.562 464.049C526.666 463.942 526.7 463.794 526.665 463.604C526.631 463.423 526.558 463.289 526.446 463.2C526.336 463.111 526.187 463.067 525.999 463.067H525.607ZM528.161 462.043H529.423L530.216 466.268H531.951L532.154 467.352H529.157L528.161 462.043ZM532.513 462.043H533.764L536.182 467.352H534.811L534.423 466.298H533.393L533.39 467.352H532.1L532.513 462.043ZM533.386 463.493L533.389 465.347H534.07L533.386 463.493ZM534.81 462.043H536.231L537.007 463.725L537.145 462.043H538.585L537.851 464.92L538.308 467.352H537.045L536.589 464.92L534.81 462.043ZM523.502 473.785H525.543L525.768 474.984H523.727L523.502 473.785ZM526.418 474.611C526.905 474.992 527.333 475.182 527.702 475.182C527.891 475.182 528.041 475.122 528.153 475.003C528.265 474.884 528.305 474.739 528.273 474.569C528.247 474.432 528.176 474.31 528.061 474.204C527.943 474.097 527.737 473.978 527.444 473.846C527.03 473.663 526.703 473.459 526.462 473.233C526.218 473.007 526.063 472.721 525.998 472.373C525.915 471.932 526.003 471.56 526.261 471.258C526.519 470.953 526.908 470.801 527.426 470.801C527.783 470.801 528.171 470.895 528.591 471.083L528.828 472.35C528.427 472.028 528.07 471.867 527.758 471.867C527.603 471.867 527.477 471.913 527.381 472.004C527.285 472.095 527.248 472.206 527.273 472.335C527.297 472.462 527.364 472.571 527.474 472.662C527.581 472.754 527.767 472.853 528.033 472.959C528.471 473.137 528.817 473.34 529.069 473.568C529.321 473.799 529.484 474.11 529.557 474.501C529.65 474.993 529.548 475.413 529.251 475.76C528.958 476.108 528.552 476.282 528.033 476.282C527.63 476.282 527.174 476.163 526.664 475.924L526.418 474.611ZM532.411 470.889L533.143 473.572C533.278 474.072 533.375 474.475 533.432 474.782H533.517C533.466 474.483 533.409 473.984 533.345 473.287L533.12 470.889H534.402L534.391 476.198H533.129L532.457 473.69C532.277 473.02 532.144 472.496 532.057 472.118H531.98C532.045 472.565 532.109 473.089 532.17 473.69L532.439 476.198H531.177L529.174 470.889H530.456L531.13 473.287C531.33 473.994 531.46 474.493 531.519 474.782H531.604C531.547 474.475 531.492 474.072 531.439 473.572L531.164 470.889H532.411ZM535.838 470.889H537.089L539.506 476.198H538.136L537.748 475.144H536.718L536.714 476.198H535.425L535.838 470.889ZM536.711 472.339L536.714 474.192H537.395L536.711 472.339ZM538.882 470.889H540.807C541.305 470.889 541.716 471.021 542.039 471.285C542.361 471.546 542.568 471.918 542.658 472.4C542.706 472.651 542.708 472.903 542.665 473.157C542.622 473.408 542.472 473.628 542.215 473.816C541.961 474.001 541.614 474.093 541.175 474.093H540.75L541.144 476.198H539.878L538.882 470.889ZM540.34 471.913L540.554 473.051H540.833C541.039 473.051 541.193 472.999 541.295 472.895C541.399 472.788 541.433 472.64 541.398 472.449C541.364 472.269 541.291 472.135 541.179 472.046C541.069 471.957 540.92 471.913 540.731 471.913H540.34ZM525.162 482.631H527.202L527.427 483.83H525.387L525.162 482.631ZM527.515 479.734H530.593L530.794 480.804H528.974L529.157 481.778H530.853L531.048 482.817H529.352L529.566 483.959H531.386L531.59 485.044H528.511L527.515 479.734ZM532.278 479.734H533.529L535.946 485.044H534.575L534.188 483.99H533.158L533.154 485.044H531.865L532.278 479.734ZM533.15 481.184L533.153 483.038H533.835L533.15 481.184ZM535.322 479.734H537.262C537.701 479.734 538.077 479.846 538.389 480.069C538.705 480.293 538.901 480.61 538.978 481.021C539.042 481.358 538.998 481.646 538.846 481.885C538.697 482.121 538.44 482.307 538.076 482.444C538.578 482.52 538.937 482.825 539.154 483.358L539.838 485.044H538.459L537.982 483.575C537.899 483.326 537.805 483.145 537.698 483.03C537.594 482.916 537.456 482.859 537.283 482.859H537.166L537.576 485.044H536.318L535.322 479.734ZM536.774 480.766L536.987 481.904H537.262C537.458 481.904 537.597 481.847 537.679 481.733C537.761 481.618 537.786 481.474 537.753 481.299C537.719 481.121 537.649 480.988 537.542 480.899C537.435 480.81 537.29 480.766 537.107 480.766H536.774ZM539.306 479.734H540.588L541.519 481.417C541.797 481.917 542.018 482.349 542.185 482.715H542.251L542.051 481.816L541.661 479.734H542.869L543.865 485.044H542.587L541.656 483.362C541.379 482.862 541.157 482.428 540.99 482.06H540.92L541.119 482.958L541.511 485.044H540.303L539.306 479.734Z" fill="#F18D9E"/>
<path id="Vector_235" d="M474 270.077H465.229V350.353H474V270.077Z" fill="#415771"/>
<g id="Group_281" opacity="0.4">
<path id="Vector_236" opacity="0.4" d="M474.001 270.077H365.247V350.353H474.001V270.077Z" fill="#5BC8AC"/>
</g>
<g id="Group_282" opacity="0.4">
<path id="Vector_237" opacity="0.4" d="M440.825 397.701H376.189V535.409H440.825V397.701Z" fill="#5BC8AC"/>
</g>
</g>
<defs>
<linearGradient id="paint0_linear_153_756" x1="270.333" y1="310.566" x2="270.333" y2="11.9439" gradientUnits="userSpaceOnUse">
<stop offset="0.4641" stop-color="#5BC8AC" stop-opacity="0.3"/>
<stop offset="0.8313" stop-color="#FEFBFB" stop-opacity="0"/>
</linearGradient>
<linearGradient id="paint1_linear_153_756" x1="266.947" y1="350.528" x2="266.947" y2="6.40894" gradientUnits="userSpaceOnUse">
<stop offset="0.1375" stop-color="#5BC8AC"/>
<stop offset="0.8185" stop-color="white" stop-opacity="0"/>
</linearGradient>
<linearGradient id="paint2_linear_153_756" x1="616.398" y1="466.443" x2="376.216" y2="466.387" gradientUnits="userSpaceOnUse">
<stop stop-color="white" stop-opacity="0"/>
<stop offset="1" stop-color="#5BC8AC"/>
</linearGradient>
<linearGradient id="paint3_linear_153_756" x1="582.606" y1="470.066" x2="376.205" y2="470.021" gradientUnits="userSpaceOnUse">
<stop stop-color="white" stop-opacity="0"/>
<stop offset="1" stop-color="#5BC8AC"/>
</linearGradient>
</defs>
</svg>
