<svg width="190" height="415" viewBox="0 0 190 415" fill="none" xmlns="http://www.w3.org/2000/svg">
<path opacity="0.5" d="M96.153 308.411C97.165 307.817 97.7881 306.735 97.7881 305.563V220.851C97.7881 218.305 95.028 216.719 92.83 218L2.29803 270.85C1.28603 271.44 0.665039 272.524 0.665039 273.696V358.411C0.665039 360.956 3.42503 362.54 5.62103 361.259L96.153 308.411Z" fill="url(#paint0_linear_151_231)"/>
<path opacity="0.5" d="M93.7971 308.36C92.7871 307.768 92.1621 306.686 92.1621 305.512V220.796C92.1621 218.254 94.9241 216.667 97.1181 217.951L187.984 270.949C188.994 271.542 189.619 272.627 189.619 273.801V358.459C189.619 361.004 186.857 362.588 184.664 361.307L93.7971 308.36Z" fill="url(#paint1_linear_151_231)"/>
<g opacity="0.9">
<path opacity="0.9" d="M93.9709 323.032C92.9539 323.624 92.3259 324.71 92.3259 325.887V411.174C92.3259 413.717 95.0849 415.303 97.2819 414.02L187.816 361.172C188.828 360.582 189.451 359.494 189.451 358.326V273.58C189.451 271.044 186.703 269.458 184.506 270.726L93.9709 323.032Z" fill="url(#paint2_linear_151_231)"/>
</g>
<g opacity="0.9">
<path opacity="0.9" d="M96.483 323.632C97.497 324.22 98.1191 325.306 98.1191 326.48V411.224C98.1191 413.767 95.3591 415.353 93.1631 414.07L2.30106 361.07C1.28706 360.478 0.664062 359.396 0.664062 358.226V273.533C0.664062 270.994 3.42206 269.407 5.62006 270.687L96.483 323.632Z" fill="url(#paint3_linear_151_231)"/>
</g>
<path opacity="0.5" d="M96.852 211.396C95.824 210.798 94.554 210.798 93.526 211.4L3.44597 264.123C1.26897 265.394 1.26995 268.541 3.45095 269.816L93.978 322.58C95.004 323.178 96.273 323.176 97.299 322.58L187.463 269.937C189.645 268.666 189.645 265.515 187.463 264.248L96.852 211.396ZM97.299 314.343C96.273 314.939 95.004 314.939 93.978 314.343L17.54 269.782C15.361 268.511 15.358 265.364 17.535 264.093L93.5269 219.636C94.5529 219.036 95.823 219.031 96.849 219.632L173.398 264.247C175.582 265.515 175.582 268.666 173.398 269.936L97.299 314.343Z" fill="url(#paint4_linear_151_231)"/>
<path d="M170.889 145.969C170.889 145.385 170.313 144.84 169.364 144.526L98.904 121.19C97.821 120.832 96.435 120.833 95.354 121.192L25.332 144.485C24.386 144.799 23.813 145.342 23.813 145.927V367.298C23.813 367.911 24.443 368.477 25.465 368.781L74.667 399C75.676 399.3 95.284 411.129 96.298 410.833L169.209 368.748C170.246 368.444 170.885 367.874 170.885 367.256L170.889 145.969Z" fill="url(#paint5_linear_151_231)"/>
<path opacity="0.5" d="M155.602 26.2504C155.602 24.9064 154.785 23.6964 153.536 23.1944L97.3509 0.561395C96.5609 0.242395 95.6749 0.242387 94.8849 0.562387L39.0539 23.1424C37.8079 23.6464 36.9939 24.8544 36.9939 26.1984V333.454C36.9939 334.612 37.6039 335.686 38.5999 336.278L92.3009 368.358C93.3079 368.963 94.5569 368.983 95.5829 368.417L153.902 336.231C154.951 335.651 155.601 334.543 155.601 333.344V26.2504H155.602Z" fill="url(#paint6_linear_151_231)"/>
<path opacity="0.5" d="M96.8498 214.643C95.8218 214.045 94.5519 214.045 93.5239 214.647L3.44387 267.37C1.26687 268.641 1.26888 271.788 3.44888 273.063L93.9759 325.827C95.0029 326.425 96.2709 326.423 97.2969 325.827L187.463 273.184C189.645 271.913 189.645 268.762 187.463 267.495L96.8498 214.643ZM97.2969 317.59C96.2709 318.186 95.0029 318.186 93.9759 317.59L17.5379 273.029C15.3589 271.758 15.3559 268.611 17.5329 267.34L93.5249 222.883C94.5509 222.283 95.8209 222.278 96.8479 222.879L173.398 267.494C175.582 268.762 175.582 271.913 173.398 273.183L97.2969 317.59Z" fill="url(#paint7_linear_151_231)"/>
<g opacity="0.8">
<path opacity="0.8" d="M49.9239 185.442C49.7279 185.237 49.5299 185.034 49.3369 184.825C49.1459 184.619 48.9579 184.407 48.7699 184.199C48.5789 183.987 48.3849 183.779 48.1959 183.565C48.0069 183.35 47.8219 183.131 47.6339 182.915C47.4479 182.7 47.2619 182.487 47.0779 182.269C46.8939 182.053 46.7159 181.831 46.5349 181.61C46.3509 181.387 46.1659 181.167 45.9839 180.94C45.8049 180.718 45.6309 180.491 45.4559 180.266C45.2759 180.037 45.0939 179.81 44.9159 179.578C44.9119 179.573 44.9079 179.568 44.9039 179.563C44.7279 179.333 44.5559 179.097 44.3829 178.864C44.2129 178.637 44.0409 178.413 43.8729 178.182C43.6969 177.942 43.5249 177.696 43.3519 177.452C43.1869 177.22 43.0189 176.991 42.8569 176.757C42.6829 176.507 42.5119 176.251 42.3409 175.998C42.1829 175.765 42.0219 175.534 41.8649 175.298C41.6979 175.046 41.5359 174.79 41.3719 174.536C41.2149 174.294 41.0559 174.053 40.8999 173.807C40.7389 173.553 40.5829 173.292 40.4229 173.035C40.2699 172.786 40.1139 172.54 39.9629 172.288C39.8039 172.024 39.6499 171.757 39.4929 171.49C39.3469 171.239 39.1969 170.991 39.0529 170.739C38.9019 170.473 38.7539 170.204 38.6039 169.935C38.4599 169.676 38.3139 169.42 38.1709 169.161C38.0249 168.89 37.8819 168.616 37.7369 168.345C37.5969 168.081 37.4559 167.82 37.3179 167.554C37.1749 167.279 37.0379 166.997 36.8969 166.72C36.7629 166.452 36.6259 166.189 36.4949 165.919C36.3579 165.642 36.2269 165.361 36.0939 165.082C35.9629 164.808 35.8289 164.534 35.6999 164.257C35.5679 163.974 35.4409 163.687 35.3119 163.402C35.1869 163.125 35.0579 162.849 34.9359 162.57C34.8049 162.275 34.6799 161.975 34.5529 161.677C34.4359 161.404 34.3169 161.132 34.2009 160.857C34.0799 160.564 33.9639 160.269 33.8449 159.974C33.7299 159.689 33.6119 159.405 33.4989 159.117C33.3829 158.822 33.2719 158.522 33.1589 158.224C33.0489 157.935 32.9349 157.646 32.8279 157.353C32.7159 157.05 32.6089 156.744 32.5009 156.439C32.3969 156.148 32.2899 155.859 32.1889 155.566C32.0819 155.255 31.9789 154.94 31.8749 154.627C31.7779 154.336 31.6779 154.048 31.5829 153.755C31.4779 153.43 31.3769 153.1 31.2749 152.772C31.1859 152.489 31.0939 152.208 31.0089 151.922C30.9119 151.605 30.8219 151.285 30.7299 150.966C30.6429 150.666 30.5529 150.367 30.4679 150.066C30.3829 149.764 30.3039 149.458 30.2219 149.154C30.1349 148.832 30.0459 148.512 29.9619 148.189C29.8829 147.883 29.8089 147.574 29.7329 147.267C29.6519 146.942 29.5679 146.619 29.4909 146.291C29.4129 145.961 29.3399 145.629 29.2639 145.298C29.1939 144.99 29.1209 144.684 29.0539 144.374C28.9809 144.04 28.9139 143.702 28.8439 143.365C28.7809 143.056 28.7129 142.748 28.6529 142.436C28.5849 142.09 28.5219 141.741 28.4569 141.393C28.3999 141.089 28.3409 140.787 28.2869 140.481C28.2249 140.126 28.1689 139.769 28.1089 139.412C28.0589 139.11 28.0049 138.81 27.9579 138.507C27.9009 138.148 27.8519 137.786 27.7999 137.425C27.7549 137.122 27.7069 136.82 27.6659 136.515C27.6129 136.134 27.5679 135.751 27.5199 135.368C27.4839 135.08 27.4439 134.795 27.4109 134.507C27.3689 134.15 27.3339 133.79 27.2959 133.431C27.2619 133.115 27.2249 132.799 27.1939 132.481C27.1609 132.138 27.1329 131.793 27.1029 131.449C27.0739 131.113 27.0409 130.778 27.0149 130.441C26.9829 130.032 26.9579 129.621 26.9309 129.211C26.9129 128.936 26.8909 128.662 26.8749 128.386C26.8419 127.828 26.8169 127.268 26.7929 126.708C26.7879 126.578 26.7789 126.448 26.7739 126.317C26.7509 125.7 26.7339 125.081 26.7189 124.46C26.7179 124.384 26.7139 124.309 26.7129 124.233C26.6989 123.536 26.6919 122.837 26.6919 122.136C26.6919 107.945 29.4809 94.6071 34.3799 82.9961C34.5549 82.5461 34.7339 82.0991 34.9139 81.6541C34.9729 81.5091 35.0329 81.3661 35.0929 81.2221C35.2169 80.9221 35.3419 80.6221 35.4689 80.3251C35.5399 80.1571 35.6129 79.9901 35.6859 79.8221C35.8039 79.5481 35.9229 79.2751 36.0439 79.0021C36.1209 78.8311 36.1969 78.6591 36.2749 78.4871C36.3959 78.2171 36.5189 77.9491 36.6429 77.6811C36.7199 77.5151 36.7969 77.3491 36.8749 77.1841C37.0089 76.8981 37.1459 76.6151 37.2829 76.3321C37.3509 76.1901 37.4189 76.0471 37.4889 75.9061C37.6779 75.5211 37.8689 75.1381 38.0629 74.7581C38.0829 74.7211 38.0999 74.6831 38.1199 74.6471C38.3329 74.2301 38.5489 73.8161 38.7679 73.4051C38.8359 73.2771 38.9059 73.1501 38.9749 73.0221C39.1269 72.7391 39.2799 72.4581 39.4349 72.1771C39.5199 72.0231 39.6059 71.8701 39.6919 71.7181C39.8349 71.4651 39.9769 71.2121 40.1229 70.9611C40.2139 70.8021 40.3059 70.6441 40.3969 70.4861C40.5419 70.2391 40.6869 69.9931 40.8339 69.7491C40.9259 69.5961 41.0169 69.4421 41.1089 69.2901C41.2649 69.0321 41.4239 68.7761 41.5839 68.5201C41.6669 68.3861 41.7489 68.2521 41.8329 68.1191C42.0399 67.7901 42.2499 67.4641 42.4609 67.1391C42.4979 67.0821 42.5339 67.0251 42.5699 66.9691C42.8189 66.5901 43.0699 66.2141 43.3239 65.8411C43.3999 65.7281 43.4779 65.6171 43.5549 65.5051C43.7339 65.2441 43.9129 64.9841 44.0949 64.7261C44.1919 64.5881 44.2889 64.4521 44.3869 64.3141C44.5519 64.0841 44.7179 63.8541 44.8849 63.6251C44.9889 63.4821 45.0939 63.3411 45.1979 63.2001C45.3629 62.9761 45.5299 62.7551 45.6969 62.5341C45.7599 62.4511 45.8229 62.3651 45.8859 62.2831C45.9209 62.2361 45.9579 62.1921 45.9919 62.1461C46.3049 61.7391 46.6219 61.3341 46.9409 60.9361C46.9649 60.9061 46.9899 60.8771 47.0129 60.8471C47.3119 60.4751 47.6149 60.1091 47.9189 59.7451C48.0099 59.6361 48.1019 59.5281 48.1929 59.4191C48.4709 59.0911 48.7519 58.7661 49.0339 58.4441C49.0919 58.3801 49.1469 58.3141 49.2049 58.2491C49.5379 57.8721 49.8749 57.5011 50.2139 57.1331C50.3009 57.0401 50.3879 56.9471 50.4749 56.8541C50.7479 56.5621 51.0229 56.2721 51.2999 55.9861C51.3879 55.8951 51.4759 55.8031 51.5639 55.7131C51.9119 55.3581 52.2609 55.0071 52.6139 54.6611C52.6759 54.6001 52.7389 54.5411 52.8009 54.4811C53.1019 54.1891 53.4039 53.9011 53.7069 53.6171C53.8089 53.5231 53.9089 53.4281 54.0109 53.3351C54.3509 53.0211 54.6929 52.7101 55.0369 52.4051C55.0629 52.3831 55.0869 52.3601 55.1119 52.3381C55.4799 52.0141 55.8509 51.6961 56.2239 51.3811C56.3269 51.2951 56.4289 51.2111 56.5309 51.1261C56.8349 50.8731 57.1409 50.6231 57.4489 50.3771C57.5319 50.3111 57.6139 50.2441 57.6969 50.1781C58.0759 49.8791 58.4569 49.5851 58.8399 49.2951C58.9279 49.2291 59.0179 49.1641 59.1059 49.0991C59.4179 48.8671 59.7299 48.6381 60.0449 48.4121C60.1499 48.3361 60.2559 48.2611 60.3609 48.1861C60.7539 47.9101 61.1469 47.6371 61.5439 47.3711C61.5829 47.3441 61.6229 47.3191 61.6629 47.2931C62.0249 47.0511 62.3899 46.8161 62.7549 46.5841C62.8679 46.5121 62.9819 46.4411 63.0949 46.3711C63.4429 46.1541 63.7909 45.9411 64.1419 45.7321C64.2039 45.6941 64.2679 45.6551 64.3309 45.6181C64.7369 45.3781 65.1469 45.1441 65.5599 44.9161C65.6659 44.8561 65.7739 44.7991 65.8809 44.7401C66.2119 44.5591 66.5439 44.3821 66.8769 44.2081C66.9809 44.1541 67.0839 44.1001 67.1879 44.0471C67.6049 43.8331 68.0239 43.6251 68.4449 43.4221C68.5249 43.3831 68.6049 43.3471 68.6849 43.3091C69.0379 43.1421 69.3919 42.9781 69.7479 42.8201C69.8669 42.7671 69.9869 42.7141 70.1059 42.6601C70.5219 42.4781 70.9389 42.3001 71.3579 42.1301C71.3739 42.1231 71.3889 42.1171 71.4049 42.1101C71.8389 41.9341 72.2749 41.7661 72.7139 41.6021C72.8329 41.5571 72.9529 41.5131 73.0729 41.4691C73.4309 41.3381 73.7919 41.2111 74.1519 41.0881C74.2449 41.0561 74.3369 41.0241 74.4289 40.9921C74.8679 40.8451 75.3099 40.7041 75.7529 40.5701C75.8569 40.5381 75.9629 40.5081 76.0679 40.4771C76.4249 40.3701 76.7849 40.2681 77.1459 40.1701C77.2649 40.1381 77.3849 40.1051 77.5049 40.0731C77.9539 39.9541 78.4049 39.8401 78.8589 39.7341C78.9139 39.7211 78.9669 39.7101 79.0209 39.6981C79.4269 39.6051 79.8329 39.5171 80.2429 39.4331C80.3699 39.4071 80.4979 39.3821 80.6269 39.3571C81.0279 39.2781 81.4309 39.2041 81.8349 39.1361C81.8979 39.1251 81.9609 39.1131 82.0239 39.1021C82.4839 39.0261 82.9469 38.9581 83.4099 38.8951C83.5319 38.8791 83.6539 38.8641 83.7759 38.8491C84.1479 38.8011 84.5219 38.7581 84.8959 38.7191C85.0089 38.7071 85.1219 38.6941 85.2349 38.6841C85.7009 38.6381 86.1689 38.6001 86.6369 38.5671C86.7299 38.5611 86.8249 38.5561 86.9169 38.5511C87.3069 38.5271 87.6969 38.5081 88.0879 38.4921C88.2199 38.4881 88.3509 38.4821 88.4819 38.4791C88.9599 38.4641 89.4369 38.4551 89.9159 38.4551H105.752C105.273 38.4551 104.796 38.4641 104.319 38.4791C104.187 38.4821 104.056 38.4881 103.925 38.4921C103.533 38.5071 103.143 38.5271 102.753 38.5511C102.659 38.5561 102.566 38.5611 102.473 38.5671C102.004 38.5991 101.536 38.6381 101.071 38.6841C100.958 38.6941 100.845 38.7071 100.732 38.7191C100.358 38.7581 99.9839 38.8021 99.6119 38.8491C99.4899 38.8641 99.3679 38.8791 99.2459 38.8951C98.7829 38.9581 98.3209 39.0261 97.8599 39.1021C97.7969 39.1131 97.7329 39.1251 97.6709 39.1361C97.2669 39.2041 96.8639 39.2781 96.4629 39.3571C96.3349 39.3821 96.2059 39.4071 96.0779 39.4331C95.6699 39.5161 95.2639 39.6041 94.8579 39.6981C94.8029 39.7101 94.7499 39.7211 94.6949 39.7341C94.2419 39.8401 93.7909 39.9541 93.3409 40.0731C93.2209 40.1051 93.1019 40.1381 92.9819 40.1701C92.6209 40.2681 92.2609 40.3701 91.9039 40.4771C91.7989 40.5081 91.6929 40.5381 91.5889 40.5701C91.1459 40.7051 90.7039 40.8451 90.2639 40.9921C90.1719 41.0231 90.0809 41.0551 89.9899 41.0871C89.6289 41.2101 89.2679 41.3371 88.9089 41.4681C88.7889 41.5121 88.6689 41.5561 88.5499 41.6011C88.1119 41.7651 87.6759 41.9341 87.2409 42.1091C87.2249 42.1161 87.2099 42.1221 87.1939 42.1291C86.7739 42.2991 86.3579 42.4781 85.9419 42.6601C85.8219 42.7131 85.7039 42.7661 85.5849 42.8191C85.2279 42.9781 84.8729 43.1421 84.5189 43.3101C84.4399 43.3471 84.3609 43.3831 84.2819 43.4211C83.8599 43.6231 83.4409 43.8321 83.0229 44.0461C82.9199 44.0991 82.8179 44.1531 82.7149 44.2061C82.3809 44.3811 82.0469 44.5591 81.7159 44.7391C81.6099 44.7981 81.5019 44.8551 81.3959 44.9151C80.9849 45.1441 80.5749 45.3771 80.1669 45.6171C80.1039 45.6541 80.0409 45.6931 79.9779 45.7311C79.6269 45.9401 79.2779 46.1521 78.9309 46.3701C78.8179 46.4411 78.7039 46.5121 78.5909 46.5831C78.2249 46.8161 77.8599 47.0521 77.4969 47.2941C77.4579 47.3191 77.4189 47.3441 77.3809 47.3701C76.9839 47.6361 76.5899 47.9091 76.1959 48.1861C76.0919 48.2601 75.9859 48.3361 75.8819 48.4111C75.5669 48.6381 75.2529 48.8661 74.9399 49.0991C74.8529 49.1641 74.7649 49.2281 74.6769 49.2941C74.2929 49.5831 73.9119 49.8771 73.5339 50.1771C73.4499 50.2431 73.3679 50.3101 73.2849 50.3761C72.9769 50.6221 72.6719 50.8721 72.3669 51.1251C72.2649 51.2101 72.1629 51.2941 72.0609 51.3801C71.6869 51.6941 71.3159 52.0131 70.9479 52.3371C70.9239 52.3591 70.8989 52.3801 70.8759 52.4021C70.5299 52.7081 70.1869 53.0201 69.8459 53.3351C69.7449 53.4281 69.6449 53.5231 69.5439 53.6161C69.2389 53.9001 68.9369 54.1881 68.6369 54.4801C68.5749 54.5401 68.5119 54.5991 68.4499 54.6601C68.0969 55.0061 67.7479 55.3561 67.4009 55.7121C67.3119 55.8021 67.2239 55.8941 67.1349 55.9851C66.8589 56.2711 66.5839 56.5611 66.3109 56.8531C66.2239 56.9461 66.1369 57.0391 66.0499 57.1321C65.7109 57.5001 65.3739 57.8711 65.0409 58.2481C64.9829 58.3121 64.9279 58.3781 64.8709 58.4431C64.5879 58.7651 64.3079 59.0901 64.0289 59.4181C63.9379 59.5261 63.8449 59.6351 63.7549 59.7441C63.4499 60.1081 63.1479 60.4751 62.8489 60.8461C62.8259 60.8761 62.8009 60.9051 62.7769 60.9351C62.4579 61.3331 62.1419 61.7381 61.8289 62.1451C61.7289 62.2741 61.6309 62.4041 61.5329 62.5341C61.3649 62.7551 61.1989 62.9761 61.0329 63.2001C60.9289 63.3411 60.8239 63.4831 60.7199 63.6251C60.5529 63.8541 60.3879 64.0831 60.2229 64.3141C60.1249 64.4511 60.0269 64.5871 59.9299 64.7261C59.7479 64.9831 59.5689 65.2441 59.3899 65.5051C59.3129 65.6171 59.2349 65.7281 59.1589 65.8411C58.9049 66.2141 58.6539 66.5901 58.4049 66.9691C58.3689 67.0261 58.3329 67.0831 58.2959 67.1391C58.0849 67.4641 57.8749 67.7901 57.6679 68.1191C57.5839 68.2521 57.5019 68.3871 57.4189 68.5201C57.2599 68.7761 57.1009 69.0321 56.9439 69.2901C56.8509 69.4421 56.7599 69.5961 56.6689 69.7491C56.5229 69.9941 56.3769 70.2391 56.2319 70.4861C56.1399 70.6441 56.0479 70.8021 55.9579 70.9611C55.8129 71.2121 55.6699 71.4651 55.5269 71.7181C55.4409 71.8711 55.3549 72.0241 55.2699 72.1771C55.1149 72.4571 54.9609 72.7391 54.8099 73.0221C54.7409 73.1501 54.6709 73.2771 54.6029 73.4051C54.3829 73.8171 54.1669 74.2301 53.9549 74.6471C53.9349 74.6841 53.9179 74.7211 53.8979 74.7581C53.7049 75.1391 53.5129 75.5211 53.3239 75.9061C53.2549 76.0471 53.1859 76.1901 53.1169 76.3321C52.9809 76.6151 52.8439 76.8981 52.7089 77.1841C52.6319 77.3501 52.5549 77.5151 52.4789 77.6811C52.3539 77.9491 52.2309 78.2171 52.1099 78.4871C52.0319 78.6581 51.9559 78.8301 51.8789 79.0021C51.7589 79.2741 51.6389 79.5471 51.5209 79.8221C51.4489 79.9901 51.3749 80.1571 51.3039 80.3251C51.1769 80.6231 51.0529 80.9231 50.9289 81.2221C50.8689 81.3671 50.8089 81.5101 50.7499 81.6541C50.5679 82.0991 50.3899 82.5461 50.2159 82.9961C45.3159 94.6071 42.5269 107.945 42.5269 122.136C42.5269 122.837 42.5339 123.536 42.5479 124.233C42.5489 124.309 42.5529 124.384 42.5549 124.46C42.5679 125.081 42.5839 125.7 42.6089 126.317C42.6139 126.448 42.6229 126.578 42.6279 126.708C42.6519 127.269 42.6769 127.829 42.7099 128.386C42.7259 128.662 42.7479 128.936 42.7659 129.211C42.7929 129.622 42.8179 130.032 42.8499 130.441C42.8759 130.778 42.9089 131.113 42.9389 131.449C42.9679 131.793 42.9959 132.138 43.0289 132.481C43.0599 132.799 43.0959 133.114 43.1309 133.431C43.1689 133.79 43.2049 134.15 43.2459 134.507C43.2799 134.795 43.3189 135.081 43.3549 135.368C43.4029 135.751 43.4489 136.134 43.5009 136.515C43.5429 136.819 43.5899 137.121 43.6349 137.425C43.6879 137.785 43.7369 138.148 43.7929 138.507C43.8409 138.81 43.8939 139.11 43.9439 139.412C44.0029 139.769 44.0589 140.126 44.1219 140.481C44.1759 140.786 44.2359 141.089 44.2929 141.393C44.3569 141.741 44.4189 142.091 44.4869 142.436C44.5489 142.748 44.6159 143.056 44.6789 143.365C44.7489 143.701 44.8159 144.04 44.8889 144.374C44.9549 144.684 45.0289 144.99 45.0989 145.298C45.1739 145.629 45.2469 145.962 45.3259 146.291C45.4029 146.618 45.4869 146.941 45.5679 147.267C45.6439 147.574 45.7179 147.883 45.7969 148.189C45.8809 148.512 45.9709 148.833 46.0569 149.154C46.1399 149.458 46.2179 149.763 46.3029 150.066C46.3879 150.368 46.4779 150.666 46.5659 150.966C46.6579 151.285 46.7489 151.605 46.8439 151.922C46.9299 152.207 47.0209 152.488 47.1099 152.772C47.2129 153.1 47.3119 153.43 47.4179 153.755C47.5129 154.048 47.6119 154.336 47.7099 154.627C47.8139 154.94 47.9169 155.255 48.0239 155.566C48.1259 155.859 48.2319 156.148 48.3359 156.439C48.4449 156.744 48.5519 157.05 48.6639 157.353C48.7709 157.646 48.8849 157.935 48.9949 158.224C49.1069 158.522 49.2189 158.822 49.3349 159.117C49.4469 159.405 49.5649 159.689 49.6819 159.974C49.7999 160.269 49.9159 160.564 50.0379 160.857C50.1519 161.132 50.2709 161.404 50.3889 161.677C50.5159 161.975 50.6409 162.275 50.7709 162.57C50.8949 162.849 51.0219 163.125 51.1469 163.402C51.2769 163.687 51.4039 163.974 51.5359 164.257C51.6649 164.534 51.7989 164.808 51.9299 165.082C52.0639 165.361 52.1959 165.642 52.3299 165.919C52.4629 166.189 52.5999 166.452 52.7329 166.72C52.8739 166.997 53.0109 167.279 53.1539 167.554C53.2919 167.82 53.4339 168.081 53.5739 168.345C53.7179 168.616 53.8599 168.891 54.0079 169.161C54.1499 169.421 54.2959 169.677 54.4399 169.935C54.5899 170.204 54.7369 170.473 54.8889 170.739C55.0339 170.991 55.1829 171.239 55.3289 171.49C55.4859 171.757 55.6399 172.024 55.7989 172.288C55.9499 172.54 56.1059 172.786 56.2589 173.035C56.4169 173.293 56.5739 173.554 56.7359 173.807C56.8909 174.052 57.0499 174.293 57.2079 174.536C57.3719 174.79 57.5339 175.046 57.7009 175.298C57.8569 175.534 58.0179 175.765 58.1769 175.998C58.3479 176.251 58.5179 176.507 58.6919 176.757C58.8559 176.991 59.0229 177.22 59.1879 177.452C59.3619 177.696 59.5339 177.942 59.7089 178.182C59.8769 178.412 60.0489 178.637 60.2189 178.864C60.3969 179.102 60.5729 179.343 60.7519 179.578C60.9299 179.81 61.1119 180.038 61.2929 180.266C61.4689 180.491 61.6429 180.718 61.8199 180.94C62.0019 181.167 62.1869 181.387 62.3709 181.61C62.5529 181.831 62.7309 182.053 62.9139 182.269C63.0979 182.487 63.2839 182.7 63.4699 182.915C63.6569 183.132 63.8419 183.351 64.0319 183.565C64.2209 183.779 64.4149 183.987 64.6059 184.199C64.7949 184.407 64.9819 184.619 65.1719 184.825C65.3659 185.034 65.5649 185.237 65.7599 185.442C65.9519 185.645 66.1429 185.85 66.3369 186.049C66.5329 186.25 66.7329 186.445 66.9309 186.645C67.1289 186.842 67.3249 187.043 67.5249 187.239C67.7239 187.433 67.9279 187.622 68.1289 187.813C68.3299 188.006 68.5299 188.202 68.7339 188.39C68.9379 188.58 69.1459 188.764 69.3509 188.95C69.5559 189.136 69.7579 189.323 69.9639 189.505C70.1789 189.694 70.3969 189.878 70.6129 190.064C70.8139 190.236 71.0129 190.413 71.2159 190.582C71.4339 190.766 71.6549 190.941 71.8749 191.12C72.0799 191.287 72.2829 191.457 72.4899 191.621C72.7079 191.795 72.9289 191.961 73.1489 192.131C73.3609 192.294 73.5709 192.46 73.7829 192.619C74.0119 192.791 74.2419 192.955 74.4709 193.123C74.6789 193.273 74.8869 193.43 75.0959 193.578C75.3249 193.74 75.5559 193.895 75.7859 194.055C75.9999 194.201 76.2129 194.354 76.4299 194.497C76.6549 194.648 76.8829 194.791 77.1099 194.939C77.3339 195.084 77.5559 195.232 77.7819 195.375C78.0139 195.521 78.2519 195.66 78.4859 195.805C78.7079 195.94 78.9279 196.078 79.1509 196.209C79.3999 196.356 79.6509 196.496 79.9009 196.638C80.1139 196.759 80.3249 196.884 80.5389 197.002C80.7889 197.141 81.0409 197.271 81.2919 197.404C81.5099 197.519 81.7259 197.638 81.9439 197.752C82.1849 197.875 82.4279 197.992 82.6699 198.111C82.9019 198.227 83.1339 198.345 83.3669 198.458C83.6079 198.574 83.8529 198.682 84.0959 198.793C84.3319 198.902 84.5679 199.015 84.8049 199.119C85.0509 199.228 85.2989 199.33 85.5469 199.434C85.7839 199.535 86.0209 199.639 86.2589 199.736C86.5099 199.838 86.7619 199.931 87.0139 200.029C87.2519 200.121 87.4899 200.218 87.7289 200.306C87.9799 200.4 88.2339 200.485 88.4869 200.574C88.7289 200.66 88.9709 200.75 89.2149 200.832C89.4609 200.915 89.7099 200.99 89.9579 201.068C90.2099 201.149 90.4609 201.232 90.7139 201.309C90.9719 201.387 91.2319 201.456 91.4909 201.53C91.7359 201.599 91.9799 201.674 92.2269 201.74C92.5029 201.813 92.7829 201.879 93.0609 201.949C93.2909 202.006 93.5219 202.067 93.7529 202.121C94.0319 202.187 94.3149 202.244 94.5959 202.305C94.8269 202.354 95.0589 202.409 95.2919 202.455C95.5729 202.511 95.8559 202.559 96.1389 202.609C96.3739 202.652 96.6089 202.699 96.8439 202.738C97.1489 202.789 97.4539 202.83 97.7589 202.875C97.9759 202.906 98.1919 202.943 98.4079 202.972C98.7299 203.015 99.0539 203.048 99.3779 203.084C99.5799 203.106 99.7809 203.135 99.9839 203.154C100.312 203.187 100.642 203.211 100.972 203.236C101.171 203.252 101.37 203.273 101.57 203.286C101.929 203.309 102.291 203.324 102.651 203.34C102.824 203.348 102.995 203.36 103.168 203.365C103.702 203.383 104.238 203.391 104.775 203.391H88.9389C88.4009 203.391 87.8659 203.382 87.3319 203.365C87.1589 203.359 86.9879 203.347 86.8149 203.34C86.4549 203.324 86.0929 203.31 85.7339 203.286C85.5349 203.273 85.3359 203.252 85.1359 203.236C84.8059 203.211 84.4759 203.187 84.1469 203.154C83.9449 203.134 83.7439 203.106 83.5419 203.084C83.2189 203.048 82.8949 203.015 82.5719 202.972C82.3549 202.944 82.1389 202.907 81.9229 202.875C81.6179 202.83 81.3129 202.789 81.0089 202.738C80.7729 202.699 80.5379 202.652 80.3029 202.609C80.0209 202.558 79.7379 202.51 79.4569 202.455C79.2239 202.408 78.9909 202.353 78.7589 202.305C78.4789 202.244 78.1969 202.188 77.9169 202.121C77.6859 202.067 77.4549 202.006 77.2249 201.949C76.9469 201.879 76.6669 201.813 76.3909 201.74C76.1439 201.674 75.8989 201.599 75.6539 201.53C75.3949 201.457 75.1349 201.387 74.8779 201.309C74.6249 201.232 74.3739 201.149 74.1209 201.068C73.8739 200.99 73.6249 200.915 73.3789 200.832C73.1349 200.75 72.8939 200.66 72.6499 200.574C72.3979 200.485 72.1449 200.4 71.8929 200.306C71.6539 200.218 71.4159 200.12 71.1779 200.029C70.9259 199.931 70.6729 199.838 70.4229 199.736C70.1849 199.639 69.9479 199.535 69.7109 199.434C69.4639 199.33 69.2149 199.228 68.9689 199.119C68.7309 199.015 68.4959 198.902 68.2599 198.793C68.0169 198.682 67.7729 198.574 67.5309 198.458C67.2979 198.346 67.0659 198.228 66.8339 198.111C66.5919 197.992 66.3499 197.875 66.1089 197.752C65.8889 197.639 65.6729 197.52 65.4559 197.404C65.2049 197.27 64.9519 197.14 64.7029 197.002C64.4889 196.884 64.2779 196.759 64.0659 196.638C63.8149 196.496 63.5639 196.357 63.3149 196.209C63.0919 196.078 62.8719 195.939 62.6499 195.805C62.4159 195.66 62.1779 195.522 61.9459 195.375C61.7199 195.232 61.4989 195.084 61.2739 194.939C61.0469 194.791 60.8189 194.648 60.5939 194.497C60.3769 194.353 60.1639 194.201 59.9489 194.055C59.7199 193.896 59.4879 193.741 59.2599 193.578C59.0499 193.43 58.8439 193.273 58.6349 193.123C58.4059 192.955 58.1749 192.791 57.9469 192.619C57.7339 192.46 57.5239 192.294 57.3119 192.131C57.0919 191.961 56.8709 191.795 56.6529 191.621C56.4459 191.457 56.2429 191.287 56.0379 191.12C55.8179 190.941 55.5979 190.766 55.3799 190.582C55.1769 190.413 54.9779 190.236 54.7759 190.064C54.5599 189.878 54.3419 189.695 54.1279 189.505C53.9229 189.323 53.7199 189.136 53.5159 188.95C53.3099 188.764 53.1019 188.581 52.8979 188.39C52.6939 188.202 52.4939 188.006 52.2929 187.813C52.0909 187.622 51.8879 187.433 51.6889 187.239C51.4889 187.044 51.2929 186.843 51.0949 186.645C50.8969 186.446 50.6979 186.25 50.5009 186.049C50.3069 185.851 50.1159 185.646 49.9239 185.442Z" fill="url(#paint8_linear_151_231)"/>
<g opacity="0.8">
<path opacity="0.8" d="M105.76 38.4551C81.505 38.4551 60.49 56.5681 50.221 82.9961C45.321 94.6071 42.532 107.945 42.532 122.136C42.532 167.014 70.399 203.392 104.778 203.392C129.033 203.392 150.046 185.28 160.319 158.85C165.215 147.241 168.007 133.903 168.007 119.709C168.006 74.8331 140.137 38.4551 105.76 38.4551Z" fill="url(#paint9_linear_151_231)"/>
</g>
<g opacity="0.8">
<g opacity="0.8">
<g opacity="0.8">
<g opacity="0.8">
<path opacity="0.8" d="M111.966 177.924H108.647C124.387 177.924 137.148 152.403 137.148 120.923C137.148 110.818 135.834 101.328 133.528 93.0959C131.938 87.4219 129.878 82.3469 127.451 78.0849C126.374 76.1919 125.227 74.4629 124.016 72.9109C122.121 70.4789 120.073 68.4839 117.906 66.9949C115.004 65.0019 111.888 63.9209 108.647 63.9209H111.966C115.207 63.9209 118.322 65.0029 121.225 66.9949C123.391 68.4829 125.44 70.4789 127.334 72.9109C128.545 74.4629 129.692 76.1919 130.769 78.0849C133.195 82.3469 135.256 87.4219 136.847 93.0959C139.153 101.327 140.467 110.817 140.467 120.923C140.467 152.403 127.706 177.924 111.966 177.924Z" fill="#855D1E"/>
</g>
</g>
<g opacity="0.8">
<g opacity="0.8">
<path opacity="0.8" d="M111.966 63.9209H108.647C92.9069 63.9209 80.147 89.4399 80.147 120.922C80.147 132.575 81.8949 143.413 84.8969 152.44C86.1559 156.23 87.6349 159.698 89.2979 162.774C90.1989 164.442 91.155 165.997 92.159 167.42C94.77 171.133 97.708 173.984 100.869 175.775C103.342 177.173 105.95 177.922 108.646 177.922H111.965C109.269 177.922 106.659 177.173 104.188 175.775C101.027 173.984 98.089 171.132 95.478 167.42C94.473 165.996 93.517 164.441 92.616 162.774C90.953 159.698 89.474 156.229 88.215 152.44C85.213 143.413 83.466 132.576 83.466 120.922C83.466 89.4399 96.226 63.9209 111.966 63.9209Z" fill="#855D1E"/>
</g>
</g>
</g>
</g>
<g opacity="0.8">
<g opacity="0.8">
<g opacity="0.8">
<path opacity="0.8" d="M110.839 177.924C134.954 177.924 154.504 152.403 154.504 120.923C154.504 110.818 152.49 101.328 148.957 93.0959C146.522 87.4219 143.363 82.3469 139.645 78.0849C137.996 76.1919 136.239 74.4629 134.385 72.9109C131.481 70.4789 128.342 68.4839 125.023 66.9949C120.576 65.0019 115.803 63.9209 110.838 63.9209H108.374C113.34 63.9209 118.112 65.0029 122.559 66.9949C125.879 68.4829 129.017 70.4789 131.922 72.9109C133.775 74.4629 135.531 76.1919 137.182 78.0849C140.9 82.3469 144.059 87.4219 146.494 93.0959C150.027 101.327 152.041 110.817 152.041 120.923C152.041 152.404 132.49 177.924 108.375 177.924C109.114 177.924 110.1 177.924 110.839 177.924Z" fill="#5BC8AC"/>
<g opacity="0.8">
<path opacity="0.8" d="M110.839 177.924H108.375C132.49 177.924 152.041 152.403 152.041 120.923C152.041 110.818 150.027 101.328 146.494 93.0959C144.059 87.4219 140.9 82.3469 137.182 78.0849C135.532 76.1919 133.775 74.4629 131.922 72.9109C129.017 70.4789 125.879 68.4839 122.559 66.9949C118.113 65.0019 113.34 63.9209 108.374 63.9209H110.838C115.803 63.9209 120.575 65.0029 125.023 66.9949C128.342 68.4829 131.481 70.4789 134.385 72.9109C136.239 74.4629 137.995 76.1919 139.645 78.0849C143.363 82.3469 146.522 87.4219 148.957 93.0959C152.49 101.327 154.504 110.817 154.504 120.923C154.504 152.403 134.954 177.924 110.839 177.924Z" fill="#5BC8AC"/>
</g>
</g>
<g opacity="0.8">
<path opacity="0.8" d="M110.839 63.9209H108.375C84.26 63.9209 64.71 89.4399 64.71 120.922C64.71 132.575 67.39 143.413 71.986 152.44C73.916 156.23 76.182 159.698 78.732 162.774C80.111 164.442 81.578 165.997 83.116 167.42C87.117 171.133 91.616 173.984 96.461 175.775C100.247 177.173 104.244 177.922 108.375 177.922H110.839C106.707 177.922 102.71 177.173 98.924 175.775C94.079 173.984 89.5799 171.132 85.5789 167.42C84.0409 165.996 82.575 164.441 81.195 162.774C78.645 159.698 76.379 156.229 74.45 152.44C69.852 143.413 67.173 132.576 67.173 120.922C67.173 89.4399 86.723 63.9209 110.839 63.9209Z" fill="#5BC8AC"/>
<g opacity="0.8">
<path opacity="0.8" d="M110.839 63.9209H108.375C84.26 63.9209 64.71 89.4399 64.71 120.922C64.71 132.575 67.39 143.413 71.986 152.44C73.916 156.23 76.182 159.698 78.732 162.774C80.111 164.442 81.578 165.997 83.116 167.42C87.117 171.133 91.616 173.984 96.461 175.775C100.247 177.173 104.244 177.922 108.375 177.922H110.839C106.707 177.922 102.71 177.173 98.924 175.775C94.079 173.984 89.5799 171.132 85.5789 167.42C84.0409 165.996 82.575 164.441 81.195 162.774C78.645 159.698 76.379 156.229 74.45 152.44C69.852 143.413 67.173 132.576 67.173 120.922C67.173 89.4399 86.723 63.9209 110.839 63.9209Z" fill="#5BC8AC"/>
</g>
</g>
</g>
</g>
<g opacity="0.8">
<path opacity="0.8" d="M108.494 63.9209C84.3789 63.9209 64.8298 89.4399 64.8298 120.922C64.8298 132.575 67.5079 143.413 72.1049 152.44C74.0359 156.23 76.3019 159.698 78.8499 162.774C80.2319 164.442 81.6958 165.997 83.2348 167.42C87.2358 171.133 91.7369 173.984 96.5799 175.775C100.367 177.173 104.365 177.922 108.494 177.922C132.611 177.922 152.161 152.401 152.161 120.921C152.161 110.816 150.147 101.326 146.614 93.0939C144.177 87.4199 141.018 82.3449 137.301 78.0829C135.654 76.1899 133.897 74.4609 132.041 72.9089C129.139 70.4769 126 68.4819 122.68 66.9929C118.232 65.0029 113.461 63.9209 108.494 63.9209Z" fill="url(#paint10_linear_151_231)"/>
</g>
</g>
<path d="M107.892 116.135L101.414 115.069L119.853 113.132L126.329 114.197L107.892 116.135Z" fill="#D09AA1"/>
<path d="M127.851 86.4004L127.75 98.7904L108.016 100.864L107.892 116.135L126.329 114.197L126.229 126.479L107.792 128.417L107.573 155.283L95.917 156.509L96.461 89.7004L127.851 86.4004Z" fill="#E9909F"/>
<path d="M95.9169 156.509L89.439 155.443L89.9829 88.6338L96.4609 89.6998L95.9169 156.509Z" fill="#CC9BA1"/>
<path d="M96.4609 89.7L89.9829 88.634L121.373 85.335L127.851 86.3999L96.4609 89.7Z" fill="#D09AA1"/>
<defs>
<linearGradient id="paint0_linear_151_231" x1="127.493" y1="266.209" x2="-122.123" y2="340.906" gradientUnits="userSpaceOnUse">
<stop offset="0.0303" stop-color="#5BC8AC"/>
<stop offset="1" stop-color="white"/>
</linearGradient>
<linearGradient id="paint1_linear_151_231" x1="301.655" y1="253.616" x2="-27.0365" y2="327.249" gradientUnits="userSpaceOnUse">
<stop offset="0.0354" stop-color="#5BC8AC"/>
<stop offset="1" stop-color="white"/>
</linearGradient>
<linearGradient id="paint2_linear_151_231" x1="62.6054" y1="365.804" x2="312.226" y2="291.106" gradientUnits="userSpaceOnUse">
<stop stop-color="#5BC8AC"/>
<stop offset="1" stop-color="white" stop-opacity="0.6"/>
</linearGradient>
<linearGradient id="paint3_linear_151_231" x1="-111.387" y1="378.397" x2="217.304" y2="304.764" gradientUnits="userSpaceOnUse">
<stop offset="0.0354" stop-color="#5BC8AC"/>
<stop offset="1" stop-color="#5BC8AC"/>
</linearGradient>
<linearGradient id="paint4_linear_151_231" x1="182.092" y1="102.028" x2="73.4608" y2="308.92" gradientUnits="userSpaceOnUse">
<stop offset="0.0303" stop-color="#5BC8AC"/>
<stop offset="1" stop-color="#5BC8AC"/>
</linearGradient>
<linearGradient id="paint5_linear_151_231" x1="97.3501" y1="413.772" x2="97.3501" y2="126.146" gradientUnits="userSpaceOnUse">
<stop offset="0.4641" stop-color="#5BC8AC" stop-opacity="0.3"/>
<stop offset="0.8313" stop-color="#FEFBFB" stop-opacity="0"/>
</linearGradient>
<linearGradient id="paint6_linear_151_231" x1="96.2973" y1="359.05" x2="96.2972" y2="6.88099" gradientUnits="userSpaceOnUse">
<stop offset="0.1375" stop-color="#F18D9E"/>
<stop offset="0.6168" stop-color="white" stop-opacity="0"/>
</linearGradient>
<linearGradient id="paint7_linear_151_231" x1="182.091" y1="105.274" x2="73.4592" y2="312.168" gradientUnits="userSpaceOnUse">
<stop offset="0.0303" stop-color="#5BC8AC"/>
<stop offset="1" stop-color="#5BC8AC"/>
</linearGradient>
<linearGradient id="paint8_linear_151_231" x1="66.2275" y1="203.391" x2="66.2275" y2="38.4547" gradientUnits="userSpaceOnUse">
<stop offset="3.8e-07" stop-color="#5BC8AC"/>
<stop offset="0.2824" stop-color="#00DBAC"/>
<stop offset="0.4092" stop-color="#07D9AC"/>
<stop offset="0.5994" stop-color="#1CD5AC"/>
<stop offset="0.8282" stop-color="#3DCEAC"/>
<stop offset="1" stop-color="#5BC8AC"/>
</linearGradient>
<linearGradient id="paint9_linear_151_231" x1="102.391" y1="203.336" x2="108.146" y2="38.5093" gradientUnits="userSpaceOnUse">
<stop stop-color="#F18D9E"/>
<stop offset="0.0163" stop-color="#EA909F"/>
<stop offset="0.1103" stop-color="#C49FA2"/>
<stop offset="0.2118" stop-color="#A3ACA5"/>
<stop offset="0.3205" stop-color="#89B6A8"/>
<stop offset="0.4394" stop-color="#74BEAA"/>
<stop offset="0.5733" stop-color="#66C4AB"/>
<stop offset="0.7349" stop-color="#5EC7AC"/>
<stop offset="1" stop-color="#5BC8AC"/>
</linearGradient>
<linearGradient id="paint10_linear_151_231" x1="106.507" y1="177.875" x2="110.484" y2="63.9702" gradientUnits="userSpaceOnUse">
<stop offset="5.2e-07" stop-color="#F18D9E"/>
<stop offset="0.8659" stop-color="#60C6AC"/>
<stop offset="0.9312" stop-color="#5EC5AB"/>
<stop offset="0.9548" stop-color="#57C2A6"/>
<stop offset="0.9716" stop-color="#4CBC9E"/>
<stop offset="0.9851" stop-color="#3BB392"/>
<stop offset="0.9966" stop-color="#25A883"/>
<stop offset="1" stop-color="#1DA47D"/>
</linearGradient>
</defs>
</svg>
